{"glyphs":{"0":{"ha":643,"x_min":56,"x_max":604,"o":"m 56 315 q 109 78 58 168 q 275 -14 160 -12 q 527 140 450 -14 q 604 513 604 294 q 550 750 601 660 q 385 842 499 840 q 192 766 265 842 q 87 572 118 690 q 56 315 56 453 m 521 504 q 466 201 521 333 q 286 68 411 68 q 173 140 207 68 q 139 325 139 213 q 194 628 139 496 q 374 761 249 761 q 487 689 453 761 q 521 504 521 617 z "},"1":{"ha":349,"x_min":35,"x_max":292,"o":"m 272 847 q 288 841 285 847 q 290 818 292 835 l 283 775 q 235 461 254 597 q 208 218 215 325 l 197 24 q 158 -7 196 -4 q 121 -3 128 -10 q 115 19 114 4 q 115 40 115 33 q 196 751 131 385 q 93 703 146 731 q 68 696 76 696 q 43 719 53 696 q 35 749 35 739 q 40 763 35 757 q 60 776 46 769 q 185 825 119 803 q 272 847 251 847 z "},"2":{"ha":556,"x_min":25,"x_max":503,"o":"m 453 83 q 488 79 479 83 q 496 63 496 75 l 493 40 q 475 8 486 15 q 435 0 464 0 l 79 -10 q 43 12 61 -11 q 25 50 25 35 q 42 76 25 60 l 90 124 q 265 305 200 232 q 375 462 331 378 q 419 633 419 546 q 394 735 419 701 q 310 769 368 769 q 224 741 258 769 q 168 658 190 713 q 158 639 163 644 q 143 633 153 633 q 113 640 136 633 q 90 651 97 646 q 83 665 83 657 q 88 686 83 674 q 176 810 118 767 q 317 853 233 853 q 455 794 408 851 q 503 646 501 736 q 456 446 503 542 q 345 275 410 350 q 176 96 281 200 l 151 71 l 453 83 z "},"3":{"ha":529,"x_min":17,"x_max":501,"o":"m 351 436 q 453 356 424 404 q 482 240 482 308 q 420 60 482 132 q 244 -12 358 -12 q 126 12 172 -12 q 28 90 79 36 q 17 113 17 101 q 40 150 17 126 q 71 168 58 168 q 92 156 79 168 q 163 92 132 110 q 242 74 193 74 q 355 117 314 74 q 396 233 396 161 q 347 358 396 318 q 206 393 297 399 q 181 399 186 392 q 175 431 176 407 l 175 440 q 180 462 175 457 q 201 469 185 467 q 369 532 322 485 q 415 658 415 579 q 388 739 415 708 q 304 769 360 769 q 228 747 257 769 q 176 685 199 725 q 166 671 171 675 q 153 667 161 667 q 125 674 146 667 q 94 703 94 686 q 97 714 94 706 q 313 853 158 853 q 413 826 369 853 q 478 755 456 799 q 501 663 500 711 q 466 531 501 590 q 351 436 431 471 z "},"4":{"ha":624,"x_min":39,"x_max":589,"o":"m 560 376 q 583 372 576 376 q 589 356 589 368 q 586 332 589 351 q 568 301 579 308 q 528 293 557 294 l 464 290 l 457 218 q 444 18 449 121 q 410 -7 443 -3 q 388 -8 401 -8 q 366 -1 371 -8 q 361 21 361 6 l 361 40 q 382 286 365 149 l 103 272 q 72 285 88 272 q 47 317 56 299 q 43 350 39 336 q 138 611 53 376 q 207 806 196 778 q 226 840 217 832 q 253 849 235 849 q 291 845 281 849 q 301 831 301 842 q 296 808 301 828 q 213 582 265 729 q 129 354 163 440 l 390 368 q 451 794 421 619 q 463 830 457 822 q 486 842 468 838 q 519 847 507 847 q 535 841 532 847 q 538 818 539 835 q 474 372 504 619 l 560 376 z "},"5":{"ha":586,"x_min":28,"x_max":531,"o":"m 143 419 q 112 446 125 429 q 96 483 99 463 l 143 783 q 159 827 149 818 q 207 838 169 836 l 501 847 q 524 842 517 846 q 531 828 531 839 q 526 803 531 818 q 508 774 518 779 q 465 767 497 768 l 222 758 l 182 513 q 258 531 226 525 q 322 536 289 536 q 472 470 417 536 q 526 285 526 404 q 490 127 526 194 q 392 24 454 60 q 253 -11 329 -11 q 135 16 182 -11 q 39 100 88 43 q 28 122 28 115 q 53 156 28 135 q 82 172 71 172 q 103 158 90 172 q 174 94 139 113 q 258 75 208 75 q 392 133 342 75 q 442 282 442 190 q 307 454 442 454 q 143 419 250 454 z "},"6":{"ha":544,"x_min":49,"x_max":500,"o":"m 335 518 q 453 462 406 518 q 500 301 500 406 q 468 142 500 214 q 378 29 436 71 q 247 -12 321 -12 q 96 62 143 -12 q 49 279 49 136 q 71 451 49 365 q 135 604 93 536 q 365 838 207 728 q 386 844 375 844 q 418 822 400 844 q 433 794 433 804 q 418 775 433 785 q 243 619 311 706 q 147 436 175 533 q 335 518 235 518 m 418 297 q 389 404 418 368 q 311 440 360 440 q 219 410 261 440 q 132 333 178 381 q 129 260 129 308 q 158 121 129 171 q 251 71 188 71 q 338 103 300 71 q 397 188 376 136 q 418 297 418 240 z "},"7":{"ha":549,"x_min":90,"x_max":551,"o":"m 547 769 q 543 802 551 783 q 519 834 535 821 q 488 847 503 847 l 151 831 q 110 823 121 829 q 93 794 100 817 l 90 772 q 97 756 90 760 q 119 751 103 751 l 460 767 q 295 355 396 604 q 165 38 194 106 q 160 14 160 18 q 170 1 160 4 q 208 -3 181 -3 q 235 6 226 -3 q 256 40 244 14 q 411 424 314 181 q 547 769 508 668 z "},"8":{"ha":540,"x_min":42,"x_max":503,"o":"m 319 439 q 415 368 378 400 q 477 291 451 336 q 503 186 503 246 q 474 90 503 136 q 393 16 446 44 q 268 -12 340 -12 q 103 40 164 -12 q 42 183 42 93 q 128 383 42 289 q 185 439 157 415 q 100 532 131 483 q 69 644 69 581 q 132 799 69 746 q 288 853 194 853 q 401 824 350 853 q 483 750 451 794 q 493 728 493 736 q 487 711 493 719 q 471 696 481 703 q 443 679 454 679 q 421 696 433 679 q 363 752 396 731 q 283 774 331 774 q 186 739 224 774 q 149 650 149 704 q 172 561 149 594 q 249 488 196 528 q 267 499 257 492 q 292 514 278 506 q 419 585 372 563 q 444 592 433 592 q 469 571 457 592 q 482 543 482 549 q 460 519 482 532 q 319 439 379 476 m 268 65 q 380 101 336 65 q 424 190 424 138 q 388 283 424 244 q 278 372 351 322 l 251 390 q 182 329 211 361 q 124 186 124 269 q 160 99 124 132 q 268 65 196 65 z "},"9":{"ha":590,"x_min":69,"x_max":533,"o":"m 513 831 q 533 801 533 824 q 532 785 533 790 q 485 505 508 665 q 454 218 463 344 l 443 18 q 408 -7 442 -3 q 388 -8 400 -8 q 366 -1 371 -8 q 361 21 361 6 l 361 40 q 393 389 368 201 q 327 335 363 354 q 236 315 292 315 q 117 373 164 315 q 69 531 69 431 q 106 696 69 624 q 214 810 143 768 q 383 851 285 851 q 513 831 447 851 m 442 763 q 372 771 400 771 q 212 702 269 771 q 154 532 154 633 q 178 434 154 472 q 246 396 201 396 q 355 458 308 396 q 418 622 401 521 l 442 763 z "}," ":{"ha":278,"x_min":0,"x_max":0,"o":""},"!":{"ha":301,"x_min":83,"x_max":267,"o":"m 168 803 q 125 432 136 543 q 114 272 114 321 q 117 242 114 250 q 132 233 121 233 l 149 236 q 176 246 169 242 q 183 269 182 250 q 208 481 192 376 q 238 668 224 586 q 256 774 251 750 q 265 826 258 788 l 267 838 q 262 853 267 849 q 246 856 257 857 q 231 854 236 856 l 200 850 q 177 838 183 846 q 168 803 171 829 m 153 144 q 103 117 122 144 q 83 50 83 89 q 97 6 83 22 q 132 -10 110 -10 q 182 18 163 -10 q 201 85 201 46 q 188 128 201 113 q 153 144 175 144 z "},"\"":{"ha":367,"x_min":89,"x_max":360,"o":"m 89 746 q 92 735 89 738 q 104 732 96 732 l 124 735 q 156 746 150 740 q 167 768 163 751 l 206 957 q 207 969 207 961 q 185 985 207 989 l 142 978 q 120 969 126 974 q 113 953 114 965 l 89 753 l 89 746 m 242 746 q 245 735 242 738 q 257 732 249 732 l 276 735 q 309 746 303 740 q 319 768 315 751 l 358 957 q 360 969 360 961 q 338 985 360 989 l 294 978 q 273 969 279 974 q 265 953 267 965 l 242 753 l 242 746 z "},"#":{"ha":832,"x_min":28,"x_max":799,"o":"m 769 603 q 792 599 786 603 q 799 582 799 594 l 796 560 q 781 533 790 539 q 749 525 771 526 l 601 519 l 581 333 l 749 339 q 772 335 765 339 q 778 318 778 331 l 775 296 q 760 269 769 275 q 728 261 750 263 l 572 256 l 551 69 q 542 35 550 43 q 515 22 535 28 q 485 17 497 17 q 470 23 474 17 q 469 46 467 29 l 493 253 l 307 247 l 288 69 q 278 35 286 43 q 251 22 271 28 q 221 17 233 17 q 206 23 210 17 q 206 46 203 29 l 228 244 l 57 239 q 34 242 40 238 q 28 258 28 247 l 31 281 q 45 310 36 304 q 76 318 54 317 l 238 324 l 258 508 l 78 503 q 55 506 61 501 q 49 522 49 511 l 51 544 q 66 574 57 568 q 97 582 75 581 l 267 588 l 288 768 q 297 804 290 796 q 321 817 304 813 q 353 821 342 821 q 367 815 364 821 q 368 793 369 810 l 346 590 l 532 596 l 551 768 q 561 804 554 796 q 585 817 568 813 q 617 821 606 821 q 631 815 628 821 q 632 793 633 810 l 610 597 l 769 603 m 338 511 l 317 325 l 503 331 l 524 518 l 338 511 z "},"$":{"ha":533,"x_min":-10,"x_max":489,"o":"m 425 722 q 346 760 379 751 l 310 450 q 428 326 382 389 q 474 192 474 264 q 417 41 474 96 q 265 -14 361 -14 l 256 -14 l 240 -142 q 231 -176 239 -168 q 204 -189 224 -183 q 171 -194 183 -194 q 155 -188 158 -194 q 154 -165 151 -182 l 174 0 q 86 44 125 15 q 0 121 47 74 q -10 139 -10 131 q 15 175 -10 150 q 44 193 33 193 q 64 183 54 193 q 183 86 132 110 l 222 413 l 197 433 q 118 506 147 476 q 69 577 89 536 q 49 668 49 618 q 111 800 49 751 q 263 851 174 849 l 275 851 l 289 972 q 299 1008 292 1000 q 322 1021 306 1017 q 357 1026 353 1026 q 372 1020 369 1026 q 374 997 375 1014 l 356 843 q 474 790 415 831 q 489 767 489 779 q 475 736 489 756 q 446 714 458 714 q 425 722 438 714 m 132 665 q 158 588 132 622 q 235 513 185 553 l 264 768 q 169 740 207 767 q 132 665 132 714 m 388 192 q 363 271 388 233 q 297 347 339 308 l 265 71 q 354 103 321 74 q 388 192 388 133 z "},"%":{"ha":839,"x_min":18,"x_max":810,"o":"m 169 -21 q 149 -35 158 -35 q 119 -22 140 -35 q 94 6 94 -8 q 99 18 94 13 l 656 860 q 676 871 665 871 q 708 860 690 871 q 732 832 732 846 q 728 819 732 826 l 169 -21 m 217 842 q 72 769 125 842 q 21 592 18 697 q 58 464 21 519 q 171 407 96 408 q 314 476 261 407 q 367 650 367 546 q 331 783 367 725 q 217 842 294 840 m 178 490 q 103 596 103 490 q 131 712 103 665 q 210 758 160 758 q 285 653 285 758 q 256 537 285 583 q 178 490 228 490 m 660 435 q 515 363 568 435 q 464 185 461 290 q 501 57 464 113 q 614 0 539 1 q 757 69 704 0 q 810 243 810 139 q 774 376 810 318 q 660 435 738 433 m 621 83 q 546 189 546 83 q 574 305 546 258 q 653 351 603 351 q 728 246 728 351 q 699 130 728 176 q 621 83 671 83 z "},"&":{"ha":814,"x_min":35,"x_max":807,"o":"m 789 613 q 807 581 807 592 q 794 558 807 569 q 597 398 683 463 q 435 294 511 333 l 428 218 q 421 22 421 135 q 415 3 421 8 q 399 -3 408 -1 q 386 -7 390 -6 q 363 -10 367 -10 q 342 -1 347 -10 q 338 29 338 7 q 358 261 338 63 q 240 239 292 239 q 92 293 150 239 q 35 447 35 347 q 67 603 35 526 q 159 730 100 681 q 292 779 218 779 q 406 675 369 779 l 439 935 q 448 969 442 961 q 471 982 454 978 q 506 988 492 988 q 521 981 517 988 q 522 958 525 974 q 444 390 475 650 q 738 618 568 461 q 761 631 750 631 q 789 613 774 631 m 232 321 q 368 353 290 321 l 376 433 q 379 489 379 472 q 355 641 379 582 q 288 700 331 700 q 198 660 238 700 q 137 561 158 619 q 115 450 115 503 q 149 353 115 386 q 232 321 183 321 z "},"'":{"ha":213,"x_min":89,"x_max":207,"o":"m 89 746 q 92 735 89 738 q 104 732 96 732 l 124 735 q 156 746 150 740 q 167 768 163 751 l 206 957 q 207 969 207 961 q 185 985 207 989 l 142 978 q 120 969 126 974 q 113 953 114 965 l 89 753 l 89 746 z "},"(":{"ha":389,"x_min":72,"x_max":419,"o":"m 246 -207 q 119 65 164 -90 q 72 392 75 221 q 103 665 72 522 q 198 933 135 808 q 351 1131 261 1058 q 374 1140 363 1140 q 406 1121 389 1140 q 419 1093 419 1103 q 403 1068 419 1083 q 260 876 317 997 q 179 627 204 756 q 154 393 154 499 q 196 94 154 235 q 317 -158 238 -47 q 326 -182 326 -172 q 320 -198 326 -190 q 306 -212 314 -206 q 274 -225 286 -225 q 246 -207 258 -225 z "},")":{"ha":390,"x_min":-29,"x_max":318,"o":"m 144 1121 q 271 849 226 1004 q 318 522 315 693 q 287 249 318 392 q 192 -19 256 106 q 39 -217 129 -144 q 17 -226 28 -226 q -15 -207 1 -226 q -29 -179 -29 -189 q -12 -154 -29 -169 q 130 38 74 -83 q 211 287 186 158 q 236 521 236 415 q 194 820 236 679 q 74 1072 153 961 q 64 1096 64 1086 q 70 1112 64 1104 q 85 1126 76 1119 q 117 1139 103 1139 q 144 1121 132 1139 z "},"*":{"ha":411,"x_min":38,"x_max":460,"o":"m 290 1038 q 285 1053 290 1049 q 269 1058 281 1058 l 257 1057 q 231 1049 238 1054 q 222 1028 224 1043 l 214 913 l 214 907 q 219 891 214 896 q 235 886 224 886 l 247 888 q 274 896 267 890 q 282 917 281 901 l 290 1032 l 290 1038 m 81 932 q 67 936 72 936 q 42 910 53 936 q 38 892 38 900 q 58 868 38 876 l 165 825 q 179 821 174 821 q 204 847 193 821 q 208 865 208 858 q 188 889 208 881 l 81 932 m 440 856 q 456 863 451 858 q 460 876 460 867 q 458 894 460 888 q 435 921 450 921 q 421 918 432 921 l 308 890 q 293 883 297 888 q 289 869 289 879 q 290 851 289 858 q 314 825 299 825 q 328 828 317 825 l 440 856 m 329 656 q 347 642 339 642 q 372 651 357 642 q 390 676 390 664 q 383 694 390 686 l 322 793 q 304 807 313 807 q 279 797 294 807 q 261 772 261 785 q 268 754 261 763 l 329 656 m 104 703 q 96 686 96 692 q 114 660 96 676 q 138 649 129 649 q 158 663 147 649 l 233 751 q 242 768 242 763 q 224 794 242 778 q 200 806 208 806 q 179 792 190 806 l 104 703 z "},"+":{"ha":522,"x_min":21,"x_max":501,"o":"m 472 471 q 495 468 489 472 q 501 453 501 464 l 499 428 q 481 400 492 406 q 440 392 471 394 l 300 386 l 283 228 q 274 194 282 201 q 247 181 267 186 q 217 175 231 175 q 203 181 207 175 q 203 204 200 188 l 222 382 l 50 375 q 28 380 35 375 q 21 396 21 385 q 24 415 21 399 q 40 444 31 439 q 82 453 50 450 l 231 460 l 249 617 q 258 653 251 644 q 282 665 265 661 q 315 671 313 671 q 327 665 325 671 q 328 642 329 660 l 308 464 l 472 471 z "},",":{"ha":238,"x_min":-19,"x_max":140,"o":"m 36 0 q -12 -117 36 -50 q -19 -133 -19 -126 q -4 -154 -19 -143 q 21 -167 14 -167 q 39 -157 31 -167 q 115 -40 89 -100 q 140 67 140 19 q 124 124 140 99 q 75 150 108 150 q 36 135 53 150 q 19 96 19 121 q 26 63 19 83 q 36 0 36 26 z "},"-":{"ha":326,"x_min":21,"x_max":306,"o":"m 50 326 q 27 330 33 325 q 21 347 21 335 l 24 369 q 40 399 31 393 q 82 407 50 404 l 276 418 q 299 415 293 419 q 306 400 306 411 q 303 375 306 394 q 287 346 297 351 q 244 338 276 340 l 50 326 z "},".":{"ha":257,"x_min":42,"x_max":160,"o":"m 111 144 q 61 117 81 144 q 42 50 42 89 q 55 6 42 22 q 90 -10 68 -10 q 140 18 121 -10 q 160 85 160 46 q 147 128 160 113 q 111 144 133 144 z "},"/":{"ha":643,"x_min":-14,"x_max":643,"o":"m 61 -147 q 40 -162 54 -162 q 13 -156 33 -162 q -14 -129 -14 -143 l -11 -118 l 568 1035 q 589 1050 576 1050 q 614 1043 596 1050 q 643 1017 643 1031 q 640 1006 643 1014 l 61 -147 z "},":":{"ha":288,"x_min":69,"x_max":225,"o":"m 179 579 q 213 565 201 579 q 225 528 225 551 q 203 454 225 483 q 150 425 182 425 q 116 440 128 425 q 104 481 104 454 q 126 551 104 524 q 179 579 147 579 m 144 185 q 178 171 167 185 q 190 133 190 157 q 169 60 190 89 q 115 31 147 31 q 81 45 93 31 q 69 86 69 60 q 91 157 69 129 q 144 185 113 185 z "},";":{"ha":290,"x_min":51,"x_max":225,"o":"m 179 579 q 213 565 201 579 q 225 528 225 551 q 203 454 225 483 q 150 425 182 425 q 116 440 128 425 q 104 481 104 454 q 126 551 104 524 q 179 579 147 579 m 107 0 q 58 -117 107 -50 q 51 -133 51 -126 q 67 -154 51 -143 q 92 -167 85 -167 q 110 -157 101 -167 q 185 -40 160 -100 q 211 67 211 19 q 195 124 211 99 q 146 150 179 150 q 107 135 124 150 q 90 96 90 121 q 97 63 90 83 q 107 0 107 26 z "},"<":{"ha":663,"x_min":28,"x_max":607,"o":"m 593 533 q 607 554 607 542 q 601 579 607 567 q 572 608 589 608 q 560 606 568 608 l 53 400 q 35 378 42 396 q 28 343 28 361 q 36 318 28 321 l 543 136 q 565 139 557 132 q 582 167 574 146 q 588 192 588 186 q 572 211 588 206 l 160 357 l 593 533 z "},"=":{"ha":535,"x_min":21,"x_max":514,"o":"m 63 431 q 40 435 47 431 q 33 451 33 440 q 36 471 33 454 q 53 500 43 494 q 94 508 63 506 l 485 526 q 508 524 501 528 q 514 508 514 519 l 511 483 q 494 456 504 461 q 453 447 483 450 l 63 431 m 50 264 q 28 269 35 264 q 21 285 21 274 q 24 304 21 288 q 40 333 31 328 q 82 342 50 339 l 472 360 q 495 357 489 361 q 501 342 501 353 l 499 317 q 481 289 492 294 q 440 281 471 283 l 50 264 z "},">":{"ha":663,"x_min":56,"x_max":635,"o":"m 69 210 q 56 189 56 201 q 61 164 56 176 q 90 135 74 135 q 103 138 94 135 l 610 343 q 628 365 621 347 q 635 400 635 382 q 626 425 635 424 l 119 607 q 97 604 106 611 q 81 576 89 597 q 75 551 75 557 q 90 532 75 538 l 503 386 l 69 210 z "},"?":{"ha":517,"x_min":63,"x_max":479,"o":"m 265 276 q 297 338 276 308 q 356 415 317 367 q 447 549 415 490 q 479 676 479 607 q 432 798 478 747 q 296 850 386 849 q 67 676 133 850 q 63 656 63 664 q 69 642 63 647 q 92 631 76 636 q 118 625 107 625 q 133 631 128 625 q 144 650 139 636 q 289 772 193 772 q 373 740 347 772 q 399 661 399 708 q 372 567 399 613 q 292 454 346 522 q 215 347 242 389 q 181 258 189 306 l 179 247 q 208 226 179 222 q 245 238 236 229 q 265 276 254 246 m 199 144 q 149 117 168 144 q 129 50 129 89 q 142 6 129 22 q 178 -10 156 -10 q 228 18 208 -10 q 247 85 247 46 q 234 128 247 113 q 199 144 221 144 z "},"@":{"ha":933,"x_min":58,"x_max":875,"o":"m 517 853 q 785 747 699 853 q 875 454 872 642 q 842 267 875 356 q 756 126 810 179 q 644 74 703 74 q 549 175 567 74 q 396 74 483 74 q 299 139 338 75 q 260 293 260 203 q 322 538 263 439 q 488 638 381 638 q 585 599 539 638 l 585 600 q 593 633 588 625 q 615 643 599 640 q 647 649 643 649 q 662 642 658 649 q 663 621 665 636 l 646 517 q 619 349 628 413 q 610 238 610 285 q 649 150 610 150 q 717 190 682 150 q 775 299 751 231 q 799 446 799 367 q 733 691 799 606 q 517 776 667 776 q 295 701 381 776 q 172 517 210 625 q 135 308 135 408 q 208 44 135 138 q 417 -49 282 -49 q 586 -7 514 -49 q 610 1 601 1 q 623 -5 618 1 q 633 -24 628 -11 q 642 -50 642 -40 q 621 -75 642 -64 q 415 -125 524 -125 q 154 -12 249 -125 q 58 301 60 100 q 107 555 58 428 q 259 767 156 682 q 517 853 363 853 m 414 150 q 505 215 467 150 q 558 388 543 279 q 576 525 569 465 q 538 553 557 543 q 492 563 518 563 q 374 479 408 563 q 338 294 339 396 q 356 194 338 238 q 414 150 375 150 z "},"A":{"ha":667,"x_min":-26,"x_max":597,"o":"m 593 53 q 597 26 597 36 q 592 8 597 14 q 572 -4 586 1 q 536 -14 547 -14 q 517 6 521 -14 l 457 360 l 199 333 l 67 31 q 47 2 57 10 q 24 -6 38 -6 q -15 -1 -3 -6 q -26 14 -26 3 q -22 32 -26 22 l 351 882 q 367 912 361 904 q 388 925 374 919 q 425 935 417 935 q 440 918 439 935 l 524 444 l 531 446 q 558 447 542 447 q 581 441 574 447 q 592 414 588 435 q 594 393 594 397 q 583 376 594 382 q 538 367 571 371 l 593 53 m 406 663 l 393 779 l 235 417 l 443 438 l 406 663 z "},"B":{"ha":681,"x_min":64,"x_max":624,"o":"m 128 -11 q 89 11 106 -8 q 74 51 72 31 l 178 847 q 101 835 142 843 l 90 833 q 69 843 75 833 q 64 878 64 853 q 94 914 64 908 q 326 940 231 940 q 443 928 390 940 q 576 853 529 907 q 624 701 624 799 q 581 568 624 631 q 460 479 538 506 q 576 404 536 460 q 617 278 617 349 q 520 69 617 151 q 206 -14 424 -14 q 128 -11 183 -14 m 529 276 q 456 402 529 367 q 279 432 383 438 q 250 435 257 431 q 243 454 243 440 l 244 474 q 255 505 249 500 q 289 511 261 510 q 476 569 414 518 q 538 697 538 619 q 479 823 538 785 q 325 861 421 861 q 260 857 293 861 l 158 72 q 215 71 178 71 q 454 128 379 71 q 529 276 529 185 z "},"C":{"ha":644,"x_min":49,"x_max":625,"o":"m 288 -14 q 114 85 176 -14 q 49 338 51 183 q 85 613 49 476 q 205 843 121 750 q 422 936 289 936 q 553 888 501 935 q 622 756 606 842 l 625 738 q 618 721 625 726 q 590 710 611 715 q 563 704 575 704 q 547 710 553 704 q 538 729 540 715 q 495 822 525 792 q 411 851 465 851 q 251 766 313 851 q 163 564 189 681 q 136 351 136 447 q 178 150 136 228 q 297 72 221 72 q 410 115 360 74 q 496 224 460 156 q 521 243 506 243 q 549 232 531 243 q 579 200 579 218 q 575 185 579 193 q 288 -14 467 -14 z "},"D":{"ha":696,"x_min":64,"x_max":649,"o":"m 128 -10 q 90 13 107 -7 q 75 51 74 33 l 178 843 q 101 832 125 838 q 72 840 81 829 q 64 878 64 850 q 94 914 64 908 q 333 933 197 933 q 572 841 494 931 q 649 575 649 751 q 529 136 649 289 q 196 -17 410 -17 q 128 -10 167 -17 m 160 69 q 200 67 190 67 q 475 208 388 67 q 563 581 563 349 q 504 787 563 724 q 336 851 446 850 q 261 850 318 853 l 160 69 z "},"E":{"ha":606,"x_min":63,"x_max":599,"o":"m 556 932 q 589 928 579 933 q 599 908 599 922 q 596 889 599 903 q 578 859 589 865 q 538 851 568 853 l 238 843 l 201 504 l 472 518 q 506 514 497 519 q 515 496 515 508 q 513 475 515 492 q 496 446 506 451 q 454 438 486 440 l 193 425 l 154 69 l 493 82 q 527 78 518 82 q 536 61 536 74 q 533 38 536 57 q 516 7 526 14 q 475 0 506 0 l 119 -14 q 81 6 100 -15 q 65 49 63 28 l 151 840 l 106 839 q 72 843 81 839 q 63 860 63 847 l 65 882 q 81 913 72 907 q 119 919 89 918 l 556 932 z "},"F":{"ha":594,"x_min":61,"x_max":601,"o":"m 558 932 q 592 928 582 933 q 601 908 601 922 q 599 889 601 903 q 581 859 592 865 q 540 851 571 853 l 240 843 l 200 476 l 475 490 q 509 486 500 492 q 518 468 518 481 q 515 447 518 464 q 499 418 508 424 q 457 410 489 413 l 192 397 l 153 42 q 144 8 151 15 q 117 -6 136 0 q 81 -11 96 -11 q 65 -5 68 -11 q 64 18 61 1 l 154 840 l 108 839 q 74 843 83 839 q 65 860 65 847 l 68 882 q 84 913 75 907 q 122 919 93 919 l 558 932 z "},"G":{"ha":674,"x_min":49,"x_max":625,"o":"m 407 854 q 250 769 311 854 q 163 567 189 683 q 136 354 136 450 q 178 153 136 231 q 297 75 221 75 q 449 158 392 76 q 525 367 507 240 l 372 357 q 340 358 347 356 q 332 374 332 361 q 335 400 332 378 q 350 429 340 424 q 393 438 360 435 l 572 449 q 613 441 604 450 q 619 406 622 432 q 515 104 594 218 q 288 -10 436 -10 q 114 88 176 -10 q 49 340 51 185 q 85 615 49 478 q 203 846 121 753 q 417 939 285 939 q 553 891 500 938 q 622 758 606 844 l 625 740 q 618 724 625 729 q 590 713 611 718 q 563 707 575 707 q 547 713 553 707 q 538 732 540 718 q 494 825 525 794 q 407 854 463 856 z "},"H":{"ha":696,"x_min":43,"x_max":657,"o":"m 628 515 q 651 513 646 515 q 657 499 657 510 q 654 478 657 497 q 640 446 649 454 q 613 436 632 438 l 578 435 l 535 42 q 526 8 533 15 q 499 -6 518 0 q 465 -11 478 -11 q 449 -5 453 -11 q 449 18 446 1 l 496 431 l 174 414 l 132 42 q 123 8 131 15 q 96 -6 115 0 q 63 -11 75 -11 q 47 -5 50 -11 q 46 18 43 1 l 143 879 q 153 915 146 907 q 176 928 160 924 q 211 933 207 933 q 226 927 224 933 q 228 904 229 921 l 182 496 l 504 513 l 546 879 q 556 915 549 907 q 579 928 563 924 q 614 933 610 933 q 629 927 626 933 q 631 904 632 921 l 588 513 l 628 515 z "},"I":{"ha":272,"x_min":43,"x_max":229,"o":"m 228 904 q 226 927 229 921 q 211 933 224 933 q 176 928 207 933 q 153 915 160 924 q 143 879 146 907 l 46 18 q 47 -5 43 1 q 63 -11 50 -11 q 96 -6 75 -11 q 123 8 115 0 q 132 42 131 15 l 228 904 z "},"J":{"ha":276,"x_min":-271,"x_max":233,"o":"m 147 879 q 157 915 150 907 q 181 928 164 924 q 215 933 211 933 q 231 927 228 933 q 232 904 233 921 l 171 347 q 165 301 168 317 q 123 14 147 128 q 38 -182 99 -100 q -133 -264 -24 -264 q -260 -214 -207 -262 q -271 -194 -271 -204 q -265 -179 -271 -187 q -251 -161 -260 -171 q -222 -142 -233 -142 q -204 -150 -215 -142 q -122 -179 -162 -179 q -12 -112 -53 -179 q 47 44 29 -46 q 81 264 65 135 l 89 333 l 147 879 z "},"K":{"ha":656,"x_min":43,"x_max":644,"o":"m 622 921 q 644 899 644 911 q 632 876 644 890 l 321 532 l 588 49 q 596 26 596 35 q 589 15 596 19 q 564 3 582 10 q 532 -4 540 -4 q 516 1 522 -4 q 503 21 510 7 l 256 469 l 168 369 l 132 42 q 123 8 131 15 q 96 -6 115 0 q 63 -11 75 -11 q 47 -5 50 -11 q 46 18 43 1 l 143 879 q 153 915 146 907 q 176 928 160 924 q 211 933 207 933 q 226 927 224 933 q 228 904 229 921 l 183 500 l 557 913 q 588 932 574 932 q 622 921 596 932 z "},"L":{"ha":558,"x_min":42,"x_max":515,"o":"m 472 82 q 507 80 499 83 q 515 63 515 76 l 513 38 q 497 7 506 13 q 458 0 488 1 l 99 -14 q 60 6 79 -15 q 44 49 42 28 l 135 879 q 144 915 138 907 q 168 928 151 924 q 206 933 201 933 q 222 927 218 933 q 224 904 225 921 l 133 69 l 472 82 z "},"M":{"ha":858,"x_min":43,"x_max":817,"o":"m 763 938 q 793 940 788 940 q 813 934 808 940 q 814 910 817 928 l 717 42 q 708 8 715 15 q 681 -6 700 0 q 647 -11 660 -11 q 631 -5 635 -11 q 631 18 628 1 l 717 764 l 674 688 l 468 368 q 444 338 453 343 q 408 331 435 332 q 376 334 383 329 q 360 363 368 339 l 238 678 l 211 764 l 131 42 q 121 7 128 15 q 93 -6 114 -1 q 60 -11 72 -11 q 46 -5 49 -11 q 44 18 43 1 l 142 878 q 153 910 144 901 q 185 926 163 918 q 213 933 203 933 q 238 911 228 933 l 421 438 l 726 914 q 743 932 736 928 q 763 938 750 936 z "},"N":{"ha":739,"x_min":43,"x_max":696,"o":"m 642 931 q 676 936 672 936 q 692 929 688 936 q 693 907 696 922 l 589 42 q 580 8 588 15 q 554 -6 572 0 q 522 -11 526 -11 q 507 -6 513 -11 q 496 11 501 -1 l 238 678 l 211 764 l 131 42 q 121 7 128 15 q 93 -6 114 -1 q 60 -11 72 -11 q 46 -5 49 -11 q 44 18 43 1 l 142 878 q 153 910 144 901 q 185 926 163 918 q 213 933 203 933 q 238 911 228 933 l 492 253 l 518 157 l 608 882 q 618 918 611 910 q 642 931 625 926 z "},"O":{"ha":726,"x_min":49,"x_max":678,"o":"m 678 585 q 642 309 678 446 q 522 79 606 172 q 304 -14 438 -14 q 116 85 181 -12 q 49 338 51 182 q 85 613 49 476 q 205 843 121 750 q 422 936 289 936 q 610 837 544 935 q 678 585 675 739 m 136 351 q 181 148 136 225 q 315 71 226 71 q 476 156 414 71 q 564 358 538 242 q 590 571 590 475 q 545 774 590 697 q 411 851 500 851 q 251 766 313 851 q 163 564 189 681 q 136 351 136 447 z "},"P":{"ha":639,"x_min":63,"x_max":625,"o":"m 331 938 q 548 865 471 938 q 625 676 625 793 q 531 451 625 539 q 253 361 438 364 l 206 361 l 169 42 q 160 8 168 15 q 133 -6 153 0 q 100 -11 113 -11 q 84 -5 88 -11 q 83 18 81 1 l 176 847 q 100 833 113 836 q 89 832 96 832 q 68 842 74 832 q 63 879 63 853 q 92 914 63 908 q 206 932 154 926 q 331 938 258 938 m 254 446 q 468 510 399 449 q 538 674 538 571 q 484 808 538 758 q 339 857 431 857 q 260 856 283 857 l 214 447 l 254 446 z "},"Q":{"ha":744,"x_min":49,"x_max":710,"o":"m 701 72 q 710 51 710 60 q 686 18 710 38 q 656 3 667 3 q 632 21 644 3 q 557 122 582 94 q 449 22 513 58 q 304 -14 385 -14 q 116 85 181 -12 q 49 338 51 182 q 85 613 49 476 q 205 843 121 750 q 422 936 289 936 q 610 837 544 935 q 678 585 675 739 q 659 385 678 488 q 601 200 640 283 q 701 72 649 150 m 315 71 q 493 183 422 71 q 414 208 454 208 q 292 175 361 208 q 268 168 275 168 q 254 175 260 168 q 243 199 249 182 q 236 226 236 219 q 242 241 236 235 q 263 254 247 247 q 418 293 343 293 q 532 258 474 293 q 576 417 561 332 q 590 571 590 501 q 545 774 590 697 q 411 851 500 851 q 251 766 313 851 q 163 564 189 681 q 136 351 136 447 q 181 148 136 225 q 315 71 226 71 z "},"R":{"ha":694,"x_min":63,"x_max":625,"o":"m 608 46 q 618 21 618 26 q 612 10 618 15 q 589 -4 606 4 q 557 -11 565 -11 q 541 -6 547 -11 q 528 14 535 0 l 328 397 q 253 392 281 392 l 208 392 l 169 42 q 160 8 168 15 q 133 -6 153 0 q 100 -11 113 -11 q 84 -5 88 -11 q 83 18 81 1 l 176 847 q 100 833 113 836 q 89 832 96 832 q 68 842 74 832 q 63 879 63 853 q 92 914 63 908 q 206 932 154 926 q 331 938 258 938 q 548 869 471 938 q 625 690 625 801 q 573 524 625 597 q 417 417 521 451 l 608 46 m 254 474 q 468 535 399 476 q 538 689 538 594 q 484 813 538 768 q 339 857 431 857 q 260 856 285 857 l 218 475 l 254 474 z "},"S":{"ha":574,"x_min":-10,"x_max":528,"o":"m 322 935 q 513 874 429 935 q 528 850 528 863 q 514 819 528 839 q 485 797 497 797 q 464 806 476 797 q 392 840 425 829 q 317 851 360 851 q 212 815 251 850 q 172 715 172 781 q 203 624 172 663 q 300 532 235 586 l 332 506 q 463 372 414 438 q 513 221 513 307 q 445 50 513 114 q 268 -14 378 -14 q 124 21 189 -14 q -1 122 60 56 q -10 142 -10 133 q 13 175 -10 154 q 42 193 31 193 q 61 183 51 193 q 163 99 117 125 q 267 72 210 72 q 382 110 338 72 q 426 219 426 147 q 405 304 426 265 q 356 370 383 343 q 281 438 329 397 l 250 463 q 163 540 196 508 q 108 617 131 572 q 86 719 86 663 q 153 877 86 819 q 322 935 221 935 z "},"T":{"ha":578,"x_min":24,"x_max":633,"o":"m 589 936 q 624 932 614 938 q 633 914 633 926 q 631 894 633 908 q 613 864 624 871 q 572 856 603 857 l 375 853 l 286 42 q 277 8 285 15 q 250 -6 269 0 q 217 -11 229 -11 q 201 -5 204 -11 q 200 18 197 1 l 293 851 l 68 847 q 33 851 43 846 q 24 869 24 857 q 26 889 24 875 q 44 919 33 913 q 85 928 54 926 l 589 936 z "},"U":{"ha":693,"x_min":69,"x_max":656,"o":"m 547 583 q 564 790 557 657 l 569 879 q 576 915 571 907 q 599 928 582 924 q 635 933 629 933 q 651 927 647 933 q 654 904 656 921 q 632 597 644 736 q 587 286 611 404 q 493 77 563 168 q 293 -14 424 -14 q 124 82 175 -12 q 69 325 72 176 q 78 536 69 431 q 106 800 88 642 q 115 879 110 826 q 125 915 118 907 q 149 928 132 924 q 183 933 179 933 q 199 927 196 933 q 200 904 201 921 l 188 788 q 163 544 171 640 q 154 351 154 449 q 189 146 154 221 q 304 71 224 71 q 438 143 389 71 q 506 310 486 215 q 542 536 526 404 l 547 583 z "},"V":{"ha":656,"x_min":78,"x_max":665,"o":"m 629 931 q 607 933 613 933 q 582 913 589 933 q 435 491 525 743 q 313 164 346 239 q 282 103 296 126 q 256 79 268 79 q 229 165 240 79 q 189 519 203 361 q 163 863 175 676 l 160 910 q 155 931 158 925 q 143 936 151 936 q 115 931 140 936 q 84 916 90 922 q 79 888 78 910 q 144 197 115 379 q 181 42 161 94 q 239 -11 201 -11 q 351 74 299 -11 q 417 210 381 121 q 663 893 471 346 q 665 910 665 900 q 658 922 665 919 q 629 931 651 925 z "},"W":{"ha":1056,"x_min":79,"x_max":1065,"o":"m 1029 931 q 1058 922 1051 925 q 1065 908 1065 919 q 1063 893 1065 907 l 1029 781 q 892 333 950 511 q 790 74 835 154 q 683 -11 742 -11 q 623 38 644 -11 q 589 183 601 88 q 540 642 558 408 q 461 418 542 643 q 386 210 396 235 q 321 74 350 121 q 208 -11 268 -11 q 149 43 169 -11 q 117 197 129 97 q 92 550 103 318 q 79 888 81 782 q 84 917 79 911 q 113 931 89 924 q 140 936 138 936 q 153 931 150 936 q 157 910 156 925 q 201 165 165 554 q 225 79 210 79 q 283 164 246 79 q 461 649 325 258 l 506 776 q 516 790 510 786 q 535 794 522 794 q 557 793 547 794 q 594 785 585 790 q 604 764 603 779 q 613 689 607 735 q 645 369 626 540 q 676 124 664 199 q 697 79 683 79 q 719 97 708 79 q 738 136 729 115 q 750 164 747 157 q 964 850 800 275 l 982 913 q 1007 933 988 933 q 1029 931 1013 933 z "},"X":{"ha":692,"x_min":-4,"x_max":704,"o":"m 685 922 q 699 909 693 915 q 704 897 704 903 q 692 874 704 890 q 530 675 611 776 q 383 483 449 574 l 596 50 q 601 32 601 36 q 572 3 601 18 q 546 -6 556 -6 q 522 15 531 -6 l 328 410 q 81 13 213 242 q 50 -8 68 -8 q 25 -3 38 -8 q -4 24 -4 8 q 3 46 -4 35 q 288 492 146 294 l 93 886 q 89 903 89 894 q 119 933 89 919 q 144 940 138 940 q 167 924 158 940 l 343 565 q 550 833 413 661 l 621 921 q 650 939 638 939 q 685 922 664 939 z "},"Y":{"ha":628,"x_min":79,"x_max":624,"o":"m 586 931 q 602 926 590 929 q 619 920 614 924 q 624 910 624 917 q 619 893 624 903 q 423 443 538 703 q 228 4 308 183 q 199 -15 218 -15 q 178 -11 190 -15 q 149 19 149 3 q 153 33 149 25 l 290 344 l 82 885 q 79 899 79 896 q 111 926 79 917 q 136 931 128 931 q 160 913 154 931 l 335 444 q 539 913 497 807 q 550 928 544 924 q 565 933 556 933 q 586 931 569 933 z "},"Z":{"ha":601,"x_min":0,"x_max":590,"o":"m 588 861 q 577 909 590 886 q 544 931 564 932 l 131 919 q 103 913 111 919 q 89 882 94 906 q 86 863 86 865 q 94 844 86 849 q 119 839 101 839 l 485 850 l 3 54 q 19 12 0 33 q 57 -8 38 -10 l 478 4 q 519 12 508 6 q 536 42 529 18 q 539 61 539 56 q 529 81 539 75 q 496 85 519 86 l 110 74 l 588 861 z "},"[":{"ha":390,"x_min":88,"x_max":503,"o":"m 175 -185 l 324 -179 q 343 -182 338 -178 q 349 -197 349 -186 l 346 -219 q 329 -250 340 -243 q 288 -258 318 -257 l 144 -264 q 106 -244 125 -265 q 90 -201 88 -222 l 244 1099 q 260 1144 249 1131 q 301 1158 271 1157 l 478 1163 q 497 1160 492 1164 q 503 1146 503 1157 l 500 1122 q 484 1093 494 1099 q 442 1086 474 1088 l 324 1083 l 175 -185 z "},"\\":{"ha":482,"x_min":-29,"x_max":421,"o":"m 342 -182 q 361 -199 347 -199 q 388 -194 371 -199 q 415 -181 408 -189 q 418 -160 421 -172 l 50 1074 q 31 1090 44 1090 q 4 1086 21 1090 q -23 1072 -17 1081 q -26 1051 -29 1064 l 342 -182 z "},"]":{"ha":333,"x_min":-107,"x_max":308,"o":"m 221 1092 l 72 1086 q 53 1089 58 1085 q 47 1104 47 1093 q 50 1125 47 1108 q 67 1156 56 1149 q 108 1164 78 1163 l 251 1169 q 290 1149 271 1171 q 306 1107 308 1128 l 151 -193 q 136 -238 147 -225 q 94 -253 125 -251 l -82 -257 q -101 -255 -96 -258 q -107 -240 -107 -251 l -104 -217 q -90 -186 -99 -192 q -51 -179 -82 -181 l 72 -176 l 221 1092 z "},"^":{"ha":572,"x_min":42,"x_max":560,"o":"m 51 490 q 42 471 42 479 q 60 446 42 460 q 90 429 76 429 q 107 439 99 429 l 313 668 l 493 439 q 510 429 501 429 q 540 446 524 429 q 560 474 560 463 q 551 492 560 482 l 340 761 q 317 774 331 774 q 293 761 304 774 l 51 490 z "},"_":{"ha":610,"x_min":-21,"x_max":593,"o":"m 8 -133 q -14 -128 -7 -133 q -21 -112 -21 -124 q -17 -89 -21 -104 q 1 -60 -10 -67 q 43 -54 13 -54 l 564 -51 q 587 -56 581 -53 q 593 -71 593 -60 q 589 -96 593 -82 q 570 -122 581 -117 q 529 -129 560 -128 l 8 -133 z "},"`":{"ha":278,"x_min":6,"x_max":278,"o":"m 271 729 q 254 703 260 710 q 231 699 249 697 q 113 729 171 701 q 15 796 54 757 q 6 814 6 806 q 24 850 6 824 q 47 872 38 872 q 64 863 54 872 q 148 800 103 822 q 264 764 193 778 q 278 751 278 761 q 271 729 278 742 z "},"a":{"ha":558,"x_min":40,"x_max":538,"o":"m 497 115 q 524 95 510 115 q 538 58 538 75 q 517 31 538 47 q 469 3 497 15 q 414 -10 440 -10 q 363 22 379 -10 q 347 93 347 53 q 276 14 314 40 q 186 -12 238 -12 q 80 53 119 -11 q 40 229 40 117 q 72 424 42 333 q 158 570 101 515 q 293 625 214 625 q 401 581 347 625 l 401 585 q 410 620 404 613 q 435 632 417 628 q 471 638 468 638 q 489 631 485 638 q 490 607 493 624 q 422 56 422 156 q 472 97 443 68 q 497 115 490 115 m 369 333 q 392 504 389 467 q 348 535 369 525 q 299 546 326 546 q 196 492 235 546 q 141 365 157 438 q 124 232 125 293 q 206 69 124 69 q 309 142 264 69 q 369 333 354 215 z "},"b":{"ha":525,"x_min":42,"x_max":485,"o":"m 338 626 q 446 569 407 626 q 485 415 485 511 q 456 203 485 300 q 371 47 428 106 q 235 -11 314 -11 q 118 42 178 -11 q 110 6 117 15 q 90 -6 104 -3 q 58 -10 69 -10 q 44 -6 47 -10 q 42 6 42 -3 q 100 529 42 40 q 151 935 121 715 q 160 969 154 961 q 183 982 167 978 q 217 988 204 988 q 233 981 229 988 q 235 958 236 975 l 229 915 q 178 532 186 600 q 248 603 211 579 q 338 626 285 626 m 228 68 q 332 126 293 68 q 387 263 371 185 q 403 410 403 342 q 384 509 403 474 q 328 544 365 544 q 214 471 260 543 q 153 289 168 399 l 132 118 q 228 68 188 68 z "},"c":{"ha":447,"x_min":40,"x_max":432,"o":"m 401 101 q 328 17 375 49 q 218 -14 282 -14 q 85 49 129 -12 q 40 211 42 111 q 104 507 40 388 q 293 626 168 626 q 372 601 338 625 q 426 533 407 578 q 432 511 432 522 q 413 489 432 497 l 392 481 q 375 476 382 476 q 353 496 364 476 q 325 533 340 522 q 286 544 310 544 q 187 489 224 544 q 136 358 150 433 q 122 219 122 283 q 226 65 122 65 q 288 86 261 65 q 331 138 314 107 q 356 157 342 157 q 372 153 364 157 l 389 143 q 407 119 407 131 q 401 101 407 111 z "},"d":{"ha":522,"x_min":40,"x_max":538,"o":"m 479 982 q 517 988 501 988 q 533 981 529 988 q 536 958 538 975 q 468 474 489 631 q 439 218 447 318 q 428 26 428 92 q 422 3 428 7 q 394 -7 415 -1 q 374 -10 378 -10 q 351 1 357 -10 q 347 42 346 13 q 351 106 347 67 q 283 18 325 50 q 186 -14 240 -14 q 80 51 119 -12 q 40 228 40 115 q 71 423 42 332 q 156 569 100 514 q 292 624 213 624 q 404 589 349 624 q 447 935 429 781 q 456 969 450 961 q 479 982 463 978 m 394 513 q 347 537 368 529 q 299 544 325 544 q 196 490 235 544 q 141 364 157 436 q 124 231 125 292 q 211 68 124 68 q 314 147 268 68 q 372 336 360 226 l 394 513 z "},"e":{"ha":458,"x_min":40,"x_max":442,"o":"m 388 143 q 406 119 406 131 q 400 101 406 111 q 324 17 369 47 q 213 -14 279 -14 q 84 49 126 -12 q 40 211 42 111 q 69 418 40 324 q 157 569 99 513 q 300 626 215 626 q 408 583 375 626 q 442 482 442 539 q 357 320 442 382 q 122 244 272 258 l 122 219 q 146 107 122 149 q 219 65 169 65 q 281 83 258 65 q 328 138 304 101 q 353 157 339 157 q 369 153 361 157 l 388 143 m 293 546 q 188 483 226 546 q 132 328 149 419 q 357 472 357 350 q 293 546 357 546 z "},"f":{"ha":326,"x_min":35,"x_max":486,"o":"m 479 911 q 486 896 486 901 q 469 868 486 888 q 440 849 451 849 q 424 857 432 849 q 410 872 421 860 q 383 891 399 883 q 350 900 368 899 q 276 849 301 900 q 231 685 250 797 l 222 621 l 311 621 q 345 616 336 621 q 354 599 354 611 q 351 578 354 594 q 335 552 346 558 q 293 546 324 546 l 213 546 l 151 42 q 142 6 149 14 q 118 -6 136 -1 q 83 -11 85 -11 q 68 -5 71 -11 q 68 19 65 1 q 97 256 78 100 q 133 546 115 413 l 79 546 q 44 550 54 546 q 35 565 35 554 q 39 583 35 574 q 56 614 46 607 q 97 621 67 621 l 143 621 l 153 690 q 192 849 169 788 q 256 944 215 910 q 361 978 296 978 q 429 957 399 978 q 479 911 460 936 z "},"g":{"ha":525,"x_min":1,"x_max":490,"o":"m 432 632 q 468 638 465 638 q 486 631 482 638 q 488 607 490 624 q 481 556 488 601 q 439 219 456 392 q 402 -74 425 29 q 331 -227 379 -176 q 192 -278 282 -278 q 103 -259 144 -276 q 19 -207 63 -242 q 1 -181 1 -193 q 18 -147 1 -168 q 44 -128 33 -128 q 68 -140 53 -128 q 131 -185 104 -172 q 200 -197 158 -197 q 281 -169 251 -197 q 325 -81 310 -140 q 351 89 340 -21 q 278 13 315 38 q 188 -12 240 -12 q 81 52 121 -11 q 40 228 40 115 q 71 423 42 332 q 156 569 100 514 q 292 624 213 624 q 399 582 346 624 l 399 585 q 408 620 401 613 q 432 632 414 628 m 211 68 q 309 143 267 69 q 367 333 351 217 q 389 506 386 471 q 347 535 368 525 q 299 544 325 544 q 196 490 235 544 q 141 364 157 436 q 124 231 125 292 q 211 68 124 68 z "},"h":{"ha":544,"x_min":40,"x_max":482,"o":"m 43 19 q 63 174 44 29 q 106 521 82 318 q 157 935 131 746 q 166 969 160 961 q 189 982 172 978 q 222 988 210 988 q 238 981 235 988 q 240 958 242 975 q 182 521 194 624 q 354 626 253 626 q 445 589 408 626 q 482 471 482 551 q 476 344 482 407 q 456 167 469 282 l 440 42 q 430 8 438 15 q 404 -6 422 0 q 371 -11 376 -11 q 354 -4 358 -11 q 353 19 350 3 l 357 53 q 397 443 397 353 q 383 522 397 497 q 335 546 368 546 q 261 509 299 546 q 196 413 224 472 q 160 289 168 353 l 129 42 q 119 8 126 15 q 93 -6 111 0 q 61 -11 65 -11 q 44 -4 49 -11 q 43 19 40 3 z "},"i":{"ha":225,"x_min":47,"x_max":226,"o":"m 96 -7 q 123 3 117 -1 q 131 26 129 7 q 143 218 136 142 q 190 600 158 396 q 189 622 193 615 q 174 629 185 629 q 139 624 160 629 q 116 611 122 619 q 107 576 110 603 q 47 29 47 124 q 52 -1 47 7 q 72 -10 57 -10 q 96 -7 76 -10 m 185 851 q 215 839 204 851 q 226 804 226 826 q 207 738 226 764 q 158 711 188 711 q 128 724 139 711 q 117 761 117 738 q 136 826 117 800 q 185 851 156 851 z "},"j":{"ha":226,"x_min":-231,"x_max":221,"o":"m 103 576 q 113 611 106 603 q 138 624 119 619 q 168 628 157 628 q 185 621 181 628 q 186 597 189 614 l 178 514 q 150 268 160 342 l 138 165 q 97 -85 117 0 q 31 -224 78 -171 q -103 -275 -15 -276 q -217 -228 -169 -268 q -231 -208 -231 -218 q -223 -191 -231 -201 q -214 -178 -215 -181 q -187 -158 -199 -158 q -168 -167 -179 -158 q -89 -196 -133 -192 q -11 -155 -39 -199 q 31 -37 17 -111 q 64 186 44 36 l 71 240 q 103 576 92 399 m 179 851 q 210 839 199 851 q 221 804 221 826 q 201 738 221 764 q 153 711 182 711 q 122 724 133 711 q 111 761 111 738 q 131 826 111 800 q 179 851 150 851 z "},"k":{"ha":524,"x_min":54,"x_max":503,"o":"m 469 97 q 492 77 482 97 q 503 42 503 57 q 467 6 503 25 q 389 -12 431 -12 q 305 40 339 -12 q 228 206 271 93 q 215 236 221 222 q 204 263 210 250 l 201 274 q 221 293 201 288 q 353 367 303 318 q 403 474 403 417 q 385 526 403 507 q 329 544 367 544 q 229 497 272 543 q 164 371 186 450 l 150 218 q 138 26 143 142 q 130 3 136 7 q 103 -7 124 -1 q 79 -10 83 -10 q 59 -1 64 -10 q 54 29 54 7 q 88 381 54 81 q 156 935 121 682 q 165 969 158 961 q 188 982 171 978 q 222 988 208 988 q 238 981 233 988 q 239 958 242 974 q 183 542 199 674 q 258 604 215 582 q 349 626 300 626 q 448 587 410 626 q 486 481 486 547 q 431 335 486 400 q 299 242 375 271 q 351 117 326 167 q 403 68 376 68 q 444 83 424 68 q 469 97 464 97 z "},"l":{"ha":242,"x_min":53,"x_max":240,"o":"m 154 935 q 86 381 119 682 q 53 29 53 81 q 58 -1 53 7 q 78 -10 63 -10 q 101 -7 82 -10 q 128 3 122 -1 q 136 26 135 7 q 149 218 142 142 q 178 503 161 351 q 238 958 196 656 q 236 981 240 974 q 221 988 232 988 q 186 982 207 988 q 163 969 169 978 q 154 935 157 961 z "},"m":{"ha":818,"x_min":39,"x_max":756,"o":"m 453 286 q 442 185 446 231 q 424 40 429 82 q 413 6 421 15 q 388 -7 404 -3 q 357 -11 367 -11 q 340 -4 344 -11 q 339 19 336 3 q 368 242 351 104 q 385 440 385 379 q 369 521 385 494 q 321 547 354 547 q 253 510 289 547 q 191 412 218 472 q 156 289 164 351 l 125 42 q 115 6 121 14 q 90 -6 108 -1 q 57 -11 63 -11 q 42 -5 46 -11 q 42 18 39 1 q 83 350 68 214 q 99 578 99 486 q 105 613 99 606 q 132 625 111 621 q 168 631 165 631 q 185 624 181 631 q 188 600 189 618 l 182 522 q 258 599 217 572 q 342 626 300 626 q 460 517 433 626 q 535 598 492 569 q 628 626 579 626 q 719 589 682 626 q 756 471 756 551 q 749 344 756 407 q 729 167 743 282 l 714 42 q 703 8 711 15 q 678 -6 696 0 q 644 -11 650 -11 q 628 -4 632 -11 q 626 19 624 3 l 631 53 q 671 443 671 353 q 656 522 671 497 q 608 546 642 546 q 510 466 554 546 q 453 286 467 386 z "},"n":{"ha":540,"x_min":39,"x_max":478,"o":"m 42 18 q 83 350 68 214 q 99 578 99 486 q 105 613 99 606 q 132 625 111 621 q 168 631 165 631 q 185 624 181 631 q 188 600 189 618 l 182 522 q 350 626 254 626 q 441 589 404 626 q 478 471 478 551 q 472 344 478 407 q 451 167 465 282 l 436 42 q 426 8 433 15 q 400 -6 418 0 q 367 -11 372 -11 q 350 -4 354 -11 q 349 19 346 3 l 353 53 q 393 443 393 353 q 378 522 393 497 q 331 546 364 546 q 257 509 294 546 q 192 413 219 472 q 156 289 164 353 l 125 42 q 115 6 121 14 q 90 -6 108 -1 q 57 -11 63 -11 q 42 -5 46 -11 q 42 18 39 1 z "},"o":{"ha":499,"x_min":40,"x_max":458,"o":"m 300 626 q 415 563 372 625 q 458 413 457 501 q 429 198 458 294 q 342 44 400 101 q 199 -14 283 -14 q 84 49 126 -12 q 40 200 42 111 q 69 415 40 318 q 157 569 99 511 q 300 626 215 626 m 206 65 q 306 122 268 65 q 360 255 344 179 q 376 393 376 331 q 356 503 376 463 q 293 544 335 544 q 192 488 231 544 q 138 357 154 432 q 122 219 122 282 q 143 108 122 150 q 206 65 164 65 z "},"p":{"ha":526,"x_min":1,"x_max":488,"o":"m 342 626 q 449 570 410 626 q 488 415 488 514 q 458 203 488 301 q 372 47 429 106 q 235 -11 314 -11 q 124 24 176 -11 l 111 -74 q 92 -225 97 -174 q 83 -260 89 -251 q 60 -272 76 -268 q 22 -278 38 -278 q 6 -272 10 -278 q 3 -249 1 -265 q 28 -69 3 -246 q 80 306 60 142 q 100 578 100 471 q 106 613 100 606 q 133 625 113 621 q 169 631 167 631 q 186 624 182 631 q 189 600 190 618 l 183 522 q 254 601 218 575 q 342 626 290 626 m 228 68 q 333 126 293 68 q 389 264 372 185 q 406 410 406 343 q 386 507 406 469 q 329 544 367 544 q 254 502 292 544 q 190 397 217 460 q 156 276 163 335 l 133 100 q 181 76 160 83 q 228 68 203 68 z "},"q":{"ha":529,"x_min":40,"x_max":494,"o":"m 439 632 q 474 638 469 638 q 490 631 486 638 q 492 607 494 624 q 424 104 444 278 q 388 -233 403 -69 q 378 -257 386 -250 q 353 -268 371 -264 q 322 -272 335 -272 q 306 -266 311 -272 q 303 -244 301 -260 l 338 33 l 347 82 q 276 10 313 32 q 188 -12 240 -12 q 81 52 121 -11 q 40 228 40 115 q 71 423 42 332 q 156 569 100 514 q 292 624 213 624 q 404 576 347 624 l 406 585 q 415 620 408 613 q 439 632 421 628 m 372 325 q 396 500 382 389 q 349 533 371 522 q 299 544 328 544 q 196 490 235 544 q 141 364 157 436 q 124 231 125 292 q 211 68 124 68 q 313 140 268 69 q 372 325 357 211 z "},"r":{"ha":368,"x_min":39,"x_max":382,"o":"m 125 42 q 115 6 121 14 q 90 -6 108 -1 q 57 -11 63 -11 q 42 -5 46 -11 q 42 18 39 1 q 83 350 68 214 q 99 578 99 486 q 105 613 99 606 q 132 625 111 621 q 168 631 165 631 q 185 624 181 631 q 188 600 189 618 l 182 522 q 350 628 254 628 q 375 623 368 628 q 382 601 382 618 q 381 581 382 589 q 370 548 378 556 q 340 538 363 540 q 219 472 268 529 q 156 289 171 414 l 125 42 z "},"s":{"ha":439,"x_min":10,"x_max":403,"o":"m 324 510 q 239 553 292 553 q 181 535 204 553 q 158 481 158 518 q 180 420 158 447 q 254 354 201 393 q 356 261 324 301 q 388 163 388 221 q 333 36 388 83 q 200 -11 279 -11 q 94 19 143 -11 q 14 100 46 50 q 10 115 10 108 q 36 147 10 131 q 63 160 53 160 q 82 144 72 160 q 135 90 104 111 q 203 69 167 69 q 277 96 249 69 q 306 160 306 122 q 281 223 306 196 q 210 286 257 250 l 182 308 q 103 388 129 350 q 76 482 76 426 q 124 590 76 550 q 242 631 171 631 q 399 543 351 631 q 403 529 403 535 q 396 515 403 521 q 371 500 389 510 q 347 493 354 493 q 324 510 335 493 z "},"t":{"ha":364,"x_min":14,"x_max":356,"o":"m 322 615 q 349 611 342 615 q 356 597 356 607 q 353 578 356 586 q 335 547 346 554 q 294 540 325 540 l 206 540 q 163 150 163 256 q 172 88 163 110 q 207 65 182 65 q 271 93 238 65 q 292 104 283 104 q 318 85 303 104 q 330 69 325 76 q 335 56 335 61 q 319 33 335 47 q 197 -14 261 -14 q 108 29 133 -12 q 81 142 82 71 q 124 540 81 263 l 58 540 q 24 544 33 540 q 14 561 14 549 q 18 583 14 569 q 34 610 24 606 q 76 615 44 615 l 136 615 l 175 842 q 184 877 178 869 q 208 889 190 885 q 243 894 242 894 q 258 888 256 894 q 258 864 261 882 q 217 615 238 742 l 322 615 z "},"u":{"ha":526,"x_min":56,"x_max":494,"o":"m 361 106 q 290 18 333 50 q 196 -14 247 -14 q 94 26 133 -14 q 56 143 56 65 q 62 269 56 207 q 82 447 68 332 l 97 572 q 108 606 100 599 q 133 619 115 614 q 164 625 161 625 q 181 618 176 625 q 182 594 185 611 l 178 563 q 156 388 175 542 q 139 165 138 235 q 208 68 139 68 q 319 137 275 68 q 378 325 364 206 l 408 572 q 417 606 410 599 q 443 619 425 614 q 476 625 471 625 q 491 619 488 625 q 492 596 494 613 q 481 494 492 581 q 449 219 461 350 q 438 18 443 151 q 404 -7 436 -1 q 383 -10 388 -10 q 361 1 367 -10 q 357 42 356 13 q 361 106 357 67 z "},"v":{"ha":485,"x_min":51,"x_max":490,"o":"m 432 618 q 407 597 411 618 q 342 370 382 489 q 263 164 301 251 q 232 103 246 126 q 206 79 218 79 q 190 101 196 79 q 175 165 183 122 q 150 366 160 244 q 136 597 140 488 q 133 617 136 611 q 121 624 129 624 q 92 618 117 624 q 57 604 63 610 q 53 575 51 599 q 65 395 56 500 q 89 197 75 290 q 127 44 104 99 q 189 -11 150 -11 q 304 75 250 -11 q 369 210 335 124 q 421 355 399 283 q 488 578 443 426 q 490 593 490 592 q 483 607 490 604 q 454 615 476 610 l 432 618 z "},"w":{"ha":750,"x_min":56,"x_max":749,"o":"m 714 615 q 741 606 733 611 q 749 590 749 601 q 747 578 749 583 l 736 525 q 696 342 711 406 q 658 215 681 279 q 597 76 629 128 q 483 -11 542 -11 q 426 42 446 -11 q 393 197 407 96 q 381 336 389 226 q 330 179 351 238 q 279 75 308 121 q 164 -11 225 -11 q 105 44 125 -11 q 72 197 85 99 q 60 349 63 271 q 56 539 57 428 l 56 575 q 62 603 56 594 q 94 618 68 611 q 124 624 119 624 q 135 617 132 624 q 139 597 139 611 l 139 544 q 149 232 139 385 q 181 79 160 79 q 214 110 193 79 q 257 192 235 142 q 344 440 292 275 l 357 476 q 372 506 364 497 q 400 519 379 514 q 419 522 408 522 q 433 517 431 522 q 436 501 436 511 q 438 483 436 490 q 451 303 446 367 q 469 165 457 239 q 500 79 482 79 q 528 105 513 79 q 558 164 544 131 q 603 308 583 226 q 650 515 624 389 l 667 597 q 692 618 671 618 l 714 615 z "},"x":{"ha":483,"x_min":-4,"x_max":493,"o":"m 471 603 q 483 592 474 600 q 493 576 493 583 q 478 554 493 569 q 278 340 368 456 l 424 47 q 429 29 429 33 q 403 3 429 17 q 376 -6 386 -6 q 353 15 361 -6 l 224 274 q 75 13 135 144 q 50 -11 64 -11 q 36 -8 44 -11 q 22 -3 28 -4 q 2 8 8 3 q -4 22 -4 14 q 3 46 -4 29 q 188 347 68 183 l 75 572 q 69 589 69 586 q 76 603 69 597 q 99 617 82 610 q 124 624 117 624 q 146 607 138 624 l 243 411 q 413 601 326 519 q 442 618 429 618 q 458 612 449 618 q 471 603 467 606 z "},"y":{"ha":528,"x_min":7,"x_max":493,"o":"m 360 106 q 333 -68 349 -4 q 287 -165 317 -132 q 206 -197 257 -197 q 137 -185 164 -197 q 74 -140 110 -172 q 50 -128 58 -128 q 24 -147 39 -128 q 7 -181 7 -168 q 25 -207 7 -193 q 109 -259 68 -242 q 197 -278 150 -276 q 337 -227 288 -278 q 409 -74 386 -176 q 447 219 432 29 q 481 514 456 324 q 490 596 490 592 q 490 619 493 613 q 475 625 486 625 q 442 619 469 625 q 416 606 424 614 q 407 572 408 599 l 376 325 q 318 137 363 206 q 207 68 274 68 q 138 171 138 68 q 154 375 138 232 q 181 594 171 518 q 179 618 183 611 q 163 625 175 625 q 132 619 160 625 q 106 606 114 614 q 96 572 99 599 l 81 447 q 60 269 67 332 q 54 143 54 207 q 93 26 54 65 q 194 -14 132 -14 q 289 18 246 -14 q 360 106 332 50 z "},"z":{"ha":458,"x_min":0,"x_max":444,"o":"m 401 621 q 435 616 425 621 q 444 600 444 611 l 442 583 q 427 551 439 569 q 413 526 415 532 q 265 300 364 450 q 114 75 167 150 l 353 75 q 388 71 378 75 q 397 56 397 67 q 393 38 397 49 q 376 7 386 14 q 335 0 365 0 l 43 0 q 9 5 18 0 q 0 22 0 10 q 3 43 0 26 q 35 100 10 67 q 189 326 93 185 q 335 546 285 468 l 113 546 q 78 551 88 546 q 69 568 69 556 q 72 589 69 572 q 89 615 78 608 q 131 621 100 621 l 401 621 z "},"{":{"ha":390,"x_min":25,"x_max":460,"o":"m 307 931 q 269 686 297 783 q 213 567 253 628 q 119 457 172 506 q 197 329 171 394 q 222 182 222 264 q 217 22 222 117 q 214 -69 214 -50 q 228 -130 214 -110 q 276 -150 243 -150 q 296 -153 290 -149 q 301 -168 301 -157 l 299 -190 q 284 -217 293 -210 q 254 -225 275 -224 q 166 -187 194 -225 q 138 -83 138 -149 q 142 32 138 -31 q 144 100 142 54 q 146 181 146 146 q 118 313 146 254 q 33 431 90 372 q 25 460 25 439 q 33 492 25 483 q 155 617 114 546 q 209 756 196 689 q 228 913 222 822 l 231 946 q 290 1089 238 1046 q 408 1132 342 1132 q 449 1127 439 1132 q 460 1108 460 1122 q 457 1086 460 1103 q 445 1056 451 1063 q 419 1050 439 1049 l 400 1051 q 335 1025 360 1051 q 307 931 311 999 z "},"|":{"ha":276,"x_min":18,"x_max":246,"o":"m 244 1039 q 243 1062 246 1056 q 228 1068 240 1068 q 193 1063 224 1068 q 169 1050 176 1058 q 160 1014 163 1042 l 21 -165 q 22 -188 18 -182 q 38 -194 25 -194 q 71 -189 50 -194 q 98 -176 90 -183 q 107 -142 106 -168 l 244 1039 z "},"}":{"ha":403,"x_min":-69,"x_max":365,"o":"m 83 -24 q 121 221 93 124 q 178 340 138 279 q 271 450 218 401 q 194 578 219 513 q 168 725 168 643 q 174 885 168 790 q 176 976 176 957 q 162 1037 176 1017 q 114 1057 147 1057 q 94 1060 100 1056 q 89 1075 89 1064 l 92 1097 q 106 1124 97 1117 q 136 1132 115 1131 q 224 1094 196 1132 q 253 990 253 1056 q 249 875 253 938 q 247 807 249 853 q 244 726 244 761 q 272 594 244 653 q 357 476 300 535 q 365 447 365 468 q 357 415 365 424 q 235 290 276 361 q 181 151 194 218 q 163 -6 168 85 l 160 -39 q 101 -182 153 -139 q -18 -225 49 -225 q -59 -220 -49 -225 q -69 -201 -69 -215 q -67 -179 -69 -196 q -55 -149 -61 -156 q -29 -143 -49 -142 l -10 -144 q 55 -118 31 -144 q 83 -24 79 -92 z "},"~":{"ha":535,"x_min":35,"x_max":507,"o":"m 174 364 q 140 355 154 364 q 107 326 126 346 q 86 314 94 314 q 58 331 78 314 q 35 361 35 350 q 46 382 35 368 q 108 431 76 417 q 175 446 139 446 q 250 421 213 446 q 272 407 256 418 q 306 390 289 396 q 340 383 324 383 q 447 453 389 383 q 464 465 458 465 q 490 440 474 465 q 499 426 492 438 q 507 407 507 414 q 494 383 507 399 q 335 301 419 301 q 287 310 308 301 q 238 338 265 319 q 202 357 217 350 q 174 364 188 364 z "}," ":{"ha":278,"x_min":0,"x_max":0,"o":""},"¡":{"ha":301,"x_min":35,"x_max":218,"o":"m 133 -178 q 176 193 165 82 q 188 353 188 304 q 184 383 188 375 q 169 392 181 392 l 153 389 q 126 379 132 383 q 118 356 119 375 q 94 144 110 249 q 64 -43 78 39 q 46 -149 50 -125 q 36 -201 43 -162 l 35 -212 q 40 -228 35 -224 q 56 -231 44 -232 q 71 -229 65 -231 l 101 -225 q 124 -212 118 -221 q 133 -178 131 -204 m 149 481 q 199 508 179 481 q 218 575 218 536 q 205 619 218 603 q 169 635 192 635 q 119 607 139 635 q 100 540 100 579 q 113 497 100 513 q 149 481 126 481 z "},"¢":{"ha":531,"x_min":63,"x_max":482,"o":"m 476 617 q 482 594 482 606 q 463 572 482 581 l 442 564 q 425 560 432 560 q 403 579 414 560 q 366 617 388 606 q 314 628 344 628 q 211 585 249 628 q 159 487 174 543 q 144 381 144 431 q 174 250 144 296 q 263 204 204 204 q 381 276 342 204 q 406 296 392 296 q 422 292 414 296 l 439 282 q 457 258 457 269 q 451 240 457 250 q 386 166 429 196 q 289 128 343 136 q 283 35 285 76 q 281 -18 281 -7 q 273 -42 279 -37 q 246 -51 267 -46 q 222 -54 226 -54 q 202 -46 207 -54 q 197 -15 197 -37 q 210 132 197 17 q 104 213 144 150 q 63 365 64 276 q 114 587 63 497 q 261 701 165 676 l 274 836 q 282 872 275 863 q 304 885 289 881 q 339 892 329 892 q 354 885 350 892 q 356 863 358 878 l 340 710 q 422 681 385 706 q 476 617 458 657 z "},"£":{"ha":579,"x_min":3,"x_max":579,"o":"m 397 847 q 535 785 490 847 q 579 629 579 722 q 575 572 579 601 q 565 542 572 550 q 532 531 557 533 q 513 529 525 529 q 493 536 499 529 q 492 560 488 543 q 500 629 500 597 q 472 727 500 690 q 392 764 444 764 q 265 673 307 764 q 201 429 224 582 l 389 436 q 412 433 406 436 q 418 418 418 429 q 414 392 418 408 q 396 365 406 369 q 354 358 386 360 l 188 351 l 157 69 l 443 81 q 478 78 469 82 q 486 61 486 75 l 483 36 q 467 6 476 11 q 429 -1 458 0 l 125 -14 q 88 6 106 -15 q 71 49 69 26 l 106 347 l 32 344 q 10 349 17 344 q 3 365 3 354 q 7 389 3 374 q 25 417 15 413 q 67 424 35 422 l 115 425 q 207 734 146 621 q 397 847 268 847 z "},"¤":{"ha":657,"x_min":39,"x_max":651,"o":"m 644 697 q 651 676 651 683 q 631 640 651 663 l 538 539 q 546 468 546 506 q 497 247 546 336 l 568 158 q 583 137 578 146 q 589 119 589 128 q 575 86 589 106 q 550 65 558 65 q 528 81 539 65 l 447 182 q 304 125 386 125 q 189 169 233 125 l 99 71 q 83 63 90 63 q 51 88 69 63 q 39 114 39 106 q 60 147 39 128 l 146 239 q 128 339 128 283 q 165 532 128 451 l 89 628 q 68 671 68 656 q 78 696 68 685 q 96 715 88 708 q 110 722 104 722 q 131 706 118 722 l 210 606 q 372 682 275 682 q 501 618 454 682 l 593 717 q 614 729 606 729 q 628 722 621 729 q 644 697 635 714 m 311 204 q 401 247 367 204 q 451 347 436 290 q 467 449 467 404 q 368 600 467 600 q 278 558 313 600 q 228 459 243 515 q 213 358 213 403 q 236 246 213 288 q 311 204 260 204 z "},"¥":{"ha":558,"x_min":63,"x_max":576,"o":"m 538 842 q 554 838 542 840 q 572 831 567 835 q 576 821 576 828 q 571 804 576 814 q 483 629 539 736 q 369 400 389 440 l 474 403 q 496 399 489 403 q 503 385 503 394 q 499 361 503 376 q 480 333 490 339 q 439 326 469 328 l 333 324 l 324 233 l 461 236 q 483 232 476 236 q 490 218 490 228 q 486 194 490 210 q 467 167 478 172 q 426 160 457 161 l 315 157 l 303 42 q 294 7 301 15 q 269 -6 288 -1 q 238 -11 251 -11 q 223 -5 226 -11 q 222 18 219 1 l 238 156 l 92 153 q 69 157 76 153 q 63 171 63 161 q 67 194 63 181 q 85 222 75 217 q 126 229 96 228 l 247 232 l 257 322 l 104 319 q 82 324 89 319 q 75 338 75 328 q 79 361 75 347 q 98 389 88 383 q 139 396 108 394 l 239 399 l 88 800 q 85 814 85 811 q 117 842 85 832 q 142 846 133 846 q 157 842 151 846 q 165 828 163 838 l 304 417 q 478 797 396 611 q 485 813 482 806 q 490 824 488 819 q 501 840 496 835 q 517 844 507 844 q 538 842 521 844 z "},"¦":{"ha":275,"x_min":18,"x_max":246,"o":"m 244 1039 q 243 1062 246 1056 q 228 1068 240 1068 q 193 1063 224 1068 q 169 1050 176 1058 q 160 1014 163 1042 l 101 528 q 102 505 99 511 q 118 499 106 499 q 151 504 131 499 q 178 517 171 510 q 188 551 186 525 l 244 1039 m 163 346 q 161 369 164 363 q 146 375 158 375 q 111 369 142 375 q 88 357 94 365 q 78 321 81 349 l 21 -165 q 22 -188 18 -182 q 38 -194 25 -194 q 71 -189 50 -194 q 98 -176 90 -183 q 107 -142 106 -168 l 163 346 z "},"§":{"ha":461,"x_min":-6,"x_max":443,"o":"m 279 821 q 185 749 185 821 q 206 688 185 715 q 281 622 228 661 q 382 529 350 569 q 414 431 414 489 q 392 347 414 383 q 333 288 371 311 q 372 181 372 242 q 318 54 372 101 q 185 7 264 7 q 79 38 128 7 q -1 118 31 68 q -6 133 -6 126 q 21 165 -6 149 q 47 178 38 178 q 67 163 57 178 q 120 108 89 129 q 188 88 151 88 q 262 114 233 88 q 290 178 290 140 q 266 241 290 214 q 194 304 242 268 l 167 326 q 88 406 114 368 q 61 500 61 444 q 85 581 61 547 q 149 631 108 614 q 103 750 103 683 q 152 859 103 819 q 282 899 201 899 q 439 811 385 899 q 443 799 443 806 q 435 783 443 790 q 411 768 428 776 q 388 761 394 761 q 364 778 375 761 q 279 821 332 821 m 332 428 q 308 491 332 464 q 236 554 283 518 l 208 576 l 204 579 q 160 551 176 571 q 143 499 143 531 q 165 438 143 465 q 239 372 186 411 l 282 339 q 319 377 306 353 q 332 428 332 401 z "},"¨":{"ha":297,"x_min":0,"x_max":297,"o":"m 63 832 q 90 820 81 832 q 100 789 100 808 q 82 728 100 753 q 38 704 64 704 q 10 717 19 704 q 0 750 0 729 q 18 809 0 786 q 63 832 36 832 m 260 832 q 288 820 278 832 q 297 789 297 808 q 279 728 297 753 q 235 704 261 704 q 207 717 217 704 q 197 750 197 729 q 215 809 197 786 q 260 832 233 832 z "},"©":{"ha":890,"x_min":42,"x_max":849,"o":"m 504 936 q 244 851 349 936 q 91 638 140 765 q 42 385 42 511 q 133 93 44 200 q 386 -14 222 -14 q 646 72 542 -14 q 799 284 750 157 q 849 538 849 411 q 757 829 846 722 q 504 936 668 936 m 388 63 q 188 150 256 63 q 119 392 119 238 q 157 597 119 489 q 281 783 194 706 q 503 860 367 860 q 703 772 635 860 q 771 529 771 683 q 733 324 771 432 q 610 140 696 217 q 388 63 524 63 m 607 297 q 535 215 581 246 q 426 185 489 185 q 293 248 339 186 q 246 406 247 310 q 306 649 246 553 q 478 744 365 744 q 624 653 585 743 q 629 632 629 642 q 611 610 629 618 l 590 601 q 574 597 581 597 q 551 617 563 597 q 522 653 540 642 q 472 664 504 664 q 360 583 393 664 q 326 414 326 503 q 435 263 326 263 q 496 283 469 263 q 538 333 522 304 q 561 353 547 353 q 578 349 569 353 l 594 339 q 611 315 611 326 q 607 297 611 308 z "},"ª":{"ha":447,"x_min":35,"x_max":447,"o":"m 179 489 q 99 533 132 489 q 65 654 65 578 q 117 851 67 775 q 244 926 167 926 q 325 893 288 926 l 325 897 q 333 919 326 914 q 357 929 340 925 l 385 932 q 397 928 394 932 q 399 913 400 924 l 382 797 q 362 656 368 710 q 356 550 356 601 q 394 579 374 561 q 419 596 414 596 q 438 574 428 596 q 447 540 447 553 q 405 510 447 529 q 335 490 363 490 q 303 514 313 490 q 293 567 293 538 q 243 508 271 528 q 179 489 215 489 m 257 854 q 172 793 201 854 q 140 656 142 732 q 152 585 140 608 q 192 563 164 563 q 263 608 232 563 q 304 724 294 654 q 317 828 315 807 q 257 854 288 854 m 415 425 q 438 422 432 426 q 444 407 444 418 l 442 382 q 426 358 436 363 q 385 350 415 353 l 65 331 q 35 351 35 329 l 38 369 q 54 399 44 393 q 96 407 64 404 l 415 425 z "},"«":{"ha":714,"x_min":28,"x_max":658,"o":"m 646 440 q 658 458 658 447 q 649 486 658 471 q 632 506 639 500 q 617 511 625 511 q 606 508 610 511 l 365 375 q 352 358 357 371 q 347 328 347 344 q 357 299 347 303 l 596 176 q 611 172 604 172 q 649 200 631 172 q 657 221 657 213 q 640 243 657 235 l 456 336 l 646 440 m 326 433 q 339 451 339 440 q 329 479 339 464 q 313 499 319 493 q 297 504 306 504 q 286 501 290 504 l 46 368 q 33 351 38 364 q 28 321 28 338 q 38 292 28 296 l 276 169 q 292 165 285 165 q 329 193 311 165 q 338 214 338 206 q 321 236 338 228 l 136 329 l 326 433 z "},"¬":{"ha":614,"x_min":21,"x_max":554,"o":"m 447 185 q 448 162 444 168 q 464 156 451 156 q 497 161 476 156 q 524 174 517 167 q 533 208 532 182 l 551 364 q 535 406 554 385 q 497 426 517 428 l 82 410 q 40 401 51 408 q 24 371 29 394 q 21 350 21 354 q 26 335 21 339 q 46 332 32 331 l 467 349 l 447 185 z "},"­":{"ha":833,"x_min":21,"x_max":306,"o":"m 50 326 q 27 330 33 325 q 21 347 21 335 l 24 369 q 40 399 31 393 q 82 407 50 404 l 276 418 q 299 415 293 419 q 306 400 306 411 q 303 375 306 394 q 287 346 297 351 q 244 338 276 340 l 50 326 z "},"®":{"ha":869,"x_min":42,"x_max":828,"o":"m 485 936 q 738 830 651 936 q 828 538 825 724 q 781 284 828 411 q 635 72 735 157 q 386 -14 536 -14 q 133 93 222 -14 q 42 385 44 200 q 90 638 42 510 q 238 851 138 765 q 485 936 338 936 m 388 63 q 598 139 517 63 q 715 323 679 215 q 750 529 750 431 q 685 772 750 685 q 488 860 619 860 q 276 783 358 860 q 156 597 193 706 q 119 392 119 489 q 188 150 119 238 q 388 63 256 63 m 608 589 q 578 492 608 535 q 488 425 547 450 l 565 226 q 569 210 569 215 q 564 197 569 201 q 543 186 558 192 q 519 182 528 182 q 505 188 510 182 q 494 207 500 193 l 417 407 q 371 401 399 404 l 347 400 l 325 218 q 317 193 324 199 q 294 186 310 188 l 278 186 q 254 191 260 186 q 250 210 249 196 l 304 710 q 313 738 307 731 q 342 747 319 746 q 418 749 360 749 q 608 589 608 749 m 371 474 q 491 506 447 475 q 535 589 535 538 q 502 659 535 640 q 410 678 469 678 l 374 676 l 353 474 l 371 474 z "},"¯":{"ha":332,"x_min":0,"x_max":333,"o":"m 43 732 q 9 737 18 732 q 0 754 0 742 l 3 772 q 20 801 10 794 q 61 807 31 807 l 296 807 q 325 803 317 807 q 333 790 333 799 q 329 767 333 782 q 312 738 322 744 q 271 732 301 732 l 43 732 z "},"°":{"ha":304,"x_min":28,"x_max":276,"o":"m 140 599 q 57 635 85 599 q 28 719 29 672 q 63 831 28 788 q 164 875 97 875 q 247 838 219 875 q 276 754 275 801 q 242 642 276 686 q 140 599 207 599 m 163 813 q 106 784 122 813 q 90 726 90 756 q 102 681 90 700 q 142 661 114 661 q 198 690 182 661 q 214 747 214 718 q 203 793 214 774 q 163 813 192 813 z "},"±":{"ha":522,"x_min":11,"x_max":501,"o":"m 472 485 q 495 482 489 486 q 501 467 501 478 l 499 442 q 481 414 492 419 q 440 406 471 408 l 300 400 l 285 256 q 276 222 283 229 q 249 208 268 214 q 218 203 232 203 q 205 209 208 203 q 204 232 201 215 l 222 396 l 50 389 q 28 394 35 389 q 21 410 21 399 q 24 429 21 413 q 40 458 31 453 q 82 467 50 464 l 231 474 l 247 617 q 257 653 250 644 q 281 665 264 661 q 314 671 311 671 q 326 665 324 671 q 326 642 328 660 l 308 478 l 472 485 m 463 151 q 485 149 479 153 q 492 133 492 144 l 489 108 q 472 81 482 86 q 431 72 461 75 l 40 56 q 18 60 25 56 q 11 76 11 65 q 14 96 11 79 q 31 125 21 119 q 72 133 40 131 l 463 151 z "},"²":{"ha":390,"x_min":76,"x_max":381,"o":"m 356 564 q 375 560 369 565 q 381 540 381 556 q 379 515 381 525 q 368 495 375 500 q 344 489 361 490 l 106 481 q 86 497 96 481 q 76 522 76 513 q 88 538 76 526 l 131 581 q 224 676 190 639 q 281 758 258 714 q 304 847 304 801 q 290 903 304 886 q 249 919 275 919 q 206 906 222 919 q 174 864 189 893 q 153 847 165 847 q 128 854 146 847 q 106 865 113 861 q 100 876 100 869 q 106 893 100 883 q 167 969 131 944 q 258 993 203 993 q 345 955 313 993 q 379 854 378 917 q 333 707 379 776 q 199 554 288 638 l 356 564 z "},"³":{"ha":351,"x_min":56,"x_max":365,"o":"m 275 740 q 357 621 357 708 q 317 517 357 558 q 206 475 276 475 q 60 549 118 475 q 56 560 56 556 q 72 588 56 571 q 101 606 93 606 q 118 596 108 606 q 138 576 122 592 q 169 553 153 561 q 206 546 186 546 q 285 624 285 546 q 260 682 285 658 q 186 706 235 706 q 169 710 172 706 q 167 733 167 714 q 169 763 167 757 q 182 771 172 769 q 270 806 249 779 q 292 867 292 832 q 276 908 292 893 q 231 922 260 922 q 190 911 206 922 q 156 874 174 900 q 133 858 147 858 q 110 864 126 858 q 90 874 96 869 q 85 886 85 879 q 88 899 85 893 q 144 967 106 940 q 238 993 182 993 q 330 960 296 993 q 365 881 364 926 q 344 799 365 836 q 275 740 322 761 z "},"´":{"ha":272,"x_min":0,"x_max":272,"o":"m 214 863 q 231 872 224 872 q 254 850 240 872 q 272 814 272 824 q 263 796 272 806 q 165 729 224 757 q 47 699 107 701 q 24 703 29 697 q 7 729 18 710 q 0 751 0 742 q 14 764 0 761 q 130 800 85 778 q 214 863 175 822 z "},"µ":{"ha":551,"x_min":1,"x_max":519,"o":"m 468 619 q 501 625 496 625 q 516 619 513 625 q 517 596 519 613 q 506 494 517 581 q 474 219 486 350 q 463 18 468 151 q 429 -7 461 -1 q 408 -10 413 -10 q 386 1 392 -10 q 382 42 381 13 q 386 106 382 67 q 317 19 358 51 q 233 -14 276 -14 q 165 -1 192 -14 q 121 39 139 11 q 88 -225 101 -108 q 78 -260 85 -251 q 56 -272 72 -268 q 21 -278 35 -278 q 5 -272 8 -278 q 3 -249 1 -265 l 26 -75 q 54 135 32 -29 q 90 416 76 300 q 104 578 103 532 q 111 614 106 606 q 138 625 117 622 q 171 629 161 629 q 187 623 183 629 q 189 600 190 617 l 179 500 q 150 165 149 215 q 170 91 150 114 q 233 68 190 68 q 344 137 300 68 q 403 325 389 206 l 433 572 q 442 606 435 599 q 468 619 450 614 z "},"¶":{"ha":758,"x_min":83,"x_max":732,"o":"m 492 954 q 519 945 511 951 q 525 919 526 939 l 413 -62 q 403 -97 411 -89 q 376 -110 396 -104 q 343 -115 356 -115 q 327 -109 331 -115 q 326 -86 324 -103 l 388 421 l 356 419 q 201 454 263 419 q 112 545 140 489 q 83 665 83 601 q 120 809 83 743 q 238 915 157 875 q 442 956 318 956 q 492 954 474 956 m 678 949 q 714 954 708 954 q 728 948 725 954 q 729 925 732 942 l 615 -62 q 606 -97 614 -89 q 579 -110 599 -104 q 546 -115 558 -115 q 530 -109 533 -115 q 529 -86 526 -103 l 644 900 q 654 936 647 928 q 678 949 661 944 z "},"·":{"ha":257,"x_min":69,"x_max":188,"o":"m 139 450 q 89 422 108 450 q 69 356 69 394 q 83 312 69 328 q 118 296 96 296 q 168 324 149 296 q 188 390 188 351 q 174 434 188 418 q 139 450 161 450 z "},"¸":{"ha":211,"x_min":0,"x_max":211,"o":"m 115 -61 q 183 -89 156 -65 q 211 -156 211 -112 q 61 -286 211 -258 q 47 -287 56 -287 q 14 -269 28 -287 q 0 -239 0 -250 q 14 -225 0 -226 q 111 -199 83 -214 q 139 -160 139 -183 q 128 -136 139 -143 q 100 -129 117 -129 q 69 -133 86 -129 q 58 -135 65 -135 q 45 -128 50 -135 q 36 -106 40 -122 q 35 -76 32 -83 l 79 25 q 96 35 83 35 q 119 31 106 35 q 141 20 135 26 q 143 3 147 14 l 115 -61 z "},"¹":{"ha":288,"x_min":83,"x_max":289,"o":"m 268 983 q 285 976 281 983 q 286 954 289 969 l 275 886 q 247 700 258 790 q 224 510 240 646 q 189 485 221 489 q 171 483 182 483 q 153 490 157 483 q 149 508 149 496 q 151 531 149 514 q 193 832 175 725 l 204 896 l 140 868 q 115 861 124 861 q 92 881 101 861 q 83 910 83 900 q 108 935 83 925 q 268 983 231 983 z "},"º":{"ha":403,"x_min":35,"x_max":400,"o":"m 65 643 q 101 533 65 576 q 199 489 136 489 q 347 572 293 489 q 400 774 400 656 q 365 884 400 840 q 267 928 329 928 q 119 844 172 928 q 65 643 65 761 m 140 649 q 152 737 140 689 q 192 819 164 785 q 261 854 219 854 q 325 768 325 854 q 313 680 325 728 q 274 597 301 632 q 204 563 246 563 q 140 649 140 563 m 64 331 q 41 334 47 329 q 35 350 35 339 q 38 369 35 353 q 54 399 44 393 q 96 407 64 404 l 340 421 q 363 418 357 422 q 369 403 369 414 l 367 378 q 349 353 360 358 q 308 346 339 349 l 64 331 z "},"»":{"ha":714,"x_min":56,"x_max":686,"o":"m 388 238 q 375 219 375 232 q 385 192 375 207 q 401 172 394 178 q 417 167 408 167 q 428 169 424 167 l 668 303 q 681 320 676 307 q 686 350 686 333 q 676 379 686 375 l 438 501 q 422 506 429 506 q 385 478 403 506 q 376 457 376 465 q 393 435 376 443 l 578 342 l 388 238 m 68 231 q 56 213 56 225 q 65 185 56 200 q 82 165 75 171 q 97 160 89 160 q 108 163 104 160 l 349 296 q 362 313 357 300 q 367 343 367 326 q 357 372 367 368 l 118 494 q 103 499 110 499 q 65 471 83 499 q 57 450 57 458 q 74 428 57 436 l 258 335 l 68 231 z "},"¼":{"ha":894,"x_min":-17,"x_max":839,"o":"m 804 942 q 825 914 825 925 q 821 900 825 907 l 50 -135 q 32 -147 42 -147 q 3 -135 21 -147 q -17 -108 -17 -119 q -12 -94 -17 -103 l 758 940 q 778 953 769 953 q 804 942 786 953 m 111 729 q 86 722 94 722 q 63 742 72 722 q 54 771 54 761 q 79 796 54 786 q 239 844 200 844 q 256 838 251 844 q 257 815 260 831 l 246 747 q 218 561 229 651 q 194 371 211 507 q 160 346 192 350 q 142 344 153 344 q 124 351 128 344 q 119 369 119 357 q 122 392 119 375 q 164 693 146 586 l 175 757 l 111 729 m 819 165 q 834 161 829 165 q 839 144 839 157 q 838 126 839 133 q 828 103 835 111 q 803 94 821 96 l 750 92 q 747 58 747 69 q 738 -47 743 25 q 728 -65 736 -61 q 700 -71 721 -69 l 689 -71 q 666 -65 671 -71 q 661 -42 661 -58 q 674 88 664 17 l 501 81 q 475 97 488 81 q 468 126 463 114 q 567 407 532 317 q 581 431 575 426 q 610 433 586 435 q 641 426 633 431 q 644 408 649 422 q 610 311 628 363 q 575 213 592 260 l 554 151 l 683 158 q 713 336 692 213 l 724 401 q 733 422 726 417 q 760 429 739 426 l 786 432 q 797 428 794 432 q 797 415 799 425 q 758 163 769 251 l 819 165 z "},"½":{"ha":881,"x_min":-17,"x_max":825,"o":"m 50 -135 q 32 -147 42 -147 q 3 -135 21 -147 q -17 -108 -17 -119 q -12 -94 -17 -103 l 758 940 q 778 953 769 953 q 804 942 786 953 q 825 914 825 925 q 821 900 825 907 l 50 -135 m 239 844 q 256 838 251 844 q 257 815 260 831 l 246 747 q 218 561 229 651 q 194 371 211 507 q 160 346 192 350 q 142 344 153 344 q 124 351 128 344 q 119 369 119 357 q 122 392 119 375 q 164 693 146 586 l 175 757 l 111 729 q 86 722 94 722 q 63 742 72 722 q 54 771 54 761 q 79 796 54 786 q 239 844 200 844 m 783 15 q 803 12 797 17 q 808 -8 808 7 q 807 -33 808 -24 q 796 -53 803 -49 q 772 -60 789 -58 l 533 -68 q 514 -52 524 -68 q 504 -26 504 -36 q 515 -11 504 -22 l 558 32 q 652 128 618 90 q 709 209 686 165 q 732 299 732 253 q 717 354 732 338 q 676 371 703 371 q 633 358 650 371 q 601 315 617 344 q 581 299 593 299 q 556 306 574 299 q 534 317 540 313 q 528 328 528 321 q 533 344 528 335 q 594 420 558 396 q 686 444 631 444 q 773 406 740 444 q 807 306 806 368 q 761 158 807 228 q 626 6 715 89 l 783 15 z "},"¾":{"ha":999,"x_min":49,"x_max":942,"o":"m 908 942 q 929 914 929 925 q 925 900 929 907 l 154 -135 q 136 -147 146 -147 q 107 -135 126 -147 q 88 -108 88 -119 q 92 -94 88 -103 l 863 940 q 882 953 874 953 q 908 942 890 953 m 350 482 q 310 378 350 419 q 199 336 269 336 q 53 410 111 336 q 49 421 49 417 q 65 449 49 432 q 94 467 86 467 q 111 457 101 467 q 131 438 115 453 q 163 415 146 422 q 199 407 179 407 q 278 485 278 407 q 253 543 278 519 q 179 567 228 567 q 163 571 165 567 q 160 594 160 575 q 163 624 160 618 q 175 632 165 631 q 263 667 242 640 q 285 728 285 693 q 269 769 285 754 q 224 783 253 783 q 183 772 199 783 q 149 735 167 761 q 126 719 140 719 q 103 725 119 719 q 83 735 89 731 q 78 747 78 740 q 81 760 78 754 q 137 828 99 801 q 231 854 175 854 q 323 821 289 854 q 358 742 357 788 q 337 660 358 697 q 268 601 315 622 q 350 482 350 569 m 922 165 q 937 161 932 165 q 942 144 942 157 q 940 126 942 133 q 931 103 938 111 q 906 94 924 96 l 853 92 q 850 58 850 69 q 840 -47 846 25 q 831 -65 839 -61 q 803 -71 824 -69 l 792 -71 q 769 -65 774 -71 q 764 -42 764 -58 q 776 88 767 17 l 604 81 q 578 97 590 81 q 571 126 565 114 q 669 407 635 317 q 683 431 678 426 q 713 433 689 435 q 744 426 736 431 q 747 408 751 422 q 713 311 731 363 q 678 213 694 260 l 657 151 l 786 158 q 815 336 794 213 l 826 401 q 835 422 829 417 q 863 429 842 426 l 889 432 q 899 428 897 432 q 900 415 901 425 q 861 163 872 251 l 922 165 z "},"¿":{"ha":507,"x_min":21,"x_max":438,"o":"m 235 349 q 203 288 224 317 q 144 210 183 258 q 53 76 85 135 q 21 -51 21 18 q 68 -173 22 -122 q 204 -225 114 -224 q 433 -51 367 -225 q 438 -31 438 -39 q 431 -17 438 -22 q 408 -6 424 -11 q 382 0 393 0 q 367 -6 372 0 q 356 -25 361 -11 q 211 -147 307 -147 q 127 -115 153 -147 q 101 -36 101 -83 q 128 58 101 13 q 208 171 154 103 q 285 278 258 236 q 319 367 311 319 l 321 378 q 292 399 321 403 q 255 388 264 396 q 235 349 246 379 m 301 481 q 351 508 332 481 q 371 575 371 536 q 358 619 371 603 q 322 635 344 635 q 272 607 292 635 q 253 540 253 579 q 266 497 253 513 q 301 481 279 481 z "},"À":{"ha":667,"x_min":-26,"x_max":597,"o":"m 593 53 q 597 26 597 36 q 592 8 597 14 q 572 -4 586 1 q 536 -14 547 -14 q 517 6 521 -14 l 457 360 l 199 333 l 67 31 q 47 2 57 10 q 24 -6 38 -6 q -15 -1 -3 -6 q -26 14 -26 3 q -22 32 -26 22 l 351 882 q 367 912 361 904 q 388 925 374 919 q 425 935 417 935 q 440 918 439 935 l 524 444 l 531 446 q 558 447 542 447 q 581 441 574 447 q 592 414 588 435 q 594 393 594 397 q 583 376 594 382 q 538 367 571 371 l 593 53 m 406 663 l 393 779 l 235 417 l 443 438 l 406 663 m 540 1039 q 524 1014 531 1019 q 500 1008 518 1008 q 386 1029 449 1008 q 285 1078 324 1050 q 274 1093 274 1086 q 293 1132 274 1101 q 317 1153 307 1153 q 333 1144 324 1153 q 418 1097 374 1114 q 532 1069 463 1079 q 542 1066 539 1068 q 546 1057 546 1064 q 540 1039 546 1050 z "},"Á":{"ha":667,"x_min":-26,"x_max":597,"o":"m 593 53 q 597 26 597 36 q 592 8 597 14 q 572 -4 586 1 q 536 -14 547 -14 q 517 6 521 -14 l 457 360 l 199 333 l 67 31 q 47 2 57 10 q 24 -6 38 -6 q -15 -1 -3 -6 q -26 14 -26 3 q -22 32 -26 22 l 351 882 q 367 912 361 904 q 388 925 374 919 q 425 935 417 935 q 440 918 439 935 l 524 444 l 531 446 q 558 447 542 447 q 581 441 574 447 q 592 414 588 435 q 594 393 594 397 q 583 376 594 382 q 538 367 571 371 l 593 53 m 406 663 l 393 779 l 235 417 l 443 438 l 406 663 m 289 1069 q 403 1097 358 1079 q 488 1144 447 1114 q 504 1153 499 1153 q 528 1132 514 1153 q 547 1093 547 1101 q 536 1078 547 1086 q 435 1029 497 1050 q 321 1008 372 1008 q 297 1014 303 1008 q 281 1039 290 1019 q 275 1057 275 1050 q 278 1066 275 1064 q 289 1069 282 1068 z "},"Â":{"ha":667,"x_min":-26,"x_max":597,"o":"m 593 53 q 597 26 597 36 q 592 8 597 14 q 572 -4 586 1 q 536 -14 547 -14 q 517 6 521 -14 l 457 360 l 199 333 l 67 31 q 47 2 57 10 q 24 -6 38 -6 q -15 -1 -3 -6 q -26 14 -26 3 q -22 32 -26 22 l 351 882 q 367 912 361 904 q 388 925 374 919 q 425 935 417 935 q 440 918 439 935 l 524 444 l 531 446 q 558 447 542 447 q 581 441 574 447 q 592 414 588 435 q 594 393 594 397 q 583 376 594 382 q 538 367 571 371 l 593 53 m 406 663 l 393 779 l 235 417 l 443 438 l 406 663 m 453 1061 l 507 1018 q 526 1008 522 1008 q 550 1025 536 1008 q 557 1033 551 1026 q 563 1046 563 1040 q 549 1067 563 1054 q 438 1175 497 1113 q 418 1186 426 1186 q 403 1179 413 1186 l 378 1156 q 267 1065 322 1106 q 249 1044 249 1053 q 260 1024 249 1039 q 272 1010 267 1015 q 283 1004 278 1004 q 301 1013 289 1004 l 378 1063 q 400 1078 390 1071 q 418 1090 410 1085 l 453 1061 z "},"Ã":{"ha":667,"x_min":-26,"x_max":615,"o":"m 593 53 q 597 26 597 36 q 592 8 597 14 q 572 -4 586 1 q 536 -14 547 -14 q 517 6 521 -14 l 457 360 l 199 333 l 67 31 q 47 2 57 10 q 24 -6 38 -6 q -15 -1 -3 -6 q -26 14 -26 3 q -22 32 -26 22 l 351 882 q 367 912 361 904 q 388 925 374 919 q 425 935 417 935 q 440 918 439 935 l 524 444 l 531 446 q 558 447 542 447 q 581 441 574 447 q 592 414 588 435 q 594 393 594 397 q 583 376 594 382 q 538 367 571 371 l 593 53 m 406 663 l 393 779 l 235 417 l 443 438 l 406 663 m 310 1078 q 280 1069 293 1078 q 249 1043 267 1061 q 229 1032 238 1032 q 204 1047 219 1032 q 189 1063 194 1056 q 183 1075 183 1069 q 193 1094 183 1083 q 249 1139 221 1125 q 311 1153 278 1153 q 381 1131 346 1153 q 400 1117 385 1128 q 431 1101 415 1107 q 463 1096 447 1096 q 515 1110 492 1096 q 561 1151 538 1124 q 576 1163 572 1163 q 588 1156 582 1163 q 600 1140 593 1150 q 615 1108 615 1118 q 604 1088 615 1099 q 457 1021 542 1021 q 413 1030 433 1021 q 368 1054 392 1039 q 335 1072 347 1067 q 310 1078 322 1078 z "},"Ä":{"ha":667,"x_min":-26,"x_max":597,"o":"m 593 53 q 597 26 597 36 q 592 8 597 14 q 572 -4 586 1 q 536 -14 547 -14 q 517 6 521 -14 l 457 360 l 199 333 l 67 31 q 47 2 57 10 q 24 -6 38 -6 q -15 -1 -3 -6 q -26 14 -26 3 q -22 32 -26 22 l 351 882 q 367 912 361 904 q 388 925 374 919 q 425 935 417 935 q 440 918 439 935 l 524 444 l 531 446 q 558 447 542 447 q 581 441 574 447 q 592 414 588 435 q 594 393 594 397 q 583 376 594 382 q 538 367 571 371 l 593 53 m 406 663 l 393 779 l 235 417 l 443 438 l 406 663 m 328 1142 q 356 1130 346 1142 q 365 1099 365 1118 q 347 1038 365 1063 q 303 1014 329 1014 q 275 1026 285 1014 q 265 1060 265 1039 q 283 1119 265 1096 q 328 1142 301 1142 m 525 1142 q 553 1130 543 1142 q 563 1099 563 1118 q 544 1038 563 1063 q 500 1014 526 1014 q 472 1026 482 1014 q 463 1060 463 1039 q 481 1119 463 1096 q 525 1142 499 1142 z "},"Å":{"ha":668,"x_min":-28,"x_max":599,"o":"m 594 53 q 599 22 599 32 q 594 8 599 13 q 574 -4 589 3 q 533 -18 543 -18 q 518 6 522 -18 l 458 360 l 200 333 l 68 31 q 47 1 56 7 q 19 -6 38 -6 q -17 -1 -7 -4 q -28 11 -28 3 q -21 32 -28 18 l 349 874 q 325 908 333 886 q 317 953 317 929 q 351 1052 317 1014 q 436 1090 385 1090 q 498 1060 478 1090 q 518 992 518 1031 q 499 916 518 949 q 450 868 481 883 l 525 444 l 532 446 q 560 447 543 447 q 582 441 575 447 q 593 414 589 435 q 596 393 596 397 q 584 376 596 382 q 539 367 572 371 l 594 53 m 426 1028 q 391 1007 406 1028 q 376 954 376 986 q 384 928 376 939 q 407 917 392 917 l 413 917 q 445 940 432 919 q 458 990 458 960 q 451 1017 458 1006 q 426 1028 443 1028 m 407 663 l 394 779 l 236 417 l 444 438 l 407 663 z "},"Æ":{"ha":1053,"x_min":-71,"x_max":1044,"o":"m 1001 932 q 1035 928 1025 933 q 1044 908 1044 922 q 1042 889 1044 903 q 1024 859 1035 865 q 983 851 1014 853 l 683 843 l 647 507 l 918 518 q 952 515 943 519 q 961 497 961 511 l 958 475 q 942 446 951 451 q 900 438 932 440 l 639 426 l 600 69 l 939 82 q 973 78 964 82 q 982 61 982 74 q 979 38 982 57 q 962 7 972 14 q 921 0 951 0 l 565 -14 q 527 6 546 -15 q 511 49 508 28 l 551 424 l 275 413 l 21 11 q -14 -15 6 -15 q -36 -10 -19 -15 q -71 19 -71 4 q -60 44 -71 29 l 475 885 q 499 913 486 906 q 538 919 507 919 l 1001 932 m 546 839 l 326 494 l 560 503 l 597 840 l 546 839 z "},"Ç":{"ha":644,"x_min":49,"x_max":625,"o":"m 625 738 q 618 721 625 726 q 590 710 611 715 q 563 704 575 704 q 547 710 553 704 q 538 729 540 715 q 495 822 525 792 q 411 851 465 851 q 251 766 313 851 q 163 564 189 681 q 136 351 136 447 q 178 150 136 228 q 297 72 221 72 q 410 115 360 74 q 496 224 460 156 q 521 243 506 243 q 549 232 531 243 q 579 200 579 218 q 575 185 579 193 q 300 -14 468 -7 l 282 -56 q 350 -83 322 -60 q 378 -150 378 -107 q 228 -281 378 -253 q 214 -282 222 -282 q 181 -264 194 -282 q 167 -233 167 -244 q 181 -219 167 -221 q 278 -193 250 -208 q 306 -154 306 -178 q 294 -131 306 -137 q 267 -124 283 -124 q 236 -128 253 -124 q 225 -129 232 -129 q 212 -123 217 -129 q 203 -100 207 -117 q 201 -71 199 -78 l 229 -6 q 98 112 144 19 q 49 338 51 204 q 85 613 49 476 q 205 843 121 750 q 422 936 289 936 q 553 888 501 935 q 622 756 606 842 l 625 738 z "},"È":{"ha":606,"x_min":63,"x_max":599,"o":"m 556 932 q 589 928 579 933 q 599 908 599 922 q 596 889 599 903 q 578 859 589 865 q 538 851 568 853 l 238 843 l 201 504 l 472 518 q 506 514 497 519 q 515 496 515 508 q 513 475 515 492 q 496 446 506 451 q 454 438 486 440 l 193 425 l 154 69 l 493 82 q 527 78 518 82 q 536 61 536 74 q 533 38 536 57 q 516 7 526 14 q 475 0 506 0 l 119 -14 q 81 6 100 -15 q 65 49 63 28 l 151 840 l 106 839 q 72 843 81 839 q 63 860 63 847 l 65 882 q 81 913 72 907 q 119 919 89 918 l 556 932 m 478 1039 q 462 1014 468 1019 q 438 1008 456 1008 q 324 1029 386 1008 q 222 1078 261 1050 q 211 1093 211 1086 q 231 1132 211 1101 q 254 1153 244 1153 q 271 1144 261 1153 q 356 1097 311 1114 q 469 1069 400 1079 q 480 1066 476 1068 q 483 1057 483 1064 q 478 1039 483 1050 z "},"É":{"ha":606,"x_min":63,"x_max":599,"o":"m 556 932 q 589 928 579 933 q 599 908 599 922 q 596 889 599 903 q 578 859 589 865 q 538 851 568 853 l 238 843 l 201 504 l 472 518 q 506 514 497 519 q 515 496 515 508 q 513 475 515 492 q 496 446 506 451 q 454 438 486 440 l 193 425 l 154 69 l 493 82 q 527 78 518 82 q 536 61 536 74 q 533 38 536 57 q 516 7 526 14 q 475 0 506 0 l 119 -14 q 81 6 100 -15 q 65 49 63 28 l 151 840 l 106 839 q 72 843 81 839 q 63 860 63 847 l 65 882 q 81 913 72 907 q 119 919 89 918 l 556 932 m 226 1069 q 340 1097 296 1079 q 425 1144 385 1114 q 442 1153 436 1153 q 465 1132 451 1153 q 485 1093 485 1101 q 474 1078 485 1086 q 372 1029 435 1050 q 258 1008 310 1008 q 234 1014 240 1008 q 218 1039 228 1019 q 213 1057 213 1050 q 216 1066 213 1064 q 226 1069 219 1068 z "},"Ê":{"ha":606,"x_min":63,"x_max":599,"o":"m 556 932 q 589 928 579 933 q 599 908 599 922 q 596 889 599 903 q 578 859 589 865 q 538 851 568 853 l 238 843 l 201 504 l 472 518 q 506 514 497 519 q 515 496 515 508 q 513 475 515 492 q 496 446 506 451 q 454 438 486 440 l 193 425 l 154 69 l 493 82 q 527 78 518 82 q 536 61 536 74 q 533 38 536 57 q 516 7 526 14 q 475 0 506 0 l 119 -14 q 81 6 100 -15 q 65 49 63 28 l 151 840 l 106 839 q 72 843 81 839 q 63 860 63 847 l 65 882 q 81 913 72 907 q 119 919 89 918 l 556 932 m 390 1061 l 444 1018 q 464 1008 460 1008 q 488 1025 474 1008 q 494 1033 489 1026 q 500 1046 500 1040 q 486 1067 500 1054 q 375 1175 435 1113 q 356 1186 364 1186 q 340 1179 350 1186 l 315 1156 q 204 1065 260 1106 q 186 1044 186 1053 q 197 1024 186 1039 q 210 1010 204 1015 q 221 1004 215 1004 q 239 1013 226 1004 l 315 1063 q 338 1078 328 1071 q 356 1090 347 1085 l 390 1061 z "},"Ë":{"ha":606,"x_min":63,"x_max":599,"o":"m 556 932 q 589 928 579 933 q 599 908 599 922 q 596 889 599 903 q 578 859 589 865 q 538 851 568 853 l 238 843 l 201 504 l 472 518 q 506 514 497 519 q 515 496 515 508 q 513 475 515 492 q 496 446 506 451 q 454 438 486 440 l 193 425 l 154 69 l 493 82 q 527 78 518 82 q 536 61 536 74 q 533 38 536 57 q 516 7 526 14 q 475 0 506 0 l 119 -14 q 81 6 100 -15 q 65 49 63 28 l 151 840 l 106 839 q 72 843 81 839 q 63 860 63 847 l 65 882 q 81 913 72 907 q 119 919 89 918 l 556 932 m 265 1142 q 293 1130 283 1142 q 303 1099 303 1118 q 285 1038 303 1063 q 240 1014 267 1014 q 213 1026 222 1014 q 203 1060 203 1039 q 221 1119 203 1096 q 265 1142 239 1142 m 463 1142 q 490 1130 481 1142 q 500 1099 500 1118 q 482 1038 500 1063 q 438 1014 464 1014 q 410 1026 419 1014 q 400 1060 400 1039 q 418 1119 400 1096 q 463 1142 436 1142 z "},"Ì":{"ha":272,"x_min":43,"x_max":333,"o":"m 228 904 q 226 927 229 921 q 211 933 224 933 q 176 928 207 933 q 153 915 160 924 q 143 879 146 907 l 46 18 q 47 -5 43 1 q 63 -11 50 -11 q 96 -6 75 -11 q 123 8 115 0 q 132 42 131 15 l 228 904 m 328 1039 q 312 1014 318 1019 q 288 1008 306 1008 q 174 1029 236 1008 q 72 1078 111 1050 q 61 1093 61 1086 q 81 1132 61 1101 q 104 1153 94 1153 q 121 1144 111 1153 q 206 1097 161 1114 q 319 1069 250 1079 q 330 1066 326 1068 q 333 1057 333 1064 q 328 1039 333 1050 z "},"Í":{"ha":272,"x_min":43,"x_max":335,"o":"m 228 904 q 226 927 229 921 q 211 933 224 933 q 176 928 207 933 q 153 915 160 924 q 143 879 146 907 l 46 18 q 47 -5 43 1 q 63 -11 50 -11 q 96 -6 75 -11 q 123 8 115 0 q 132 42 131 15 l 228 904 m 76 1069 q 190 1097 146 1079 q 275 1144 235 1114 q 292 1153 286 1153 q 315 1132 301 1153 q 335 1093 335 1101 q 324 1078 335 1086 q 222 1029 285 1050 q 108 1008 160 1008 q 84 1014 90 1008 q 68 1039 78 1019 q 63 1057 63 1050 q 66 1066 63 1064 q 76 1069 69 1068 z "},"Î":{"ha":272,"x_min":36,"x_max":350,"o":"m 228 904 q 226 927 229 921 q 211 933 224 933 q 176 928 207 933 q 153 915 160 924 q 143 879 146 907 l 46 18 q 47 -5 43 1 q 63 -11 50 -11 q 96 -6 75 -11 q 123 8 115 0 q 132 42 131 15 l 228 904 m 240 1061 l 294 1018 q 314 1008 310 1008 q 338 1025 324 1008 q 344 1033 339 1026 q 350 1046 350 1040 q 336 1067 350 1054 q 225 1175 285 1113 q 206 1186 214 1186 q 190 1179 200 1186 l 165 1156 q 54 1065 110 1106 q 36 1044 36 1053 q 47 1024 36 1039 q 60 1010 54 1015 q 71 1004 65 1004 q 89 1013 76 1004 l 165 1063 q 188 1078 178 1071 q 206 1090 197 1085 l 240 1061 z "},"Ï":{"ha":272,"x_min":43,"x_max":350,"o":"m 228 904 q 226 927 229 921 q 211 933 224 933 q 176 928 207 933 q 153 915 160 924 q 143 879 146 907 l 46 18 q 47 -5 43 1 q 63 -11 50 -11 q 96 -6 75 -11 q 123 8 115 0 q 132 42 131 15 l 228 904 m 115 1142 q 143 1130 133 1142 q 153 1099 153 1118 q 135 1038 153 1063 q 90 1014 117 1014 q 63 1026 72 1014 q 53 1060 53 1039 q 71 1119 53 1096 q 115 1142 89 1142 m 313 1142 q 340 1130 331 1142 q 350 1099 350 1118 q 332 1038 350 1063 q 288 1014 314 1014 q 260 1026 269 1014 q 250 1060 250 1039 q 268 1119 250 1096 q 313 1142 286 1142 z "},"Ð":{"ha":717,"x_min":28,"x_max":656,"o":"m 340 933 q 578 841 501 931 q 656 575 656 751 q 536 136 656 289 q 203 -17 417 -17 q 135 -10 174 -17 q 97 13 114 -7 q 82 51 81 33 l 129 414 l 57 410 q 34 413 40 408 q 28 431 28 418 l 31 453 q 47 482 38 476 q 89 490 57 488 l 139 493 l 185 843 q 108 832 132 838 q 79 840 88 829 q 71 878 71 850 q 101 914 71 908 q 340 933 204 933 m 569 581 q 511 787 569 724 q 343 851 453 850 q 268 850 325 853 l 222 497 l 388 507 q 410 504 404 508 q 417 489 417 500 q 414 464 417 483 q 398 435 408 440 q 356 426 388 429 l 213 418 l 167 69 q 207 67 197 67 q 482 208 394 67 q 569 581 569 349 z "},"Ñ":{"ha":739,"x_min":43,"x_max":696,"o":"m 642 931 q 676 936 672 936 q 692 929 688 936 q 693 907 696 922 l 589 42 q 580 8 588 15 q 554 -6 572 0 q 522 -11 526 -11 q 507 -6 513 -11 q 496 11 501 -1 l 238 678 l 211 764 l 131 42 q 121 7 128 15 q 93 -6 114 -1 q 60 -11 72 -11 q 46 -5 49 -11 q 44 18 43 1 l 142 878 q 153 910 144 901 q 185 926 163 918 q 213 933 203 933 q 238 911 228 933 l 492 253 l 518 157 l 608 882 q 618 918 611 910 q 642 931 625 926 m 333 1078 q 303 1069 317 1078 q 272 1043 290 1061 q 253 1032 261 1032 q 228 1047 243 1032 q 213 1063 218 1056 q 207 1075 207 1069 q 217 1094 207 1083 q 273 1139 244 1125 q 335 1153 301 1153 q 404 1131 369 1153 q 424 1117 408 1128 q 455 1101 439 1107 q 486 1096 471 1096 q 538 1110 515 1096 q 585 1151 561 1124 q 600 1163 596 1163 q 611 1156 606 1163 q 624 1140 617 1150 q 639 1108 639 1118 q 628 1088 639 1099 q 481 1021 565 1021 q 436 1030 457 1021 q 392 1054 415 1039 q 358 1072 371 1067 q 333 1078 346 1078 z "},"Ò":{"ha":726,"x_min":49,"x_max":678,"o":"m 678 585 q 642 309 678 446 q 522 79 606 172 q 304 -14 438 -14 q 116 85 181 -12 q 49 338 51 182 q 85 613 49 476 q 205 843 121 750 q 422 936 289 936 q 610 837 544 935 q 678 585 675 739 m 136 351 q 181 148 136 225 q 315 71 226 71 q 476 156 414 71 q 564 358 538 242 q 590 571 590 475 q 545 774 590 697 q 411 851 500 851 q 251 766 313 851 q 163 564 189 681 q 136 351 136 447 m 563 1039 q 547 1014 553 1019 q 522 1008 540 1008 q 408 1029 471 1008 q 307 1078 346 1050 q 296 1093 296 1086 q 315 1132 296 1101 q 339 1153 329 1153 q 356 1144 346 1153 q 440 1097 396 1114 q 554 1069 485 1079 q 565 1066 561 1068 q 568 1057 568 1064 q 563 1039 568 1050 z "},"Ó":{"ha":726,"x_min":49,"x_max":678,"o":"m 678 585 q 642 309 678 446 q 522 79 606 172 q 304 -14 438 -14 q 116 85 181 -12 q 49 338 51 182 q 85 613 49 476 q 205 843 121 750 q 422 936 289 936 q 610 837 544 935 q 678 585 675 739 m 136 351 q 181 148 136 225 q 315 71 226 71 q 476 156 414 71 q 564 358 538 242 q 590 571 590 475 q 545 774 590 697 q 411 851 500 851 q 251 766 313 851 q 163 564 189 681 q 136 351 136 447 m 311 1069 q 425 1097 381 1079 q 510 1144 469 1114 q 526 1153 521 1153 q 550 1132 536 1153 q 569 1093 569 1101 q 558 1078 569 1086 q 457 1029 519 1050 q 343 1008 394 1008 q 319 1014 325 1008 q 303 1039 313 1019 q 297 1057 297 1050 q 301 1066 297 1064 q 311 1069 304 1068 z "},"Ô":{"ha":726,"x_min":49,"x_max":678,"o":"m 678 585 q 642 309 678 446 q 522 79 606 172 q 304 -14 438 -14 q 116 85 181 -12 q 49 338 51 182 q 85 613 49 476 q 205 843 121 750 q 422 936 289 936 q 610 837 544 935 q 678 585 675 739 m 136 351 q 181 148 136 225 q 315 71 226 71 q 476 156 414 71 q 564 358 538 242 q 590 571 590 475 q 545 774 590 697 q 411 851 500 851 q 251 766 313 851 q 163 564 189 681 q 136 351 136 447 m 475 1061 l 529 1018 q 549 1008 544 1008 q 572 1025 558 1008 q 579 1033 574 1026 q 585 1046 585 1040 q 571 1067 585 1054 q 460 1175 519 1113 q 440 1186 449 1186 q 425 1179 435 1186 l 400 1156 q 289 1065 344 1106 q 271 1044 271 1053 q 282 1024 271 1039 q 294 1010 289 1015 q 306 1004 300 1004 q 324 1013 311 1004 l 400 1063 q 422 1078 413 1071 q 440 1090 432 1085 l 475 1061 z "},"Õ":{"ha":726,"x_min":49,"x_max":678,"o":"m 678 585 q 642 309 678 446 q 522 79 606 172 q 304 -14 438 -14 q 116 85 181 -12 q 49 338 51 182 q 85 613 49 476 q 205 843 121 750 q 422 936 289 936 q 610 837 544 935 q 678 585 675 739 m 136 351 q 181 148 136 225 q 315 71 226 71 q 476 156 414 71 q 564 358 538 242 q 590 571 590 475 q 545 774 590 697 q 411 851 500 851 q 251 766 313 851 q 163 564 189 681 q 136 351 136 447 m 332 1078 q 302 1069 315 1078 q 271 1043 289 1061 q 251 1032 260 1032 q 226 1047 242 1032 q 211 1063 217 1056 q 206 1075 206 1069 q 215 1094 206 1083 q 272 1139 243 1125 q 333 1153 300 1153 q 403 1131 368 1153 q 422 1117 407 1128 q 453 1101 438 1107 q 485 1096 469 1096 q 537 1110 514 1096 q 583 1151 560 1124 q 599 1163 594 1163 q 610 1156 604 1163 q 622 1140 615 1150 q 638 1108 638 1118 q 626 1088 638 1099 q 479 1021 564 1021 q 435 1030 456 1021 q 390 1054 414 1039 q 357 1072 369 1067 q 332 1078 344 1078 z "},"Ö":{"ha":726,"x_min":49,"x_max":678,"o":"m 678 585 q 642 309 678 446 q 522 79 606 172 q 304 -14 438 -14 q 116 85 181 -12 q 49 338 51 182 q 85 613 49 476 q 205 843 121 750 q 422 936 289 936 q 610 837 544 935 q 678 585 675 739 m 136 351 q 181 148 136 225 q 315 71 226 71 q 476 156 414 71 q 564 358 538 242 q 590 571 590 475 q 545 774 590 697 q 411 851 500 851 q 251 766 313 851 q 163 564 189 681 q 136 351 136 447 m 350 1142 q 378 1130 368 1142 q 388 1099 388 1118 q 369 1038 388 1063 q 325 1014 351 1014 q 297 1026 307 1014 q 288 1060 288 1039 q 306 1119 288 1096 q 350 1142 324 1142 m 547 1142 q 575 1130 565 1142 q 585 1099 585 1118 q 567 1038 585 1063 q 522 1014 549 1014 q 494 1026 504 1014 q 485 1060 485 1039 q 503 1119 485 1096 q 547 1142 521 1142 z "},"×":{"ha":457,"x_min":38,"x_max":415,"o":"m 379 292 q 394 270 389 279 q 400 253 400 261 q 386 219 400 239 q 361 199 369 199 q 339 214 350 199 l 226 356 l 97 215 q 82 207 89 207 q 50 232 68 207 q 38 258 38 250 q 58 292 38 272 l 176 418 l 81 538 q 60 581 60 565 q 69 606 60 594 q 88 625 79 618 q 101 632 96 632 q 122 615 110 632 l 231 478 l 357 614 q 378 626 369 626 q 392 619 385 626 q 408 594 399 611 q 415 574 415 581 q 394 538 415 560 l 282 415 l 379 292 z "},"Ø":{"ha":728,"x_min":0,"x_max":728,"o":"m 701 963 q 722 947 715 953 q 728 932 728 940 q 722 917 728 924 l 643 800 q 679 597 676 721 q 636 311 679 451 q 504 78 593 171 q 285 -14 415 -14 q 131 50 190 -12 l 76 -31 q 56 -43 68 -43 q 25 -31 44 -43 q 0 1 0 -14 q 6 17 0 10 l 83 129 q 50 325 53 207 q 93 611 50 471 q 225 844 136 751 q 444 936 314 936 q 592 878 535 935 l 650 963 q 671 975 658 975 q 701 963 683 975 m 138 351 q 147 224 138 274 l 540 803 q 433 851 503 851 q 268 765 335 851 q 169 561 201 679 q 138 351 138 443 m 592 571 q 581 708 592 657 l 183 125 q 296 71 221 71 q 461 159 394 71 q 560 366 528 247 q 592 571 592 485 z "},"Ù":{"ha":693,"x_min":69,"x_max":656,"o":"m 547 583 q 564 790 557 657 l 569 879 q 576 915 571 907 q 599 928 582 924 q 635 933 629 933 q 651 927 647 933 q 654 904 656 921 q 632 597 644 736 q 587 286 611 404 q 493 77 563 168 q 293 -14 424 -14 q 124 82 175 -12 q 69 325 72 176 q 78 536 69 431 q 106 800 88 642 q 115 879 110 826 q 125 915 118 907 q 149 928 132 924 q 183 933 179 933 q 199 927 196 933 q 200 904 201 921 l 188 788 q 163 544 171 640 q 154 351 154 449 q 189 146 154 221 q 304 71 224 71 q 438 143 389 71 q 506 310 486 215 q 542 536 526 404 l 547 583 m 540 1039 q 524 1014 531 1019 q 500 1008 518 1008 q 386 1029 449 1008 q 285 1078 324 1050 q 274 1093 274 1086 q 293 1132 274 1101 q 317 1153 307 1153 q 333 1144 324 1153 q 418 1097 374 1114 q 532 1069 463 1079 q 542 1066 539 1068 q 546 1057 546 1064 q 540 1039 546 1050 z "},"Ú":{"ha":693,"x_min":69,"x_max":656,"o":"m 547 583 q 564 790 557 657 l 569 879 q 576 915 571 907 q 599 928 582 924 q 635 933 629 933 q 651 927 647 933 q 654 904 656 921 q 632 597 644 736 q 587 286 611 404 q 493 77 563 168 q 293 -14 424 -14 q 124 82 175 -12 q 69 325 72 176 q 78 536 69 431 q 106 800 88 642 q 115 879 110 826 q 125 915 118 907 q 149 928 132 924 q 183 933 179 933 q 199 927 196 933 q 200 904 201 921 l 188 788 q 163 544 171 640 q 154 351 154 449 q 189 146 154 221 q 304 71 224 71 q 438 143 389 71 q 506 310 486 215 q 542 536 526 404 l 547 583 m 289 1069 q 403 1097 358 1079 q 488 1144 447 1114 q 504 1153 499 1153 q 528 1132 514 1153 q 547 1093 547 1101 q 536 1078 547 1086 q 435 1029 497 1050 q 321 1008 372 1008 q 297 1014 303 1008 q 281 1039 290 1019 q 275 1057 275 1050 q 278 1066 275 1064 q 289 1069 282 1068 z "},"Û":{"ha":693,"x_min":69,"x_max":656,"o":"m 547 583 q 564 790 557 657 l 569 879 q 576 915 571 907 q 599 928 582 924 q 635 933 629 933 q 651 927 647 933 q 654 904 656 921 q 632 597 644 736 q 587 286 611 404 q 493 77 563 168 q 293 -14 424 -14 q 124 82 175 -12 q 69 325 72 176 q 78 536 69 431 q 106 800 88 642 q 115 879 110 826 q 125 915 118 907 q 149 928 132 924 q 183 933 179 933 q 199 927 196 933 q 200 904 201 921 l 188 788 q 163 544 171 640 q 154 351 154 449 q 189 146 154 221 q 304 71 224 71 q 438 143 389 71 q 506 310 486 215 q 542 536 526 404 l 547 583 m 453 1061 l 507 1018 q 526 1008 522 1008 q 550 1025 536 1008 q 557 1033 551 1026 q 563 1046 563 1040 q 549 1067 563 1054 q 438 1175 497 1113 q 418 1186 426 1186 q 403 1179 413 1186 l 378 1156 q 267 1065 322 1106 q 249 1044 249 1053 q 260 1024 249 1039 q 272 1010 267 1015 q 283 1004 278 1004 q 301 1013 289 1004 l 378 1063 q 400 1078 390 1071 q 418 1090 410 1085 l 453 1061 z "},"Ü":{"ha":693,"x_min":69,"x_max":656,"o":"m 547 583 q 564 790 557 657 l 569 879 q 576 915 571 907 q 599 928 582 924 q 635 933 629 933 q 651 927 647 933 q 654 904 656 921 q 632 597 644 736 q 587 286 611 404 q 493 77 563 168 q 293 -14 424 -14 q 124 82 175 -12 q 69 325 72 176 q 78 536 69 431 q 106 800 88 642 q 115 879 110 826 q 125 915 118 907 q 149 928 132 924 q 183 933 179 933 q 199 927 196 933 q 200 904 201 921 l 188 788 q 163 544 171 640 q 154 351 154 449 q 189 146 154 221 q 304 71 224 71 q 438 143 389 71 q 506 310 486 215 q 542 536 526 404 l 547 583 m 328 1142 q 356 1130 346 1142 q 365 1099 365 1118 q 347 1038 365 1063 q 303 1014 329 1014 q 275 1026 285 1014 q 265 1060 265 1039 q 283 1119 265 1096 q 328 1142 301 1142 m 525 1142 q 553 1130 543 1142 q 563 1099 563 1118 q 544 1038 563 1063 q 500 1014 526 1014 q 472 1026 482 1014 q 463 1060 463 1039 q 481 1119 463 1096 q 525 1142 499 1142 z "},"Ý":{"ha":628,"x_min":79,"x_max":624,"o":"m 586 931 q 602 926 590 929 q 619 920 614 924 q 624 910 624 917 q 619 893 624 903 q 423 443 538 703 q 228 4 308 183 q 199 -15 218 -15 q 178 -11 190 -15 q 149 19 149 3 q 153 33 149 25 l 290 344 l 82 885 q 79 899 79 896 q 111 926 79 917 q 136 931 128 931 q 160 913 154 931 l 335 444 q 539 913 497 807 q 550 928 544 924 q 565 933 556 933 q 586 931 569 933 m 242 1069 q 356 1097 311 1079 q 440 1144 400 1114 q 457 1153 451 1153 q 481 1132 467 1153 q 500 1093 500 1101 q 489 1078 500 1086 q 388 1029 450 1050 q 274 1008 325 1008 q 249 1014 256 1008 q 233 1039 243 1019 q 228 1057 228 1050 q 231 1066 228 1064 q 242 1069 235 1068 z "},"Þ":{"ha":633,"x_min":43,"x_max":599,"o":"m 208 726 q 310 733 254 733 q 529 665 460 733 q 599 496 599 597 q 494 281 599 364 q 150 207 389 199 l 132 42 q 123 8 131 15 q 96 -6 115 0 q 63 -11 75 -11 q 47 -5 50 -11 q 46 18 43 1 l 143 879 q 153 915 146 907 q 176 928 160 924 q 211 933 207 933 q 226 927 224 933 q 228 904 229 921 l 208 726 m 160 290 q 427 340 343 282 q 511 496 511 399 q 454 613 511 574 q 304 653 397 653 q 199 642 257 653 l 160 290 z "},"ß":{"ha":544,"x_min":4,"x_max":514,"o":"m 56 465 q 28 209 43 357 q 8 -19 14 61 q 4 -83 4 -60 l 4 -92 q 10 -124 4 -115 q 31 -133 15 -133 q 51 -132 43 -133 q 88 -107 86 -128 q 99 93 93 25 l 104 163 q 132 457 121 363 l 149 603 q 197 735 164 696 q 300 775 229 775 q 378 739 350 775 q 407 643 407 703 q 365 528 407 582 q 225 460 322 474 q 203 452 208 457 q 199 432 199 447 q 203 391 199 400 q 229 383 208 382 q 325 369 278 386 q 403 316 372 353 q 433 222 433 279 q 387 103 433 150 q 222 64 340 57 q 197 58 203 65 q 190 29 192 50 l 189 11 q 194 -8 189 -1 q 215 -15 200 -14 q 445 49 376 -24 q 514 226 514 121 q 467 358 514 303 q 347 428 421 413 q 453 525 421 467 q 486 644 486 583 q 438 794 485 735 q 307 853 392 853 q 136 785 190 853 q 67 569 82 717 l 56 465 z "},"à":{"ha":558,"x_min":40,"x_max":538,"o":"m 497 115 q 524 95 510 115 q 538 58 538 75 q 517 31 538 47 q 469 3 497 15 q 414 -10 440 -10 q 363 22 379 -10 q 347 93 347 53 q 276 14 314 40 q 186 -12 238 -12 q 80 53 119 -11 q 40 229 40 117 q 72 424 42 333 q 158 570 101 515 q 293 625 214 625 q 401 581 347 625 l 401 585 q 410 620 404 613 q 435 632 417 628 q 471 638 468 638 q 489 631 485 638 q 490 607 493 624 q 422 56 422 156 q 472 97 443 68 q 497 115 490 115 m 369 333 q 392 504 389 467 q 348 535 369 525 q 299 546 326 546 q 196 492 235 546 q 141 365 157 438 q 124 232 125 293 q 206 69 124 69 q 309 142 264 69 q 369 333 354 215 m 453 729 q 436 703 442 710 q 413 699 431 697 q 294 729 353 701 q 197 796 236 757 q 188 814 188 806 q 206 850 188 824 q 229 872 219 872 q 246 863 236 872 q 330 800 285 822 q 446 764 375 778 q 460 751 460 761 q 453 729 460 742 z "},"á":{"ha":558,"x_min":40,"x_max":538,"o":"m 497 115 q 524 95 510 115 q 538 58 538 75 q 517 31 538 47 q 469 3 497 15 q 414 -10 440 -10 q 363 22 379 -10 q 347 93 347 53 q 276 14 314 40 q 186 -12 238 -12 q 80 53 119 -11 q 40 229 40 117 q 72 424 42 333 q 158 570 101 515 q 293 625 214 625 q 401 581 347 625 l 401 585 q 410 620 404 613 q 435 632 417 628 q 471 638 468 638 q 489 631 485 638 q 490 607 493 624 q 422 56 422 156 q 472 97 443 68 q 497 115 490 115 m 369 333 q 392 504 389 467 q 348 535 369 525 q 299 546 326 546 q 196 492 235 546 q 141 365 157 438 q 124 232 125 293 q 206 69 124 69 q 309 142 264 69 q 369 333 354 215 m 410 863 q 426 872 419 872 q 450 850 436 872 q 468 814 468 824 q 458 796 468 806 q 361 729 419 757 q 243 699 303 701 q 219 703 225 697 q 203 729 214 710 q 196 751 196 742 q 210 764 196 761 q 326 800 281 778 q 410 863 371 822 z "},"â":{"ha":558,"x_min":40,"x_max":538,"o":"m 497 115 q 524 95 510 115 q 538 58 538 75 q 517 31 538 47 q 469 3 497 15 q 414 -10 440 -10 q 363 22 379 -10 q 347 93 347 53 q 276 14 314 40 q 186 -12 238 -12 q 80 53 119 -11 q 40 229 40 117 q 72 424 42 333 q 158 570 101 515 q 293 625 214 625 q 401 581 347 625 l 401 585 q 410 620 404 613 q 435 632 417 628 q 471 638 468 638 q 489 631 485 638 q 490 607 493 624 q 422 56 422 156 q 472 97 443 68 q 497 115 490 115 m 369 333 q 392 504 389 467 q 348 535 369 525 q 299 546 326 546 q 196 492 235 546 q 141 365 157 438 q 124 232 125 293 q 206 69 124 69 q 309 142 264 69 q 369 333 354 215 m 350 765 l 422 708 q 442 699 438 699 q 465 715 451 699 q 472 724 467 717 q 478 736 478 731 q 464 757 478 744 q 405 810 433 782 q 346 872 376 839 q 326 883 335 883 q 311 876 321 883 q 240 813 265 835 q 165 757 214 792 q 147 736 147 744 q 158 715 147 731 q 181 697 172 697 q 200 704 186 697 q 326 785 238 725 l 350 765 z "},"ã":{"ha":558,"x_min":40,"x_max":538,"o":"m 497 115 q 524 95 510 115 q 538 58 538 75 q 517 31 538 47 q 469 3 497 15 q 414 -10 440 -10 q 363 22 379 -10 q 347 93 347 53 q 276 14 314 40 q 186 -12 238 -12 q 80 53 119 -11 q 40 229 40 117 q 72 424 42 333 q 158 570 101 515 q 293 625 214 625 q 401 581 347 625 l 401 585 q 410 620 404 613 q 435 632 417 628 q 471 638 468 638 q 489 631 485 638 q 490 607 493 624 q 422 56 422 156 q 472 97 443 68 q 497 115 490 115 m 369 333 q 392 504 389 467 q 348 535 369 525 q 299 546 326 546 q 196 492 235 546 q 141 365 157 438 q 124 232 125 293 q 206 69 124 69 q 309 142 264 69 q 369 333 354 215 m 232 768 q 202 760 215 768 q 171 733 189 751 q 151 722 160 722 q 126 738 142 722 q 111 753 117 746 q 106 765 106 760 q 115 785 106 774 q 172 829 143 815 q 233 843 200 843 q 303 821 268 843 q 322 808 307 818 q 353 792 338 797 q 385 786 369 786 q 434 803 410 786 q 483 850 458 821 q 499 861 494 861 q 510 855 504 861 q 522 839 515 849 q 538 807 538 817 q 526 786 538 797 q 379 711 457 711 q 335 720 356 711 q 290 744 314 729 q 257 763 269 757 q 232 768 244 768 z "},"ä":{"ha":558,"x_min":40,"x_max":538,"o":"m 497 115 q 524 95 510 115 q 538 58 538 75 q 517 31 538 47 q 469 3 497 15 q 414 -10 440 -10 q 363 22 379 -10 q 347 93 347 53 q 276 14 314 40 q 186 -12 238 -12 q 80 53 119 -11 q 40 229 40 117 q 72 424 42 333 q 158 570 101 515 q 293 625 214 625 q 401 581 347 625 l 401 585 q 410 620 404 613 q 435 632 417 628 q 471 638 468 638 q 489 631 485 638 q 490 607 493 624 q 422 56 422 156 q 472 97 443 68 q 497 115 490 115 m 369 333 q 392 504 389 467 q 348 535 369 525 q 299 546 326 546 q 196 492 235 546 q 141 365 157 438 q 124 232 125 293 q 206 69 124 69 q 309 142 264 69 q 369 333 354 215 m 250 832 q 278 820 268 832 q 288 789 288 808 q 269 728 288 753 q 225 704 251 704 q 197 717 207 704 q 188 750 188 729 q 206 809 188 786 q 250 832 224 832 m 447 832 q 475 820 465 832 q 485 789 485 808 q 467 728 485 753 q 422 704 449 704 q 394 717 404 704 q 385 750 385 729 q 403 809 385 786 q 447 832 421 832 z "},"å":{"ha":558,"x_min":40,"x_max":538,"o":"m 497 115 q 524 95 510 115 q 538 58 538 75 q 517 31 538 47 q 469 3 497 15 q 414 -10 440 -10 q 363 22 379 -10 q 347 93 347 53 q 276 14 314 40 q 186 -12 238 -12 q 80 53 119 -11 q 40 229 40 117 q 72 424 42 333 q 158 570 101 515 q 293 625 214 625 q 401 581 347 625 l 401 585 q 410 620 404 613 q 435 632 417 628 q 471 638 468 638 q 489 631 485 638 q 490 607 493 624 q 422 56 422 156 q 472 97 443 68 q 497 115 490 115 m 369 333 q 392 504 389 467 q 348 535 369 525 q 299 546 326 546 q 196 492 235 546 q 141 365 157 438 q 124 232 125 293 q 206 69 124 69 q 309 142 264 69 q 369 333 354 215 m 317 697 q 254 726 275 697 q 233 794 233 756 q 267 894 233 856 q 353 932 301 932 q 415 902 394 932 q 435 833 435 872 q 401 735 435 774 q 317 697 367 697 m 293 796 q 301 769 293 781 q 325 758 308 758 q 360 779 346 758 q 375 832 375 800 q 367 858 375 847 q 343 869 360 869 q 308 849 322 869 q 293 796 293 828 z "},"æ":{"ha":747,"x_min":19,"x_max":726,"o":"m 672 143 q 690 121 690 132 q 685 104 690 114 q 608 17 653 49 q 497 -14 564 -14 q 346 93 388 -12 q 161 -14 275 -14 q 53 30 86 -14 q 19 131 19 74 q 104 292 19 231 q 339 368 189 354 l 339 393 q 315 506 339 464 q 242 547 292 547 q 133 475 174 547 q 107 456 122 456 q 92 460 100 456 l 74 469 q 56 492 56 481 q 61 508 56 499 q 138 595 93 564 q 249 626 182 626 q 400 519 358 625 q 585 626 471 626 q 693 583 660 626 q 726 482 726 539 q 642 320 726 382 q 407 244 557 258 l 407 219 q 431 107 407 149 q 504 65 454 65 q 613 138 572 65 q 639 157 624 157 q 654 153 646 157 l 672 143 m 578 546 q 472 483 511 546 q 417 328 433 419 q 642 472 642 350 q 578 546 642 546 m 168 67 q 274 130 235 67 q 329 285 313 193 q 104 140 104 263 q 168 67 104 67 z "},"ç":{"ha":447,"x_min":40,"x_max":432,"o":"m 426 533 q 432 511 432 522 q 413 489 432 497 l 392 481 q 375 476 381 476 q 353 496 364 476 q 325 533 340 522 q 286 544 310 544 q 187 489 224 544 q 136 358 150 433 q 122 219 122 283 q 226 65 122 65 q 288 86 261 65 q 331 138 314 107 q 356 157 342 157 q 372 153 364 157 l 389 143 q 407 119 407 131 q 401 101 407 111 q 334 21 376 51 q 233 -14 292 -10 l 213 -61 q 281 -89 253 -65 q 308 -156 308 -112 q 158 -286 308 -258 q 144 -287 153 -287 q 111 -269 125 -287 q 97 -239 97 -250 q 111 -225 97 -226 q 208 -199 181 -214 q 236 -160 236 -183 q 225 -136 236 -143 q 197 -129 214 -129 q 167 -133 183 -129 q 156 -135 163 -135 q 142 -128 147 -135 q 133 -106 138 -122 q 132 -76 129 -83 l 163 -6 q 72 72 101 14 q 40 211 42 129 q 104 507 40 388 q 293 626 168 626 q 372 601 338 625 q 426 533 407 578 z "},"è":{"ha":458,"x_min":40,"x_max":442,"o":"m 388 143 q 406 119 406 131 q 400 101 406 111 q 324 17 369 47 q 213 -14 279 -14 q 84 49 126 -12 q 40 211 42 111 q 69 418 40 324 q 157 569 99 513 q 300 626 215 626 q 408 583 375 626 q 442 482 442 539 q 357 320 442 382 q 122 244 272 258 l 122 219 q 146 107 122 149 q 219 65 169 65 q 281 83 258 65 q 328 138 304 101 q 353 157 339 157 q 369 153 361 157 l 388 143 m 293 546 q 188 483 226 546 q 132 328 149 419 q 357 472 357 350 q 293 546 357 546 m 417 729 q 400 703 406 710 q 376 699 394 697 q 258 729 317 701 q 161 796 200 757 q 151 814 151 806 q 169 850 151 824 q 193 872 183 872 q 210 863 200 872 q 294 800 249 822 q 410 764 339 778 q 424 751 424 761 q 417 729 424 742 z "},"é":{"ha":458,"x_min":40,"x_max":442,"o":"m 388 143 q 406 119 406 131 q 400 101 406 111 q 324 17 369 47 q 213 -14 279 -14 q 84 49 126 -12 q 40 211 42 111 q 69 418 40 324 q 157 569 99 513 q 300 626 215 626 q 408 583 375 626 q 442 482 442 539 q 357 320 442 382 q 122 244 272 258 l 122 219 q 146 107 122 149 q 219 65 169 65 q 281 83 258 65 q 328 138 304 101 q 353 157 339 157 q 369 153 361 157 l 388 143 m 293 546 q 188 483 226 546 q 132 328 149 419 q 357 472 357 350 q 293 546 357 546 m 374 863 q 390 872 383 872 q 414 850 400 872 q 432 814 432 824 q 422 796 432 806 q 325 729 383 757 q 207 699 267 701 q 183 703 189 697 q 167 729 178 710 q 160 751 160 742 q 174 764 160 761 q 290 800 244 778 q 374 863 335 822 z "},"ê":{"ha":458,"x_min":40,"x_max":442,"o":"m 388 143 q 406 119 406 131 q 400 101 406 111 q 324 17 369 47 q 213 -14 279 -14 q 84 49 126 -12 q 40 211 42 111 q 69 418 40 324 q 157 569 99 513 q 300 626 215 626 q 408 583 375 626 q 442 482 442 539 q 357 320 442 382 q 122 244 272 258 l 122 219 q 146 107 122 149 q 219 65 169 65 q 281 83 258 65 q 328 138 304 101 q 353 157 339 157 q 369 153 361 157 l 388 143 m 293 546 q 188 483 226 546 q 132 328 149 419 q 357 472 357 350 q 293 546 357 546 m 314 765 l 386 708 q 406 699 401 699 q 429 715 415 699 q 436 724 431 717 q 442 736 442 731 q 428 757 442 744 q 369 810 397 782 q 310 872 340 839 q 290 883 299 883 q 275 876 285 883 q 203 813 229 835 q 129 757 178 792 q 111 736 111 744 q 122 715 111 731 q 144 697 136 697 q 164 704 150 697 q 290 785 201 725 l 314 765 z "},"ë":{"ha":458,"x_min":40,"x_max":449,"o":"m 388 143 q 406 119 406 131 q 400 101 406 111 q 324 17 369 47 q 213 -14 279 -14 q 84 49 126 -12 q 40 211 42 111 q 69 418 40 324 q 157 569 99 513 q 300 626 215 626 q 408 583 375 626 q 442 482 442 539 q 357 320 442 382 q 122 244 272 258 l 122 219 q 146 107 122 149 q 219 65 169 65 q 281 83 258 65 q 328 138 304 101 q 353 157 339 157 q 369 153 361 157 l 388 143 m 293 546 q 188 483 226 546 q 132 328 149 419 q 357 472 357 350 q 293 546 357 546 m 214 832 q 242 820 232 832 q 251 789 251 808 q 233 728 251 753 q 189 704 215 704 q 161 717 171 704 q 151 750 151 729 q 169 809 151 786 q 214 832 188 832 m 411 832 q 439 820 429 832 q 449 789 449 808 q 431 728 449 753 q 386 704 413 704 q 358 717 368 704 q 349 750 349 729 q 367 809 349 786 q 411 832 385 832 z "},"ì":{"ha":225,"x_min":18,"x_max":290,"o":"m 96 -7 q 123 3 117 -1 q 131 26 129 7 q 143 218 136 142 q 190 600 158 396 q 189 622 193 615 q 174 629 185 629 q 139 624 160 629 q 116 611 122 619 q 107 576 110 603 q 47 29 47 124 q 52 -1 47 7 q 72 -10 57 -10 q 96 -7 76 -10 m 283 729 q 267 703 272 710 q 243 699 261 697 q 125 729 183 701 q 28 796 67 757 q 18 814 18 806 q 36 850 18 824 q 60 872 50 872 q 76 863 67 872 q 160 800 115 822 q 276 764 206 778 q 290 751 290 761 q 283 729 290 742 z "},"í":{"ha":225,"x_min":26,"x_max":299,"o":"m 96 -7 q 123 3 117 -1 q 131 26 129 7 q 143 218 136 142 q 190 600 158 396 q 189 622 193 615 q 174 629 185 629 q 139 624 160 629 q 116 611 122 619 q 107 576 110 603 q 47 29 47 124 q 52 -1 47 7 q 72 -10 57 -10 q 96 -7 76 -10 m 240 863 q 257 872 250 872 q 281 850 267 872 q 299 814 299 824 q 289 796 299 806 q 192 729 250 757 q 74 699 133 701 q 50 703 56 697 q 33 729 44 710 q 26 751 26 742 q 40 764 26 761 q 156 800 111 778 q 240 863 201 822 z "},"î":{"ha":225,"x_min":-22,"x_max":308,"o":"m 96 -7 q 123 3 117 -1 q 131 26 129 7 q 143 218 136 142 q 190 600 158 396 q 189 622 193 615 q 174 629 185 629 q 139 624 160 629 q 116 611 122 619 q 107 576 110 603 q 47 29 47 124 q 52 -1 47 7 q 72 -10 57 -10 q 96 -7 76 -10 m 181 765 l 253 708 q 272 699 268 699 q 296 715 282 699 q 303 724 297 717 q 308 736 308 731 q 294 757 308 744 q 235 810 264 782 q 176 872 207 839 q 157 883 165 883 q 142 876 151 883 q 70 813 96 835 q -4 757 44 792 q -22 736 -22 744 q -11 715 -22 731 q 11 697 3 697 q 31 704 17 697 q 157 785 68 725 l 181 765 z "},"ï":{"ha":225,"x_min":18,"x_max":315,"o":"m 96 -7 q 123 3 117 -1 q 131 26 129 7 q 143 218 136 142 q 190 600 158 396 q 189 622 193 615 q 174 629 185 629 q 139 624 160 629 q 116 611 122 619 q 107 576 110 603 q 47 29 47 124 q 52 -1 47 7 q 72 -10 57 -10 q 96 -7 76 -10 m 81 832 q 108 820 99 832 q 118 789 118 808 q 100 728 118 753 q 56 704 82 704 q 28 717 38 704 q 18 750 18 729 q 36 809 18 786 q 81 832 54 832 m 278 832 q 306 820 296 832 q 315 789 315 808 q 297 728 315 753 q 253 704 279 704 q 225 717 235 704 q 215 750 215 729 q 233 809 215 786 q 278 832 251 832 z "},"ð":{"ha":499,"x_min":40,"x_max":472,"o":"m 464 851 q 472 826 472 835 q 467 816 472 821 q 456 807 463 811 l 356 758 q 431 590 404 681 q 457 413 457 500 q 391 108 457 229 q 199 -14 325 -14 q 84 49 126 -12 q 40 200 42 111 q 69 394 40 304 q 157 540 99 485 q 300 594 215 594 q 357 576 329 594 q 289 726 333 661 l 176 672 q 158 667 163 667 q 135 690 146 667 q 126 715 126 707 q 131 726 126 721 q 143 735 136 731 l 243 783 q 139 865 193 833 q 124 885 124 875 q 139 914 124 894 q 151 928 144 922 q 164 933 157 933 q 183 926 169 933 q 313 817 256 883 l 422 869 q 440 875 436 875 q 464 851 453 875 m 206 65 q 306 122 268 65 q 360 255 344 179 q 376 393 376 331 q 355 481 376 443 q 293 519 333 519 q 192 465 231 519 q 138 339 154 410 q 122 219 122 268 q 143 108 122 150 q 206 65 164 65 z "},"ñ":{"ha":540,"x_min":39,"x_max":532,"o":"m 42 18 q 83 350 68 214 q 99 578 99 486 q 105 613 99 606 q 132 625 111 621 q 168 631 165 631 q 185 624 181 631 q 188 600 189 618 l 182 522 q 350 626 254 626 q 441 589 404 626 q 478 471 478 551 q 472 344 478 407 q 451 167 465 282 l 436 42 q 426 8 433 15 q 400 -6 418 0 q 367 -11 372 -11 q 350 -4 354 -11 q 349 19 346 3 l 353 53 q 393 443 393 353 q 378 522 393 497 q 331 546 364 546 q 257 509 294 546 q 192 413 219 472 q 156 289 164 353 l 125 42 q 115 6 121 14 q 90 -6 108 -1 q 57 -11 63 -11 q 42 -5 46 -11 q 42 18 39 1 m 226 768 q 197 760 210 768 q 165 733 183 751 q 146 722 154 722 q 121 738 136 722 q 106 753 111 746 q 100 765 100 760 q 110 785 100 774 q 166 829 138 815 q 228 843 194 843 q 297 821 263 843 q 317 808 301 818 q 348 792 332 797 q 379 786 364 786 q 428 803 404 786 q 478 850 453 821 q 493 861 489 861 q 504 855 499 861 q 517 839 510 849 q 532 807 532 817 q 521 786 532 797 q 374 711 451 711 q 329 720 350 711 q 285 744 308 729 q 251 763 264 757 q 226 768 239 768 z "},"ò":{"ha":499,"x_min":40,"x_max":458,"o":"m 300 626 q 415 563 372 625 q 458 413 457 501 q 429 198 458 294 q 342 44 400 101 q 199 -14 283 -14 q 84 49 126 -12 q 40 200 42 111 q 69 415 40 318 q 157 569 99 511 q 300 626 215 626 m 206 65 q 306 122 268 65 q 360 255 344 179 q 376 393 376 331 q 356 503 376 463 q 293 544 335 544 q 192 488 231 544 q 138 357 154 432 q 122 219 122 282 q 143 108 122 150 q 206 65 164 65 m 436 729 q 419 703 425 710 q 396 699 414 697 q 278 729 336 701 q 181 796 219 757 q 171 814 171 806 q 189 850 171 824 q 213 872 203 872 q 229 863 219 872 q 313 800 268 822 q 429 764 358 778 q 443 751 443 761 q 436 729 443 742 z "},"ó":{"ha":499,"x_min":40,"x_max":458,"o":"m 300 626 q 415 563 372 625 q 458 413 457 501 q 429 198 458 294 q 342 44 400 101 q 199 -14 283 -14 q 84 49 126 -12 q 40 200 42 111 q 69 415 40 318 q 157 569 99 511 q 300 626 215 626 m 206 65 q 306 122 268 65 q 360 255 344 179 q 376 393 376 331 q 356 503 376 463 q 293 544 335 544 q 192 488 231 544 q 138 357 154 432 q 122 219 122 282 q 143 108 122 150 q 206 65 164 65 m 393 863 q 410 872 403 872 q 433 850 419 872 q 451 814 451 824 q 442 796 451 806 q 344 729 403 757 q 226 699 286 701 q 203 703 208 697 q 186 729 197 710 q 179 751 179 742 q 193 764 179 761 q 309 800 264 778 q 393 863 354 822 z "},"ô":{"ha":499,"x_min":40,"x_max":461,"o":"m 300 626 q 415 563 372 625 q 458 413 457 501 q 429 198 458 294 q 342 44 400 101 q 199 -14 283 -14 q 84 49 126 -12 q 40 200 42 111 q 69 415 40 318 q 157 569 99 511 q 300 626 215 626 m 206 65 q 306 122 268 65 q 360 255 344 179 q 376 393 376 331 q 356 503 376 463 q 293 544 335 544 q 192 488 231 544 q 138 357 154 432 q 122 219 122 282 q 143 108 122 150 q 206 65 164 65 m 333 765 l 406 708 q 425 699 421 699 q 449 715 435 699 q 456 724 450 717 q 461 736 461 731 q 447 757 461 744 q 388 810 417 782 q 329 872 360 839 q 310 883 318 883 q 294 876 304 883 q 223 813 249 835 q 149 757 197 792 q 131 736 131 744 q 142 715 131 731 q 164 697 156 697 q 183 704 169 697 q 310 785 221 725 l 333 765 z "},"õ":{"ha":499,"x_min":40,"x_max":521,"o":"m 300 626 q 415 563 372 625 q 458 413 457 501 q 429 198 458 294 q 342 44 400 101 q 199 -14 283 -14 q 84 49 126 -12 q 40 200 42 111 q 69 415 40 318 q 157 569 99 511 q 300 626 215 626 m 206 65 q 306 122 268 65 q 360 255 344 179 q 376 393 376 331 q 356 503 376 463 q 293 544 335 544 q 192 488 231 544 q 138 357 154 432 q 122 219 122 282 q 143 108 122 150 q 206 65 164 65 m 215 768 q 185 760 199 768 q 154 733 172 751 q 135 722 143 722 q 110 738 125 722 q 94 753 100 746 q 89 765 89 760 q 99 785 89 774 q 155 829 126 815 q 217 843 183 843 q 286 821 251 843 q 306 808 290 818 q 337 792 321 797 q 368 786 353 786 q 417 803 393 786 q 467 850 442 821 q 482 861 478 861 q 493 855 488 861 q 506 839 499 849 q 521 807 521 817 q 510 786 521 797 q 363 711 440 711 q 318 720 339 711 q 274 744 297 729 q 240 763 253 757 q 215 768 228 768 z "},"ö":{"ha":499,"x_min":40,"x_max":468,"o":"m 300 626 q 415 563 372 625 q 458 413 457 501 q 429 198 458 294 q 342 44 400 101 q 199 -14 283 -14 q 84 49 126 -12 q 40 200 42 111 q 69 415 40 318 q 157 569 99 511 q 300 626 215 626 m 206 65 q 306 122 268 65 q 360 255 344 179 q 376 393 376 331 q 356 503 376 463 q 293 544 335 544 q 192 488 231 544 q 138 357 154 432 q 122 219 122 282 q 143 108 122 150 q 206 65 164 65 m 233 832 q 261 820 251 832 q 271 789 271 808 q 253 728 271 753 q 208 704 235 704 q 181 717 190 704 q 171 750 171 729 q 189 809 171 786 q 233 832 207 832 m 431 832 q 458 820 449 832 q 468 789 468 808 q 450 728 468 753 q 406 704 432 704 q 378 717 388 704 q 368 750 368 729 q 386 809 368 786 q 431 832 404 832 z "},"÷":{"ha":522,"x_min":21,"x_max":501,"o":"m 294 671 q 325 658 314 671 q 336 624 336 646 q 317 557 336 583 q 268 531 297 531 q 238 544 249 531 q 226 581 226 557 q 246 645 226 619 q 294 671 265 671 m 50 375 q 28 380 35 375 q 21 396 21 385 q 24 415 21 399 q 40 444 31 439 q 82 453 50 450 l 472 471 q 495 468 489 472 q 501 453 501 464 l 499 428 q 481 400 492 406 q 440 392 471 394 l 50 375 m 253 308 q 283 296 272 308 q 294 261 294 283 q 275 194 294 221 q 226 168 256 168 q 196 181 207 168 q 185 218 185 194 q 204 283 185 257 q 253 308 224 308 z "},"ø":{"ha":499,"x_min":-7,"x_max":514,"o":"m 490 657 q 514 629 514 642 q 508 614 514 621 l 440 514 q 458 413 458 464 q 429 198 458 294 q 342 44 400 101 q 199 -14 283 -14 q 106 24 146 -14 l 64 -39 q 43 -53 54 -53 q 15 -42 33 -53 q -7 -14 -7 -28 q -1 3 -7 -4 l 60 93 q 40 200 40 143 q 69 415 40 318 q 157 569 99 511 q 300 626 215 626 q 396 586 356 626 l 442 654 q 463 668 451 668 q 490 657 472 668 m 121 219 q 122 185 121 196 l 350 518 q 293 544 329 544 q 192 488 231 544 q 137 357 153 432 q 121 219 121 282 m 376 421 l 151 90 q 206 65 172 65 q 307 122 268 65 q 362 255 346 179 q 378 393 378 331 l 376 421 z "},"ù":{"ha":526,"x_min":56,"x_max":494,"o":"m 361 106 q 290 18 333 50 q 196 -14 247 -14 q 94 26 133 -14 q 56 143 56 65 q 62 269 56 207 q 82 447 68 332 l 97 572 q 108 606 100 599 q 133 619 115 614 q 164 625 161 625 q 181 618 176 625 q 182 594 185 611 l 178 563 q 156 388 175 542 q 139 165 138 235 q 208 68 139 68 q 319 137 275 68 q 378 325 364 206 l 408 572 q 417 606 410 599 q 443 619 425 614 q 476 625 471 625 q 491 619 488 625 q 492 596 494 613 q 481 494 492 581 q 449 219 461 350 q 438 18 443 151 q 404 -7 436 -1 q 383 -10 388 -10 q 361 1 367 -10 q 357 42 356 13 q 361 106 357 67 m 431 729 q 414 703 419 710 q 390 699 408 697 q 272 729 331 701 q 175 796 214 757 q 165 814 165 806 q 183 850 165 824 q 207 872 197 872 q 224 863 214 872 q 308 800 263 822 q 424 764 353 778 q 438 751 438 761 q 431 729 438 742 z "},"ú":{"ha":526,"x_min":56,"x_max":494,"o":"m 361 106 q 290 18 333 50 q 196 -14 247 -14 q 94 26 133 -14 q 56 143 56 65 q 62 269 56 207 q 82 447 68 332 l 97 572 q 108 606 100 599 q 133 619 115 614 q 164 625 161 625 q 181 618 176 625 q 182 594 185 611 l 178 563 q 156 388 175 542 q 139 165 138 235 q 208 68 139 68 q 319 137 275 68 q 378 325 364 206 l 408 572 q 417 606 410 599 q 443 619 425 614 q 476 625 471 625 q 491 619 488 625 q 492 596 494 613 q 481 494 492 581 q 449 219 461 350 q 438 18 443 151 q 404 -7 436 -1 q 383 -10 388 -10 q 361 1 367 -10 q 357 42 356 13 q 361 106 357 67 m 388 863 q 404 872 397 872 q 428 850 414 872 q 446 814 446 824 q 436 796 446 806 q 339 729 397 757 q 221 699 281 701 q 197 703 203 697 q 181 729 192 710 q 174 751 174 742 q 188 764 174 761 q 303 800 258 778 q 388 863 349 822 z "},"û":{"ha":526,"x_min":56,"x_max":494,"o":"m 361 106 q 290 18 333 50 q 196 -14 247 -14 q 94 26 133 -14 q 56 143 56 65 q 62 269 56 207 q 82 447 68 332 l 97 572 q 108 606 100 599 q 133 619 115 614 q 164 625 161 625 q 181 618 176 625 q 182 594 185 611 l 178 563 q 156 388 175 542 q 139 165 138 235 q 208 68 139 68 q 319 137 275 68 q 378 325 364 206 l 408 572 q 417 606 410 599 q 443 619 425 614 q 476 625 471 625 q 491 619 488 625 q 492 596 494 613 q 481 494 492 581 q 449 219 461 350 q 438 18 443 151 q 404 -7 436 -1 q 383 -10 388 -10 q 361 1 367 -10 q 357 42 356 13 q 361 106 357 67 m 328 765 l 400 708 q 419 699 415 699 q 443 715 429 699 q 450 724 444 717 q 456 736 456 731 q 442 757 456 744 q 383 810 411 782 q 324 872 354 839 q 304 883 313 883 q 289 876 299 883 q 217 813 243 835 q 143 757 192 792 q 125 736 125 744 q 136 715 125 731 q 158 697 150 697 q 178 704 164 697 q 304 785 215 725 l 328 765 z "},"ü":{"ha":526,"x_min":56,"x_max":494,"o":"m 361 106 q 290 18 333 50 q 196 -14 247 -14 q 94 26 133 -14 q 56 143 56 65 q 62 269 56 207 q 82 447 68 332 l 97 572 q 108 606 100 599 q 133 619 115 614 q 164 625 161 625 q 181 618 176 625 q 182 594 185 611 l 178 563 q 156 388 175 542 q 139 165 138 235 q 208 68 139 68 q 319 137 275 68 q 378 325 364 206 l 408 572 q 417 606 410 599 q 443 619 425 614 q 476 625 471 625 q 491 619 488 625 q 492 596 494 613 q 481 494 492 581 q 449 219 461 350 q 438 18 443 151 q 404 -7 436 -1 q 383 -10 388 -10 q 361 1 367 -10 q 357 42 356 13 q 361 106 357 67 m 228 832 q 256 820 246 832 q 265 789 265 808 q 247 728 265 753 q 203 704 229 704 q 175 717 185 704 q 165 750 165 729 q 183 809 165 786 q 228 832 201 832 m 425 832 q 453 820 443 832 q 463 789 463 808 q 444 728 463 753 q 400 704 426 704 q 372 717 382 704 q 363 750 363 729 q 381 809 363 786 q 425 832 399 832 z "},"ý":{"ha":528,"x_min":7,"x_max":493,"o":"m 360 106 q 333 -68 349 -4 q 287 -165 317 -132 q 206 -197 257 -197 q 137 -185 164 -197 q 74 -140 110 -172 q 50 -128 58 -128 q 24 -147 39 -128 q 7 -181 7 -168 q 25 -207 7 -193 q 109 -259 68 -242 q 197 -278 150 -276 q 337 -227 288 -278 q 409 -74 386 -176 q 447 219 432 29 q 481 514 456 324 q 490 596 490 592 q 490 619 493 613 q 475 625 486 625 q 442 619 469 625 q 416 606 424 614 q 407 572 408 599 l 376 325 q 318 137 363 206 q 207 68 274 68 q 138 171 138 68 q 154 375 138 232 q 181 594 171 518 q 179 618 183 611 q 163 625 175 625 q 132 619 160 625 q 106 606 114 614 q 96 572 99 599 l 81 447 q 60 269 67 332 q 54 143 54 207 q 93 26 54 65 q 194 -14 132 -14 q 289 18 246 -14 q 360 106 332 50 m 386 863 q 403 872 396 872 q 426 850 413 872 q 444 814 444 824 q 435 796 444 806 q 338 729 396 757 q 219 699 279 701 q 196 703 201 697 q 179 729 190 710 q 172 751 172 742 q 186 764 172 761 q 302 800 257 778 q 386 863 347 822 z "},"þ":{"ha":528,"x_min":3,"x_max":489,"o":"m 343 626 q 450 570 411 626 q 489 415 489 514 q 460 203 489 301 q 373 47 431 106 q 236 -11 315 -11 q 125 24 178 -11 q 93 -225 104 -121 q 84 -260 90 -251 q 61 -272 78 -268 q 24 -278 39 -278 q 7 -272 11 -278 q 4 -249 3 -265 q 42 24 13 -181 l 92 385 l 113 567 q 135 753 121 633 q 157 935 149 874 q 166 969 160 961 q 189 982 172 978 q 222 988 210 988 q 238 981 235 988 q 240 958 242 975 q 183 519 201 674 q 254 600 218 574 q 343 626 290 626 m 229 68 q 334 128 294 68 q 390 269 374 189 q 407 410 407 349 q 388 507 407 469 q 331 544 368 544 q 236 483 276 544 q 172 328 196 422 q 135 100 147 229 q 183 76 161 83 q 229 68 204 68 z "},"ÿ":{"ha":528,"x_min":7,"x_max":493,"o":"m 360 106 q 333 -68 349 -4 q 287 -165 317 -132 q 206 -197 257 -197 q 137 -185 164 -197 q 74 -140 110 -172 q 50 -128 58 -128 q 24 -147 39 -128 q 7 -181 7 -168 q 25 -207 7 -193 q 109 -259 68 -242 q 197 -278 150 -276 q 337 -227 288 -278 q 409 -74 386 -176 q 447 219 432 29 q 481 514 456 324 q 490 596 490 592 q 490 619 493 613 q 475 625 486 625 q 442 619 469 625 q 416 606 424 614 q 407 572 408 599 l 376 325 q 318 137 363 206 q 207 68 274 68 q 138 171 138 68 q 154 375 138 232 q 181 594 171 518 q 179 618 183 611 q 163 625 175 625 q 132 619 160 625 q 106 606 114 614 q 96 572 99 599 l 81 447 q 60 269 67 332 q 54 143 54 207 q 93 26 54 65 q 194 -14 132 -14 q 289 18 246 -14 q 360 106 332 50 m 226 832 q 254 820 244 832 q 264 789 264 808 q 246 728 264 753 q 201 704 228 704 q 174 717 183 704 q 164 750 164 729 q 182 809 164 786 q 226 832 200 832 m 424 832 q 451 820 442 832 q 461 789 461 808 q 443 728 461 753 q 399 704 425 704 q 371 717 381 704 q 361 750 361 729 q 379 809 361 786 q 424 832 397 832 z "},"Ā":{"ha":667,"x_min":-26,"x_max":597,"o":"m 593 53 q 597 26 597 36 q 592 8 597 14 q 572 -4 586 1 q 536 -14 547 -14 q 517 6 521 -14 l 457 360 l 199 333 l 67 31 q 47 2 57 10 q 24 -6 38 -6 q -15 -1 -3 -6 q -26 14 -26 3 q -22 32 -26 22 l 351 882 q 367 912 361 904 q 388 925 374 919 q 425 935 417 935 q 440 918 439 935 l 524 444 l 531 446 q 558 447 542 447 q 581 441 574 447 q 592 414 588 435 q 594 393 594 397 q 583 376 594 382 q 538 367 571 371 l 593 53 m 406 663 l 393 779 l 235 417 l 443 438 l 406 663 m 275 1042 q 241 1047 250 1042 q 232 1064 232 1051 l 235 1082 q 252 1110 242 1104 q 293 1117 263 1117 l 528 1117 q 557 1113 549 1117 q 565 1100 565 1108 q 561 1076 565 1092 q 544 1048 554 1054 q 503 1042 533 1042 l 275 1042 z "},"ā":{"ha":558,"x_min":40,"x_max":538,"o":"m 497 115 q 524 95 510 115 q 538 58 538 75 q 517 31 538 47 q 469 3 497 15 q 414 -10 440 -10 q 363 22 379 -10 q 347 93 347 53 q 276 14 314 40 q 186 -12 238 -12 q 80 53 119 -11 q 40 229 40 117 q 72 424 42 333 q 158 570 101 515 q 293 625 214 625 q 401 581 347 625 l 401 585 q 410 620 404 613 q 435 632 417 628 q 471 638 468 638 q 489 631 485 638 q 490 607 493 624 q 422 56 422 156 q 472 97 443 68 q 497 115 490 115 m 369 333 q 392 504 389 467 q 348 535 369 525 q 299 546 326 546 q 196 492 235 546 q 141 365 157 438 q 124 232 125 293 q 206 69 124 69 q 309 142 264 69 q 369 333 354 215 m 197 732 q 163 737 172 732 q 154 754 154 742 l 157 772 q 174 801 164 794 q 215 807 185 807 l 450 807 q 479 803 471 807 q 488 790 488 799 q 483 767 488 782 q 466 738 476 744 q 425 732 456 732 l 197 732 z "},"Ă":{"ha":667,"x_min":-26,"x_max":597,"o":"m 593 53 q 597 26 597 36 q 592 8 597 14 q 572 -4 586 1 q 536 -14 547 -14 q 517 6 521 -14 l 457 360 l 199 333 l 67 31 q 47 2 57 10 q 24 -6 38 -6 q -15 -1 -3 -6 q -26 14 -26 3 q -22 32 -26 22 l 351 882 q 367 912 361 904 q 388 925 374 919 q 425 935 417 935 q 440 918 439 935 l 524 444 l 531 446 q 558 447 542 447 q 581 441 574 447 q 592 414 588 435 q 594 393 594 397 q 583 376 594 382 q 538 367 571 371 l 593 53 m 406 663 l 393 779 l 235 417 l 443 438 l 406 663 m 344 1125 q 366 1086 354 1099 q 401 1074 378 1074 q 446 1088 429 1074 q 483 1133 463 1101 q 503 1149 493 1149 q 525 1139 511 1149 q 537 1131 528 1136 q 549 1121 546 1125 q 553 1111 553 1117 q 546 1094 553 1106 q 480 1026 517 1047 q 393 1004 443 1004 q 272 1104 307 1006 l 269 1115 q 277 1129 269 1124 q 304 1140 285 1135 q 326 1144 318 1144 q 338 1140 335 1144 q 344 1125 340 1136 z "},"ă":{"ha":558,"x_min":40,"x_max":538,"o":"m 497 115 q 524 95 510 115 q 538 58 538 75 q 517 31 538 47 q 469 3 497 15 q 414 -10 440 -10 q 363 22 379 -10 q 347 93 347 53 q 276 14 314 40 q 186 -12 238 -12 q 80 53 119 -11 q 40 229 40 117 q 72 424 42 333 q 158 570 101 515 q 293 625 214 625 q 401 581 347 625 l 401 585 q 410 620 404 613 q 435 632 417 628 q 471 638 468 638 q 489 631 485 638 q 490 607 493 624 q 422 56 422 156 q 472 97 443 68 q 497 115 490 115 m 369 333 q 392 504 389 467 q 348 535 369 525 q 299 546 326 546 q 196 492 235 546 q 141 365 157 438 q 124 232 125 293 q 206 69 124 69 q 309 142 264 69 q 369 333 354 215 m 269 822 q 292 780 279 794 q 328 765 306 765 q 374 782 356 765 q 414 831 392 799 q 433 846 424 846 q 456 836 442 846 q 467 828 458 833 q 480 818 476 822 q 483 808 483 814 q 476 792 483 803 q 409 719 446 743 q 319 694 372 694 q 242 722 271 696 q 196 801 214 749 l 193 813 q 201 826 193 821 q 228 838 208 832 q 251 842 244 842 q 263 838 260 842 q 269 822 265 833 z "},"Ą":{"ha":667,"x_min":-28,"x_max":656,"o":"m 638 -143 q 656 -171 656 -162 q 647 -186 656 -178 q 533 -233 600 -233 q 447 -202 478 -233 q 417 -121 417 -171 q 442 -37 417 -69 q 514 26 467 -6 l 458 360 l 200 333 l 68 31 q 47 1 56 7 q 19 -6 38 -6 q -17 -1 -7 -4 q -28 11 -28 3 q -21 32 -28 18 l 353 882 q 369 913 364 906 q 389 925 374 919 q 429 936 422 936 q 438 931 435 936 q 442 918 440 926 l 525 444 l 532 446 q 560 447 543 447 q 582 441 575 447 q 593 414 589 435 q 596 393 596 397 q 584 376 596 382 q 539 367 572 371 l 594 53 q 599 22 599 32 q 594 10 599 14 q 561 -15 590 6 q 513 -60 532 -35 q 493 -115 493 -85 q 505 -150 493 -137 q 539 -162 517 -162 q 599 -133 569 -162 q 614 -125 607 -125 q 638 -143 624 -125 m 407 663 l 394 779 l 236 417 l 444 438 l 407 663 z "},"ą":{"ha":557,"x_min":39,"x_max":533,"o":"m 460 1 q 383 -61 407 -36 q 358 -124 358 -86 q 370 -158 358 -146 q 404 -171 382 -171 q 464 -142 435 -171 q 479 -133 472 -133 q 503 -151 489 -133 q 521 -179 521 -171 q 513 -194 521 -186 q 399 -242 465 -242 q 313 -210 343 -242 q 282 -129 282 -179 q 304 -51 282 -82 q 368 10 326 -19 q 349 47 356 25 q 343 93 343 69 q 272 14 310 40 q 182 -12 233 -12 q 77 47 115 -12 q 39 197 39 106 q 68 410 39 313 q 154 566 97 507 q 290 625 211 625 q 397 581 343 625 l 397 585 q 406 620 400 613 q 431 632 413 628 q 467 638 464 638 q 485 631 481 638 q 486 607 489 624 l 471 510 q 418 56 418 147 q 468 97 439 68 q 493 115 486 115 q 519 95 506 115 q 533 58 533 75 q 519 40 533 50 q 488 18 506 29 q 460 1 469 7 m 201 69 q 305 142 260 69 q 365 333 350 215 q 388 506 385 471 q 296 549 344 549 q 192 490 231 549 q 138 351 153 431 q 122 203 122 271 q 141 109 122 149 q 201 69 160 69 z "},"Ć":{"ha":644,"x_min":49,"x_max":625,"o":"m 288 -14 q 114 85 176 -14 q 49 338 51 183 q 85 613 49 476 q 205 843 121 750 q 422 936 289 936 q 553 888 501 935 q 622 756 606 842 l 625 738 q 618 721 625 726 q 590 710 611 715 q 563 704 575 704 q 547 710 553 704 q 538 729 540 715 q 495 822 525 792 q 411 851 465 851 q 251 766 313 851 q 163 564 189 681 q 136 351 136 447 q 178 150 136 228 q 297 72 221 72 q 410 115 360 74 q 496 224 460 156 q 521 243 506 243 q 549 232 531 243 q 579 200 579 218 q 575 185 579 193 q 288 -14 467 -14 m 292 1069 q 406 1097 361 1079 q 490 1144 450 1114 q 507 1153 501 1153 q 531 1132 517 1153 q 550 1093 550 1101 q 539 1078 550 1086 q 438 1029 500 1050 q 324 1008 375 1008 q 299 1014 306 1008 q 283 1039 293 1019 q 278 1057 278 1050 q 281 1066 278 1064 q 292 1069 285 1068 z "},"ć":{"ha":447,"x_min":40,"x_max":432,"o":"m 401 101 q 328 17 375 49 q 218 -14 282 -14 q 85 49 129 -12 q 40 211 42 111 q 104 507 40 388 q 293 626 168 626 q 372 601 338 625 q 426 533 407 578 q 432 511 432 522 q 413 489 432 497 l 392 481 q 375 476 382 476 q 353 496 364 476 q 325 533 340 522 q 286 544 310 544 q 187 489 224 544 q 136 358 150 433 q 122 219 122 283 q 226 65 122 65 q 288 86 261 65 q 331 138 314 107 q 356 157 342 157 q 372 153 364 157 l 389 143 q 407 119 407 131 q 401 101 407 111 m 368 863 q 385 872 378 872 q 408 850 394 872 q 426 814 426 824 q 417 796 426 806 q 319 729 378 757 q 201 699 261 701 q 178 703 183 697 q 161 729 172 710 q 154 751 154 742 q 168 764 154 761 q 284 800 239 778 q 368 863 329 822 z "},"Ĉ":{"ha":644,"x_min":49,"x_max":625,"o":"m 288 -14 q 114 85 176 -14 q 49 338 51 183 q 85 613 49 476 q 205 843 121 750 q 422 936 289 936 q 553 888 501 935 q 622 756 606 842 l 625 738 q 618 721 625 726 q 590 710 611 715 q 563 704 575 704 q 547 710 553 704 q 538 729 540 715 q 495 822 525 792 q 411 851 465 851 q 251 766 313 851 q 163 564 189 681 q 136 351 136 447 q 178 150 136 228 q 297 72 221 72 q 410 115 360 74 q 496 224 460 156 q 521 243 506 243 q 549 232 531 243 q 579 200 579 218 q 575 185 579 193 q 288 -14 467 -14 m 456 1061 l 510 1018 q 529 1008 525 1008 q 553 1025 539 1008 q 560 1033 554 1026 q 565 1046 565 1040 q 551 1067 565 1054 q 440 1175 500 1113 q 421 1186 429 1186 q 406 1179 415 1186 l 381 1156 q 269 1065 325 1106 q 251 1044 251 1053 q 263 1024 251 1039 q 275 1010 269 1015 q 286 1004 281 1004 q 304 1013 292 1004 l 381 1063 q 403 1078 393 1071 q 421 1090 413 1085 l 456 1061 z "},"ĉ":{"ha":447,"x_min":40,"x_max":436,"o":"m 401 101 q 328 17 375 49 q 218 -14 282 -14 q 85 49 129 -12 q 40 211 42 111 q 104 507 40 388 q 293 626 168 626 q 372 601 338 625 q 426 533 407 578 q 432 511 432 522 q 413 489 432 497 l 392 481 q 375 476 382 476 q 353 496 364 476 q 325 533 340 522 q 286 544 310 544 q 187 489 224 544 q 136 358 150 433 q 122 219 122 283 q 226 65 122 65 q 288 86 261 65 q 331 138 314 107 q 356 157 342 157 q 372 153 364 157 l 389 143 q 407 119 407 131 q 401 101 407 111 m 308 765 l 381 708 q 400 699 396 699 q 424 715 410 699 q 431 724 425 717 q 436 736 436 731 q 422 757 436 744 q 363 810 392 782 q 304 872 335 839 q 285 883 293 883 q 269 876 279 883 q 198 813 224 835 q 124 757 172 792 q 106 736 106 744 q 117 715 106 731 q 139 697 131 697 q 158 704 144 697 q 285 785 196 725 l 308 765 z "},"Ċ":{"ha":644,"x_min":49,"x_max":625,"o":"m 288 -14 q 114 85 176 -14 q 49 338 51 183 q 85 613 49 476 q 205 843 121 750 q 422 936 289 936 q 553 888 501 935 q 622 756 606 842 l 625 738 q 618 721 625 726 q 590 710 611 715 q 563 704 575 704 q 547 710 553 704 q 538 729 540 715 q 495 822 525 792 q 411 851 465 851 q 251 766 313 851 q 163 564 189 681 q 136 351 136 447 q 178 150 136 228 q 297 72 221 72 q 410 115 360 74 q 496 224 460 156 q 521 243 506 243 q 549 232 531 243 q 579 200 579 218 q 575 185 579 193 q 288 -14 467 -14 m 435 1161 q 465 1149 454 1161 q 476 1114 476 1136 q 457 1047 476 1074 q 408 1021 438 1021 q 378 1034 389 1021 q 367 1071 367 1047 q 386 1135 367 1110 q 435 1161 406 1161 z "},"ċ":{"ha":447,"x_min":40,"x_max":432,"o":"m 401 101 q 328 17 375 49 q 218 -14 282 -14 q 85 49 129 -12 q 40 211 42 111 q 104 507 40 388 q 293 626 168 626 q 372 601 338 625 q 426 533 407 578 q 432 511 432 522 q 413 489 432 497 l 392 481 q 375 476 382 476 q 353 496 364 476 q 325 533 340 522 q 286 544 310 544 q 187 489 224 544 q 136 358 150 433 q 122 219 122 283 q 226 65 122 65 q 288 86 261 65 q 331 138 314 107 q 356 157 342 157 q 372 153 364 157 l 389 143 q 407 119 407 131 q 401 101 407 111 m 313 851 q 343 839 332 851 q 354 804 354 826 q 335 738 354 764 q 286 711 315 711 q 256 724 267 711 q 244 761 244 738 q 264 826 244 800 q 313 851 283 851 z "},"Č":{"ha":644,"x_min":49,"x_max":625,"o":"m 288 -14 q 114 85 176 -14 q 49 338 51 183 q 85 613 49 476 q 205 843 121 750 q 422 936 289 936 q 553 888 501 935 q 622 756 606 842 l 625 738 q 618 721 625 726 q 590 710 611 715 q 563 704 575 704 q 547 710 553 704 q 538 729 540 715 q 495 822 525 792 q 411 851 465 851 q 251 766 313 851 q 163 564 189 681 q 136 351 136 447 q 178 150 136 228 q 297 72 221 72 q 410 115 360 74 q 496 224 460 156 q 521 243 506 243 q 549 232 531 243 q 579 200 579 218 q 575 185 579 193 q 288 -14 467 -14 m 376 1122 l 322 1165 q 303 1175 307 1175 q 279 1158 294 1175 q 272 1150 278 1157 q 267 1138 267 1143 q 281 1117 267 1129 q 392 1008 332 1071 q 411 997 403 997 q 426 1004 417 997 l 451 1028 q 563 1118 507 1078 q 581 1139 581 1131 q 569 1160 581 1144 q 557 1174 563 1168 q 546 1179 551 1179 q 528 1171 540 1179 l 451 1121 q 429 1106 439 1113 q 411 1093 419 1099 l 376 1122 z "},"č":{"ha":447,"x_min":40,"x_max":457,"o":"m 401 101 q 328 17 375 49 q 218 -14 282 -14 q 85 49 129 -12 q 40 211 42 111 q 104 507 40 388 q 293 626 168 626 q 372 601 338 625 q 426 533 407 578 q 432 511 432 522 q 413 489 432 497 l 392 481 q 375 476 382 476 q 353 496 364 476 q 325 533 340 522 q 286 544 310 544 q 187 489 224 544 q 136 358 150 433 q 122 219 122 283 q 226 65 122 65 q 288 86 261 65 q 331 138 314 107 q 356 157 342 157 q 372 153 364 157 l 389 143 q 407 119 407 131 q 401 101 407 111 m 254 808 l 182 865 q 163 875 167 875 q 139 858 154 875 q 132 850 138 857 q 126 838 126 843 q 140 817 126 829 q 258 701 196 768 q 278 690 269 690 q 293 697 283 690 q 365 760 339 739 q 439 817 390 782 q 457 838 457 829 q 446 858 457 843 q 424 876 432 876 q 404 869 418 876 q 278 789 367 849 l 254 808 z "},"Ď":{"ha":696,"x_min":64,"x_max":649,"o":"m 128 -10 q 90 13 107 -7 q 75 51 74 33 l 178 843 q 101 832 125 838 q 72 840 81 829 q 64 878 64 850 q 94 914 64 908 q 333 933 197 933 q 572 841 494 931 q 649 575 649 751 q 529 136 649 289 q 196 -17 410 -17 q 128 -10 167 -17 m 160 69 q 200 67 190 67 q 475 208 388 67 q 563 581 563 349 q 504 787 563 724 q 336 851 446 850 q 261 850 318 853 l 160 69 m 310 1122 l 256 1165 q 236 1175 240 1175 q 213 1158 228 1175 q 206 1150 211 1157 q 200 1138 200 1143 q 214 1117 200 1129 q 325 1008 265 1071 q 344 997 336 997 q 360 1004 350 997 l 385 1028 q 496 1118 440 1078 q 514 1139 514 1131 q 503 1160 514 1144 q 490 1174 496 1168 q 479 1179 485 1179 q 461 1171 474 1179 l 385 1121 q 363 1106 372 1113 q 344 1093 353 1099 l 310 1122 z "},"ď":{"ha":640,"x_min":40,"x_max":724,"o":"m 719 1025 q 722 1009 719 1019 q 724 989 724 999 q 647 833 724 917 q 631 824 638 824 q 606 836 624 824 q 596 844 603 839 q 589 856 589 850 q 597 874 589 861 q 623 915 615 897 q 631 954 631 932 q 622 1003 631 974 q 618 1022 618 1015 q 639 1042 618 1036 l 679 1053 q 696 1056 693 1056 q 710 1049 704 1056 q 719 1025 715 1042 m 479 982 q 517 988 501 988 q 533 981 529 988 q 536 958 538 975 q 468 474 489 631 q 439 218 447 318 q 428 26 428 92 q 422 3 428 7 q 394 -7 415 -1 q 374 -10 378 -10 q 351 1 357 -10 q 347 42 346 13 q 351 106 347 67 q 283 18 325 50 q 186 -14 240 -14 q 80 51 119 -12 q 40 228 40 115 q 71 423 42 332 q 156 569 100 514 q 292 624 213 624 q 404 589 349 624 q 447 935 429 781 q 456 969 450 961 q 479 982 463 978 m 394 513 q 347 537 368 529 q 299 544 325 544 q 196 490 235 544 q 141 364 157 436 q 124 231 125 292 q 211 68 124 68 q 314 147 268 68 q 372 336 360 226 l 394 513 z "},"Đ":{"ha":717,"x_min":28,"x_max":656,"o":"m 340 933 q 578 841 501 931 q 656 575 656 751 q 536 136 656 289 q 203 -17 417 -17 q 135 -10 174 -17 q 97 13 114 -7 q 82 51 81 33 l 129 414 l 57 410 q 34 413 40 408 q 28 431 28 418 l 31 453 q 47 482 38 476 q 89 490 57 488 l 139 493 l 185 843 q 108 832 132 838 q 79 840 88 829 q 71 878 71 850 q 101 914 71 908 q 340 933 204 933 m 569 581 q 511 787 569 724 q 343 851 453 850 q 268 850 325 853 l 222 497 l 388 507 q 410 504 404 508 q 417 489 417 500 q 414 464 417 483 q 398 435 408 440 q 356 426 388 429 l 213 418 l 167 69 q 207 67 197 67 q 482 208 394 67 q 569 581 569 349 z "},"đ":{"ha":514,"x_min":38,"x_max":635,"o":"m 597 843 q 626 839 618 843 q 635 826 635 835 q 631 803 635 817 q 613 777 624 783 q 572 771 601 771 l 507 771 q 438 218 453 382 q 426 18 432 150 q 393 -7 425 -1 q 372 -10 376 -10 q 350 1 356 -10 q 346 42 344 13 q 350 106 346 65 q 281 18 324 50 q 185 -14 239 -14 q 78 51 119 -12 q 38 219 38 115 q 69 416 39 324 q 156 566 99 508 q 290 624 213 624 q 404 589 349 624 l 426 771 l 261 771 q 227 776 236 771 q 218 792 218 781 l 221 808 q 238 837 228 831 q 279 843 249 843 l 438 843 q 443 897 440 861 q 446 935 443 913 q 455 969 449 961 q 478 982 461 978 q 515 988 500 988 q 532 981 528 988 q 535 958 536 975 l 524 883 q 517 843 518 854 l 597 843 m 394 513 q 347 537 368 529 q 297 544 325 544 q 194 485 233 544 q 140 350 156 425 q 122 221 124 275 q 142 110 122 153 q 210 68 163 68 q 313 147 267 68 q 371 336 358 226 l 394 513 z "},"Ē":{"ha":606,"x_min":63,"x_max":599,"o":"m 556 932 q 589 928 579 933 q 599 908 599 922 q 596 889 599 903 q 578 859 589 865 q 538 851 568 853 l 238 843 l 201 504 l 472 518 q 506 514 497 519 q 515 496 515 508 q 513 475 515 492 q 496 446 506 451 q 454 438 486 440 l 193 425 l 154 69 l 493 82 q 527 78 518 82 q 536 61 536 74 q 533 38 536 57 q 516 7 526 14 q 475 0 506 0 l 119 -14 q 81 6 100 -15 q 65 49 63 28 l 151 840 l 106 839 q 72 843 81 839 q 63 860 63 847 l 65 882 q 81 913 72 907 q 119 919 89 918 l 556 932 m 213 1042 q 178 1047 188 1042 q 169 1064 169 1051 l 172 1082 q 190 1110 179 1104 q 231 1117 200 1117 l 465 1117 q 494 1113 486 1117 q 503 1100 503 1108 q 499 1076 503 1092 q 481 1048 492 1054 q 440 1042 471 1042 l 213 1042 z "},"ē":{"ha":458,"x_min":40,"x_max":451,"o":"m 388 143 q 406 119 406 131 q 400 101 406 111 q 324 17 369 47 q 213 -14 279 -14 q 84 49 126 -12 q 40 211 42 111 q 69 418 40 324 q 157 569 99 513 q 300 626 215 626 q 408 583 375 626 q 442 482 442 539 q 357 320 442 382 q 122 244 272 258 l 122 219 q 146 107 122 149 q 219 65 169 65 q 281 83 258 65 q 328 138 304 101 q 353 157 339 157 q 369 153 361 157 l 388 143 m 293 546 q 188 483 226 546 q 132 328 149 419 q 357 472 357 350 q 293 546 357 546 m 161 732 q 127 737 136 732 q 118 754 118 742 l 121 772 q 138 801 128 794 q 179 807 149 807 l 414 807 q 443 803 435 807 q 451 790 451 799 q 447 767 451 782 q 430 738 440 744 q 389 732 419 732 l 161 732 z "},"Ĕ":{"ha":606,"x_min":63,"x_max":599,"o":"m 556 932 q 589 928 579 933 q 599 908 599 922 q 596 889 599 903 q 578 859 589 865 q 538 851 568 853 l 238 843 l 201 504 l 472 518 q 506 514 497 519 q 515 496 515 508 q 513 475 515 492 q 496 446 506 451 q 454 438 486 440 l 193 425 l 154 69 l 493 82 q 527 78 518 82 q 536 61 536 74 q 533 38 536 57 q 516 7 526 14 q 475 0 506 0 l 119 -14 q 81 6 100 -15 q 65 49 63 28 l 151 840 l 106 839 q 72 843 81 839 q 63 860 63 847 l 65 882 q 81 913 72 907 q 119 919 89 918 l 556 932 m 282 1125 q 303 1086 292 1099 q 339 1074 315 1074 q 383 1088 367 1074 q 421 1133 400 1101 q 440 1149 431 1149 q 463 1139 449 1149 q 474 1131 465 1136 q 487 1121 483 1125 q 490 1111 490 1117 q 483 1094 490 1106 q 417 1026 454 1047 q 331 1004 381 1004 q 210 1104 244 1006 l 207 1115 q 215 1129 207 1124 q 242 1140 222 1135 q 264 1144 256 1144 q 275 1140 272 1144 q 282 1125 278 1136 z "},"ĕ":{"ha":458,"x_min":40,"x_max":447,"o":"m 388 143 q 406 119 406 131 q 400 101 406 111 q 324 17 369 47 q 213 -14 279 -14 q 84 49 126 -12 q 40 211 42 111 q 69 418 40 324 q 157 569 99 513 q 300 626 215 626 q 408 583 375 626 q 442 482 442 539 q 357 320 442 382 q 122 244 272 258 l 122 219 q 146 107 122 149 q 219 65 169 65 q 281 83 258 65 q 328 138 304 101 q 353 157 339 157 q 369 153 361 157 l 388 143 m 293 546 q 188 483 226 546 q 132 328 149 419 q 357 472 357 350 q 293 546 357 546 m 233 822 q 256 780 243 794 q 292 765 269 765 q 338 782 319 765 q 378 831 356 799 q 397 846 388 846 q 419 836 406 846 q 431 828 422 833 q 444 818 440 822 q 447 808 447 814 q 440 792 447 803 q 373 719 410 743 q 283 694 336 694 q 206 722 235 696 q 160 801 178 749 l 157 813 q 165 826 157 821 q 192 838 172 832 q 215 842 208 842 q 226 838 224 842 q 233 822 229 833 z "},"Ė":{"ha":606,"x_min":63,"x_max":599,"o":"m 556 932 q 589 928 579 933 q 599 908 599 922 q 596 889 599 903 q 578 859 589 865 q 538 851 568 853 l 238 843 l 201 504 l 472 518 q 506 514 497 519 q 515 496 515 508 q 513 475 515 492 q 496 446 506 451 q 454 438 486 440 l 193 425 l 154 69 l 493 82 q 527 78 518 82 q 536 61 536 74 q 533 38 536 57 q 516 7 526 14 q 475 0 506 0 l 119 -14 q 81 6 100 -15 q 65 49 63 28 l 151 840 l 106 839 q 72 843 81 839 q 63 860 63 847 l 65 882 q 81 913 72 907 q 119 919 89 918 l 556 932 m 369 1161 q 400 1149 389 1161 q 411 1114 411 1136 q 392 1047 411 1074 q 343 1021 372 1021 q 313 1034 324 1021 q 301 1071 301 1047 q 321 1135 301 1110 q 369 1161 340 1161 z "},"ė":{"ha":458,"x_min":40,"x_max":442,"o":"m 388 143 q 406 119 406 131 q 400 101 406 111 q 324 17 369 47 q 213 -14 279 -14 q 84 49 126 -12 q 40 211 42 111 q 69 418 40 324 q 157 569 99 513 q 300 626 215 626 q 408 583 375 626 q 442 482 442 539 q 357 320 442 382 q 122 244 272 258 l 122 219 q 146 107 122 149 q 219 65 169 65 q 281 83 258 65 q 328 138 304 101 q 353 157 339 157 q 369 153 361 157 l 388 143 m 293 546 q 188 483 226 546 q 132 328 149 419 q 357 472 357 350 q 293 546 357 546 m 318 851 q 349 839 338 851 q 360 804 360 826 q 340 738 360 764 q 292 711 321 711 q 261 724 272 711 q 250 761 250 738 q 269 826 250 800 q 318 851 289 851 z "},"Ę":{"ha":599,"x_min":63,"x_max":599,"o":"m 556 932 q 589 928 579 933 q 599 908 599 922 q 596 889 599 903 q 578 859 589 865 q 538 851 568 853 l 238 843 l 201 504 l 472 518 q 506 514 497 519 q 515 496 515 508 q 513 475 515 492 q 496 446 506 451 q 454 438 486 440 l 193 425 l 154 69 l 493 82 q 527 78 518 82 q 536 61 536 74 q 533 38 536 57 q 517 7 528 15 q 439 -56 464 -31 q 414 -118 414 -81 q 426 -153 414 -140 q 460 -165 438 -165 q 519 -136 490 -165 q 535 -128 528 -128 q 558 -146 544 -128 q 576 -174 576 -165 q 568 -189 576 -181 q 454 -236 521 -236 q 368 -205 399 -236 q 338 -124 338 -174 q 353 -56 338 -83 q 399 -3 369 -28 l 119 -14 q 81 6 100 -15 q 65 49 63 28 l 151 840 l 106 839 q 72 843 81 839 q 63 860 63 847 l 65 882 q 81 913 72 907 q 119 919 89 918 l 556 932 z "},"ę":{"ha":464,"x_min":40,"x_max":442,"o":"m 388 143 q 406 119 406 131 q 400 101 406 111 q 274 -6 350 15 q 201 -65 225 -40 q 178 -126 178 -90 q 190 -161 178 -149 q 224 -174 201 -174 q 283 -144 254 -174 q 299 -136 292 -136 q 322 -154 308 -136 q 340 -182 340 -174 q 332 -197 340 -189 q 218 -244 285 -244 q 132 -213 163 -244 q 101 -132 101 -182 q 119 -62 101 -90 q 167 -8 136 -33 q 73 67 104 8 q 40 211 42 126 q 69 418 40 324 q 157 569 99 513 q 300 626 215 626 q 408 583 375 626 q 442 482 442 539 q 357 320 442 382 q 122 244 272 258 l 122 219 q 146 107 122 149 q 219 65 169 65 q 281 83 258 65 q 328 138 304 101 q 353 157 339 157 q 369 153 361 157 l 388 143 m 293 546 q 188 483 226 546 q 132 328 149 419 q 357 472 357 350 q 293 546 357 546 z "},"Ě":{"ha":606,"x_min":63,"x_max":599,"o":"m 556 932 q 589 928 579 933 q 599 908 599 922 q 596 889 599 903 q 578 859 589 865 q 538 851 568 853 l 238 843 l 201 504 l 472 518 q 506 514 497 519 q 515 496 515 508 q 513 475 515 492 q 496 446 506 451 q 454 438 486 440 l 193 425 l 154 69 l 493 82 q 527 78 518 82 q 536 61 536 74 q 533 38 536 57 q 516 7 526 14 q 475 0 506 0 l 119 -14 q 81 6 100 -15 q 65 49 63 28 l 151 840 l 106 839 q 72 843 81 839 q 63 860 63 847 l 65 882 q 81 913 72 907 q 119 919 89 918 l 556 932 m 311 1122 l 257 1165 q 238 1175 242 1175 q 214 1158 229 1175 q 207 1150 213 1157 q 201 1138 201 1143 q 215 1117 201 1129 q 326 1008 267 1071 q 346 997 338 997 q 361 1004 351 997 l 386 1028 q 497 1118 442 1078 q 515 1139 515 1131 q 504 1160 515 1144 q 492 1174 497 1168 q 481 1179 486 1179 q 463 1171 475 1179 l 386 1121 q 364 1106 374 1113 q 346 1093 354 1099 l 311 1122 z "},"ě":{"ha":458,"x_min":40,"x_max":463,"o":"m 388 143 q 406 119 406 131 q 400 101 406 111 q 324 17 369 47 q 213 -14 279 -14 q 84 49 126 -12 q 40 211 42 111 q 69 418 40 324 q 157 569 99 513 q 300 626 215 626 q 408 583 375 626 q 442 482 442 539 q 357 320 442 382 q 122 244 272 258 l 122 219 q 146 107 122 149 q 219 65 169 65 q 281 83 258 65 q 328 138 304 101 q 353 157 339 157 q 369 153 361 157 l 388 143 m 293 546 q 188 483 226 546 q 132 328 149 419 q 357 472 357 350 q 293 546 357 546 m 260 808 l 188 865 q 168 875 172 875 q 144 858 160 875 q 138 850 143 857 q 132 838 132 843 q 146 817 132 829 q 264 701 201 768 q 283 690 275 690 q 299 697 289 690 q 370 760 344 739 q 444 817 396 782 q 463 838 463 829 q 451 858 463 843 q 429 876 438 876 q 410 869 424 876 q 283 789 372 849 l 260 808 z "},"Ĝ":{"ha":674,"x_min":49,"x_max":625,"o":"m 407 854 q 250 769 311 854 q 163 567 189 683 q 136 354 136 450 q 178 153 136 231 q 297 75 221 75 q 449 158 392 76 q 525 367 507 240 l 372 357 q 340 358 347 356 q 332 374 332 361 q 335 400 332 378 q 350 429 340 424 q 393 438 360 435 l 572 449 q 613 441 604 450 q 619 406 622 432 q 515 104 594 218 q 288 -10 436 -10 q 114 88 176 -10 q 49 340 51 185 q 85 615 49 478 q 203 846 121 753 q 417 939 285 939 q 553 891 500 938 q 622 758 606 844 l 625 740 q 618 724 625 729 q 590 713 611 718 q 563 707 575 707 q 547 713 553 707 q 538 732 540 718 q 494 825 525 794 q 407 854 463 856 m 468 1061 l 522 1018 q 542 1008 538 1008 q 565 1025 551 1008 q 572 1033 567 1026 q 578 1046 578 1040 q 564 1067 578 1054 q 453 1175 513 1113 q 433 1186 442 1186 q 418 1179 428 1186 l 393 1156 q 282 1065 338 1106 q 264 1044 264 1053 q 275 1024 264 1039 q 288 1010 282 1015 q 299 1004 293 1004 q 317 1013 304 1004 l 393 1063 q 415 1078 406 1071 q 433 1090 425 1085 l 468 1061 z "},"ĝ":{"ha":525,"x_min":1,"x_max":490,"o":"m 432 632 q 468 638 465 638 q 486 631 482 638 q 488 607 490 624 q 481 556 488 601 q 439 219 456 392 q 402 -74 425 29 q 331 -227 379 -176 q 192 -278 282 -278 q 103 -259 144 -276 q 19 -207 63 -242 q 1 -181 1 -193 q 18 -147 1 -168 q 44 -128 33 -128 q 68 -140 53 -128 q 131 -185 104 -172 q 200 -197 158 -197 q 281 -169 251 -197 q 325 -81 310 -140 q 351 89 340 -21 q 278 13 315 38 q 188 -12 240 -12 q 81 52 121 -11 q 40 228 40 115 q 71 423 42 332 q 156 569 100 514 q 292 624 213 624 q 399 582 346 624 l 399 585 q 408 620 401 613 q 432 632 414 628 m 211 68 q 309 143 267 69 q 367 333 351 217 q 389 506 386 471 q 347 535 368 525 q 299 544 325 544 q 196 490 235 544 q 141 364 157 436 q 124 231 125 292 q 211 68 124 68 m 346 765 l 418 708 q 438 699 433 699 q 461 715 447 699 q 468 724 463 717 q 474 736 474 731 q 460 757 474 744 q 401 810 429 782 q 342 872 372 839 q 322 883 331 883 q 307 876 317 883 q 235 813 261 835 q 161 757 210 792 q 143 736 143 744 q 154 715 143 731 q 176 697 168 697 q 196 704 182 697 q 322 785 233 725 l 346 765 z "},"Ğ":{"ha":674,"x_min":49,"x_max":625,"o":"m 407 854 q 250 769 311 854 q 163 567 189 683 q 136 354 136 450 q 178 153 136 231 q 297 75 221 75 q 449 158 392 76 q 525 367 507 240 l 372 357 q 340 358 347 356 q 332 374 332 361 q 335 400 332 378 q 350 429 340 424 q 393 438 360 435 l 572 449 q 613 441 604 450 q 619 406 622 432 q 515 104 594 218 q 288 -10 436 -10 q 114 88 176 -10 q 49 340 51 185 q 85 615 49 478 q 203 846 121 753 q 417 939 285 939 q 553 891 500 938 q 622 758 606 844 l 625 740 q 618 724 625 729 q 590 713 611 718 q 563 707 575 707 q 547 713 553 707 q 538 732 540 718 q 494 825 525 794 q 407 854 463 856 m 360 1125 q 381 1086 369 1099 q 417 1074 393 1074 q 461 1088 444 1074 q 499 1133 478 1101 q 518 1149 508 1149 q 540 1139 526 1149 q 552 1131 543 1136 q 565 1121 561 1125 q 568 1111 568 1117 q 561 1094 568 1106 q 495 1026 532 1047 q 408 1004 458 1004 q 288 1104 322 1006 l 285 1115 q 292 1129 285 1124 q 319 1140 300 1135 q 342 1144 333 1144 q 353 1140 350 1144 q 360 1125 356 1136 z "},"ğ":{"ha":525,"x_min":1,"x_max":490,"o":"m 432 632 q 468 638 465 638 q 486 631 482 638 q 488 607 490 624 q 481 556 488 601 q 439 219 456 392 q 402 -74 425 29 q 331 -227 379 -176 q 192 -278 282 -278 q 103 -259 144 -276 q 19 -207 63 -242 q 1 -181 1 -193 q 18 -147 1 -168 q 44 -128 33 -128 q 68 -140 53 -128 q 131 -185 104 -172 q 200 -197 158 -197 q 281 -169 251 -197 q 325 -81 310 -140 q 351 89 340 -21 q 278 13 315 38 q 188 -12 240 -12 q 81 52 121 -11 q 40 228 40 115 q 71 423 42 332 q 156 569 100 514 q 292 624 213 624 q 399 582 346 624 l 399 585 q 408 620 401 613 q 432 632 414 628 m 211 68 q 309 143 267 69 q 367 333 351 217 q 389 506 386 471 q 347 535 368 525 q 299 544 325 544 q 196 490 235 544 q 141 364 157 436 q 124 231 125 292 q 211 68 124 68 m 265 822 q 288 780 275 794 q 324 765 301 765 q 369 782 351 765 q 410 831 388 799 q 429 846 419 846 q 451 836 438 846 q 463 828 454 833 q 476 818 472 822 q 479 808 479 814 q 472 792 479 803 q 405 719 442 743 q 315 694 368 694 q 238 722 267 696 q 192 801 210 749 l 189 813 q 197 826 189 821 q 224 838 204 832 q 247 842 240 842 q 258 838 256 842 q 265 822 261 833 z "},"Ġ":{"ha":674,"x_min":49,"x_max":625,"o":"m 407 854 q 250 769 311 854 q 163 567 189 683 q 136 354 136 450 q 178 153 136 231 q 297 75 221 75 q 449 158 392 76 q 525 367 507 240 l 372 357 q 340 358 347 356 q 332 374 332 361 q 335 400 332 378 q 350 429 340 424 q 393 438 360 435 l 572 449 q 613 441 604 450 q 619 406 622 432 q 515 104 594 218 q 288 -10 436 -10 q 114 88 176 -10 q 49 340 51 185 q 85 615 49 478 q 203 846 121 753 q 417 939 285 939 q 553 891 500 938 q 622 758 606 844 l 625 740 q 618 724 625 729 q 590 713 611 718 q 563 707 575 707 q 547 713 553 707 q 538 732 540 718 q 494 825 525 794 q 407 854 463 856 m 447 1161 q 478 1149 467 1161 q 489 1114 489 1136 q 469 1047 489 1074 q 421 1021 450 1021 q 390 1034 401 1021 q 379 1071 379 1047 q 399 1135 379 1110 q 447 1161 418 1161 z "},"ġ":{"ha":525,"x_min":1,"x_max":490,"o":"m 432 632 q 468 638 465 638 q 486 631 482 638 q 488 607 490 624 q 481 556 488 601 q 439 219 456 392 q 402 -74 425 29 q 331 -227 379 -176 q 192 -278 282 -278 q 103 -259 144 -276 q 19 -207 63 -242 q 1 -181 1 -193 q 18 -147 1 -168 q 44 -128 33 -128 q 68 -140 53 -128 q 131 -185 104 -172 q 200 -197 158 -197 q 281 -169 251 -197 q 325 -81 310 -140 q 351 89 340 -21 q 278 13 315 38 q 188 -12 240 -12 q 81 52 121 -11 q 40 228 40 115 q 71 423 42 332 q 156 569 100 514 q 292 624 213 624 q 399 582 346 624 l 399 585 q 408 620 401 613 q 432 632 414 628 m 211 68 q 309 143 267 69 q 367 333 351 217 q 389 506 386 471 q 347 535 368 525 q 299 544 325 544 q 196 490 235 544 q 141 364 157 436 q 124 231 125 292 q 211 68 124 68 m 350 851 q 381 839 369 851 q 392 804 392 826 q 372 738 392 764 q 324 711 353 711 q 293 724 304 711 q 282 761 282 738 q 301 826 282 800 q 350 851 321 851 z "},"Ģ":{"ha":674,"x_min":49,"x_max":625,"o":"m 407 854 q 250 769 311 854 q 163 567 189 683 q 136 354 136 450 q 178 153 136 231 q 297 75 221 75 q 449 158 392 76 q 525 367 507 240 l 372 357 q 340 358 347 356 q 332 374 332 361 q 335 400 332 378 q 350 429 340 424 q 393 438 360 435 l 572 449 q 613 441 604 450 q 619 406 622 432 q 515 104 594 218 q 288 -10 436 -10 q 114 88 176 -10 q 49 340 51 185 q 85 615 49 478 q 203 846 121 753 q 417 939 285 939 q 553 891 500 938 q 622 758 606 844 l 625 740 q 618 724 625 729 q 590 713 611 718 q 563 707 575 707 q 547 713 553 707 q 538 732 540 718 q 494 825 525 794 q 407 854 463 856 m 249 -107 q 257 -156 257 -136 q 249 -195 257 -178 q 224 -236 242 -212 q 215 -254 215 -249 q 222 -265 215 -260 q 232 -274 229 -271 q 257 -286 250 -286 q 274 -276 264 -286 q 350 -121 350 -193 q 348 -101 350 -111 q 346 -85 346 -90 q 336 -61 342 -68 q 322 -54 331 -54 q 306 -57 319 -54 l 265 -68 q 244 -87 244 -74 q 249 -107 244 -94 z "},"ģ":{"ha":525,"x_min":1,"x_max":490,"o":"m 324 692 q 294 686 301 686 q 264 715 269 686 q 260 754 260 749 q 332 903 260 822 q 354 915 344 915 q 376 906 365 915 q 393 883 393 893 q 386 867 393 876 q 362 827 369 846 q 354 786 354 808 q 361 738 354 769 q 363 726 363 733 q 353 705 363 713 q 324 692 343 697 m 432 632 q 468 638 465 638 q 486 631 482 638 q 488 607 490 624 q 481 556 488 601 q 439 219 456 392 q 402 -74 425 29 q 331 -227 379 -176 q 192 -278 282 -278 q 103 -259 144 -276 q 19 -207 63 -242 q 1 -181 1 -193 q 18 -147 1 -168 q 44 -128 33 -128 q 68 -140 53 -128 q 131 -185 104 -172 q 200 -197 158 -197 q 281 -169 251 -197 q 325 -81 310 -140 q 351 89 340 -21 q 278 13 315 38 q 188 -12 240 -12 q 81 52 121 -11 q 40 228 40 115 q 71 423 42 332 q 156 569 100 514 q 292 624 213 624 q 399 582 346 624 l 399 585 q 408 620 401 613 q 432 632 414 628 m 211 68 q 309 143 267 69 q 367 333 351 217 q 389 506 386 471 q 347 535 368 525 q 299 544 325 544 q 196 490 235 544 q 141 364 157 436 q 124 231 125 292 q 211 68 124 68 z "},"Ĥ":{"ha":696,"x_min":43,"x_max":657,"o":"m 628 515 q 651 513 646 515 q 657 499 657 510 q 654 478 657 497 q 640 446 649 454 q 613 436 632 438 l 578 435 l 535 42 q 526 8 533 15 q 499 -6 518 0 q 465 -11 478 -11 q 449 -5 453 -11 q 449 18 446 1 l 496 431 l 174 414 l 132 42 q 123 8 131 15 q 96 -6 115 0 q 63 -11 75 -11 q 47 -5 50 -11 q 46 18 43 1 l 143 879 q 153 915 146 907 q 176 928 160 924 q 211 933 207 933 q 226 927 224 933 q 228 904 229 921 l 182 496 l 504 513 l 546 879 q 556 915 549 907 q 579 928 563 924 q 614 933 610 933 q 629 927 626 933 q 631 904 632 921 l 588 513 l 628 515 m 450 1061 l 504 1018 q 524 1008 519 1008 q 547 1025 533 1008 q 554 1033 549 1026 q 560 1046 560 1040 q 546 1067 560 1054 q 435 1175 494 1113 q 415 1186 424 1186 q 400 1179 410 1186 l 375 1156 q 264 1065 319 1106 q 246 1044 246 1053 q 257 1024 246 1039 q 269 1010 264 1015 q 281 1004 275 1004 q 299 1013 286 1004 l 375 1063 q 397 1078 388 1071 q 415 1090 407 1085 l 450 1061 z "},"ĥ":{"ha":544,"x_min":36,"x_max":482,"o":"m 43 19 q 63 174 44 29 q 106 521 82 318 q 157 935 131 746 q 166 969 160 961 q 189 982 172 978 q 222 988 210 988 q 238 981 235 988 q 240 958 242 975 q 182 521 194 624 q 354 626 253 626 q 445 589 408 626 q 482 471 482 551 q 476 344 482 407 q 456 167 469 282 l 440 42 q 430 8 438 15 q 404 -6 422 0 q 371 -11 376 -11 q 354 -4 358 -11 q 353 19 350 3 l 357 53 q 397 443 397 353 q 383 522 397 497 q 335 546 368 546 q 261 509 299 546 q 196 413 224 472 q 160 289 168 353 l 129 42 q 119 8 126 15 q 93 -6 111 0 q 61 -11 65 -11 q 44 -4 49 -11 q 43 19 40 3 m 239 1103 l 311 1046 q 331 1036 326 1036 q 354 1053 340 1036 q 361 1061 356 1054 q 367 1074 367 1068 q 353 1094 367 1082 q 294 1148 322 1119 q 235 1210 265 1176 q 215 1221 224 1221 q 200 1214 210 1221 q 128 1151 154 1172 q 54 1094 103 1129 q 36 1074 36 1082 q 47 1053 36 1068 q 69 1035 61 1035 q 89 1042 75 1035 q 215 1122 126 1063 l 239 1103 z "},"Ħ":{"ha":811,"x_min":19,"x_max":810,"o":"m 767 719 q 800 716 790 721 q 810 699 810 711 l 807 681 q 790 652 800 658 q 750 644 781 646 l 663 643 l 596 42 q 587 8 594 15 q 560 -6 579 0 q 526 -11 539 -11 q 510 -5 514 -11 q 510 18 507 1 l 551 392 l 231 385 l 193 42 q 184 8 192 15 q 157 -6 176 0 q 124 -11 136 -11 q 108 -5 111 -11 q 107 18 104 1 l 176 639 l 64 638 q 29 642 39 636 q 19 660 19 647 l 22 676 q 40 705 29 699 q 81 713 50 711 l 186 714 l 204 879 q 214 915 207 907 q 238 928 221 924 q 272 933 268 933 q 288 927 285 933 q 289 904 290 921 l 268 714 l 589 718 l 607 879 q 617 915 610 907 q 640 928 624 924 q 675 933 671 933 q 690 927 688 933 q 692 904 693 921 l 671 718 l 767 719 m 260 639 l 240 465 l 561 472 l 581 643 l 260 639 z "},"ħ":{"ha":547,"x_min":0,"x_max":486,"o":"m 358 626 q 449 589 413 626 q 486 471 486 551 q 480 344 486 407 q 460 167 474 282 l 444 42 q 434 8 442 15 q 408 -6 426 0 q 375 -11 381 -11 q 358 -4 363 -11 q 357 19 354 3 l 361 53 q 401 443 401 353 q 387 522 401 497 q 339 546 372 546 q 265 509 303 546 q 200 413 228 472 q 164 289 172 353 l 133 42 q 123 8 131 15 q 97 -6 115 0 q 65 -11 69 -11 q 49 -4 53 -11 q 47 19 44 3 q 67 174 49 29 q 110 521 86 318 l 139 771 l 43 771 q 9 776 18 771 q 0 792 0 781 l 3 808 q 20 837 10 831 q 61 843 31 843 l 149 843 l 161 935 q 170 969 164 961 q 193 982 176 978 q 226 988 214 988 q 242 981 239 988 q 244 958 246 975 l 229 843 l 379 843 q 408 839 400 843 q 417 826 417 835 q 413 803 417 817 q 394 777 406 783 q 354 771 383 771 l 219 771 l 186 521 q 358 626 257 626 z "},"Ĩ":{"ha":272,"x_min":-29,"x_max":403,"o":"m 228 904 q 226 927 229 921 q 211 933 224 933 q 176 928 207 933 q 153 915 160 924 q 143 879 146 907 l 46 18 q 47 -5 43 1 q 63 -11 50 -11 q 96 -6 75 -11 q 123 8 115 0 q 132 42 131 15 l 228 904 m 97 1078 q 67 1069 81 1078 q 36 1043 54 1061 q 17 1032 25 1032 q -8 1047 7 1032 q -24 1063 -18 1056 q -29 1075 -29 1069 q -19 1094 -29 1083 q 37 1139 8 1125 q 99 1153 65 1153 q 168 1131 133 1153 q 188 1117 172 1128 q 219 1101 203 1107 q 250 1096 235 1096 q 302 1110 279 1096 q 349 1151 325 1124 q 364 1163 360 1163 q 375 1156 369 1163 q 388 1140 381 1150 q 403 1108 403 1118 q 392 1088 403 1099 q 244 1021 329 1021 q 200 1030 221 1021 q 156 1054 179 1039 q 122 1072 135 1067 q 97 1078 110 1078 z "},"ĩ":{"ha":225,"x_min":-64,"x_max":368,"o":"m 96 -7 q 123 3 117 -1 q 131 26 129 7 q 143 218 136 142 q 190 600 158 396 q 189 622 193 615 q 174 629 185 629 q 139 624 160 629 q 116 611 122 619 q 107 576 110 603 q 47 29 47 124 q 52 -1 47 7 q 72 -10 57 -10 q 96 -7 76 -10 m 63 768 q 33 760 46 768 q 1 733 19 751 q -18 722 -10 722 q -43 738 -28 722 q -58 753 -53 746 q -64 765 -64 760 q -54 785 -64 774 q 2 829 -26 815 q 64 843 31 843 q 133 821 99 843 q 153 808 138 818 q 184 792 168 797 q 215 786 200 786 q 265 803 240 786 q 314 850 289 821 q 329 861 325 861 q 340 855 335 861 q 353 839 346 849 q 368 807 368 817 q 357 786 368 797 q 210 711 288 711 q 165 720 186 711 q 121 744 144 729 q 88 763 100 757 q 63 768 75 768 z "},"Ī":{"ha":272,"x_min":19,"x_max":353,"o":"m 228 904 q 226 927 229 921 q 211 933 224 933 q 176 928 207 933 q 153 915 160 924 q 143 879 146 907 l 46 18 q 47 -5 43 1 q 63 -11 50 -11 q 96 -6 75 -11 q 123 8 115 0 q 132 42 131 15 l 228 904 m 63 1042 q 28 1047 38 1042 q 19 1064 19 1051 l 22 1082 q 40 1110 29 1104 q 81 1117 50 1117 l 315 1117 q 344 1113 336 1117 q 353 1100 353 1108 q 349 1076 353 1092 q 331 1048 342 1054 q 290 1042 321 1042 l 63 1042 z "},"ī":{"ha":225,"x_min":-15,"x_max":318,"o":"m 96 -7 q 123 3 117 -1 q 131 26 129 7 q 143 218 136 142 q 190 600 158 396 q 189 622 193 615 q 174 629 185 629 q 139 624 160 629 q 116 611 122 619 q 107 576 110 603 q 47 29 47 124 q 52 -1 47 7 q 72 -10 57 -10 q 96 -7 76 -10 m 28 732 q -6 737 3 732 q -15 754 -15 742 l -12 772 q 5 801 -6 794 q 46 807 15 807 l 281 807 q 310 803 301 807 q 318 790 318 799 q 314 767 318 782 q 297 738 307 744 q 256 732 286 732 l 28 732 z "},"Į":{"ha":276,"x_min":-57,"x_max":229,"o":"m 132 42 q 121 7 129 14 q 94 -14 117 3 q 40 -61 60 -39 q 19 -118 19 -83 q 31 -153 19 -140 q 65 -165 43 -165 q 125 -136 96 -165 q 140 -128 133 -128 q 164 -146 150 -128 q 182 -174 182 -165 q 174 -189 182 -181 q 60 -236 126 -236 q -26 -205 4 -236 q -57 -124 -57 -174 q -31 -40 -57 -71 q 47 29 -6 -8 l 143 879 q 153 915 146 907 q 176 928 160 924 q 211 933 207 933 q 226 927 224 933 q 228 904 229 921 l 132 42 z "},"į":{"ha":225,"x_min":-51,"x_max":226,"o":"m 185 851 q 215 839 204 851 q 226 804 226 826 q 207 738 226 764 q 158 711 188 711 q 128 724 139 711 q 117 761 117 738 q 136 826 117 800 q 185 851 156 851 m 107 -15 q 46 -68 67 -43 q 25 -126 25 -93 q 37 -161 25 -149 q 71 -174 49 -174 q 131 -144 101 -174 q 146 -136 139 -136 q 169 -154 156 -136 q 188 -182 188 -174 q 179 -197 188 -189 q 65 -244 132 -244 q -21 -213 10 -244 q -51 -132 -51 -182 q -38 -68 -51 -94 q -6 -25 -25 -42 q 49 18 13 -8 q 107 576 44 94 q 118 611 113 603 q 139 624 124 619 q 172 629 160 629 q 188 623 185 629 q 190 600 192 617 q 143 218 161 422 q 131 29 131 82 q 126 3 131 13 q 107 -15 121 -6 z "},"İ":{"ha":272,"x_min":43,"x_max":261,"o":"m 228 904 q 226 927 229 921 q 211 933 224 933 q 176 928 207 933 q 153 915 160 924 q 143 879 146 907 l 46 18 q 47 -5 43 1 q 63 -11 50 -11 q 96 -6 75 -11 q 123 8 115 0 q 132 42 131 15 l 228 904 m 219 1161 q 250 1149 239 1161 q 261 1114 261 1136 q 242 1047 261 1074 q 193 1021 222 1021 q 163 1034 174 1021 q 151 1071 151 1047 q 171 1135 151 1110 q 219 1161 190 1161 z "},"ı":{"ha":225,"x_min":47,"x_max":193,"o":"m 96 -7 q 123 3 117 -1 q 131 26 129 7 q 143 218 136 142 q 190 600 158 396 q 189 622 193 615 q 174 629 185 629 q 139 624 160 629 q 116 611 122 619 q 107 576 110 603 q 47 29 47 124 q 52 -1 47 7 q 72 -10 57 -10 q 96 -7 76 -10 z "},"Ĵ":{"ha":276,"x_min":-271,"x_max":354,"o":"m 147 879 q 157 915 150 907 q 181 928 164 924 q 215 933 211 933 q 231 927 228 933 q 232 904 233 921 l 171 347 q 165 301 168 317 q 123 14 147 128 q 38 -182 99 -100 q -133 -264 -24 -264 q -260 -214 -207 -262 q -271 -194 -271 -204 q -265 -179 -271 -187 q -251 -161 -260 -171 q -222 -142 -233 -142 q -204 -150 -215 -142 q -122 -179 -162 -179 q -12 -112 -53 -179 q 47 44 29 -46 q 81 264 65 135 l 89 333 l 147 879 m 244 1061 l 299 1018 q 318 1008 314 1008 q 342 1025 328 1008 q 349 1033 343 1026 q 354 1046 354 1040 q 340 1067 354 1054 q 229 1175 289 1113 q 210 1186 218 1186 q 194 1179 204 1186 l 169 1156 q 58 1065 114 1106 q 40 1044 40 1053 q 51 1024 40 1039 q 64 1010 58 1015 q 75 1004 69 1004 q 93 1013 81 1004 l 169 1063 q 192 1078 182 1071 q 210 1090 201 1085 l 244 1061 z "},"ĵ":{"ha":226,"x_min":-231,"x_max":303,"o":"m 103 576 q 113 611 106 603 q 138 624 119 619 q 168 628 157 628 q 185 621 181 628 q 186 597 189 614 l 178 514 q 150 268 160 342 l 138 165 q 97 -85 117 0 q 31 -224 78 -171 q -103 -275 -15 -276 q -217 -228 -169 -268 q -231 -208 -231 -218 q -223 -191 -231 -201 q -214 -178 -215 -181 q -187 -158 -199 -158 q -168 -167 -179 -158 q -89 -196 -133 -192 q -11 -155 -39 -199 q 31 -37 17 -111 q 64 186 44 36 l 71 240 q 103 576 92 399 m 175 765 l 247 708 q 267 699 263 699 q 290 715 276 699 q 297 724 292 717 q 303 736 303 731 q 289 757 303 744 q 230 810 258 782 q 171 872 201 839 q 151 883 160 883 q 136 876 146 883 q 65 813 90 835 q -10 757 39 792 q -28 736 -28 744 q -17 715 -28 731 q 6 697 -3 697 q 25 704 11 697 q 151 785 63 725 l 175 765 z "},"Ķ":{"ha":656,"x_min":43,"x_max":644,"o":"m 622 921 q 644 899 644 911 q 632 876 644 890 l 321 532 l 588 49 q 596 26 596 35 q 589 15 596 19 q 564 3 582 10 q 532 -4 540 -4 q 516 1 522 -4 q 503 21 510 7 l 256 469 l 168 369 l 132 42 q 123 8 131 15 q 96 -6 115 0 q 63 -11 75 -11 q 47 -5 50 -11 q 46 18 43 1 l 143 879 q 153 915 146 907 q 176 928 160 924 q 211 933 207 933 q 226 927 224 933 q 228 904 229 921 l 183 500 l 557 913 q 588 932 574 932 q 622 921 596 932 m 264 -79 q 272 -128 272 -108 q 265 -167 272 -150 q 239 -208 257 -185 q 231 -226 231 -221 q 238 -237 231 -232 q 247 -246 244 -243 q 272 -258 265 -258 q 289 -249 279 -258 q 365 -93 365 -165 q 363 -73 365 -83 q 361 -57 361 -62 q 351 -33 357 -40 q 338 -26 346 -26 q 321 -29 335 -26 l 281 -40 q 260 -60 260 -46 q 264 -79 260 -67 z "},"ķ":{"ha":524,"x_min":54,"x_max":503,"o":"m 469 97 q 492 77 482 97 q 503 42 503 57 q 467 6 503 25 q 389 -12 431 -12 q 305 40 339 -12 q 228 206 271 93 q 215 236 221 222 q 204 263 210 250 l 201 274 q 221 293 201 288 q 353 367 303 318 q 403 474 403 417 q 385 526 403 507 q 329 544 367 544 q 229 497 272 543 q 164 371 186 450 l 150 218 q 138 26 143 142 q 130 3 136 7 q 103 -7 124 -1 q 79 -10 83 -10 q 59 -1 64 -10 q 54 29 54 7 q 88 381 54 81 q 156 935 121 682 q 165 969 158 961 q 188 982 171 978 q 222 988 208 988 q 238 981 233 988 q 239 958 242 974 q 183 542 199 674 q 258 604 215 582 q 349 626 300 626 q 448 587 410 626 q 486 481 486 547 q 431 335 486 400 q 299 242 375 271 q 351 117 326 167 q 403 68 376 68 q 444 83 424 68 q 469 97 464 97 m 190 -100 q 199 -149 199 -129 q 191 -188 199 -171 q 165 -229 183 -206 q 157 -247 157 -242 q 164 -258 157 -253 q 174 -267 171 -264 q 199 -279 192 -279 q 215 -269 206 -279 q 292 -114 292 -186 q 290 -94 292 -104 q 288 -78 288 -83 q 278 -54 283 -61 q 264 -47 272 -47 q 247 -50 261 -47 l 207 -61 q 186 -81 186 -67 q 190 -100 186 -87 z "},"ĸ":{"ha":568,"x_min":46,"x_max":538,"o":"m 515 618 q 538 596 538 608 q 525 574 538 589 l 324 351 l 496 39 q 504 17 504 25 q 497 5 504 10 q 472 -7 490 0 q 440 -14 449 -14 q 424 -8 431 -14 q 411 11 418 -3 l 258 289 l 149 167 l 135 42 q 126 8 133 15 q 99 -6 118 0 q 65 -11 78 -11 q 49 -5 53 -11 q 49 18 46 1 l 111 579 q 121 615 114 607 q 144 628 128 624 q 179 633 175 633 q 194 627 192 633 q 196 604 197 621 l 163 293 l 450 610 q 481 629 467 629 q 515 618 489 629 z "},"Ĺ":{"ha":558,"x_min":42,"x_max":515,"o":"m 472 82 q 507 80 499 83 q 515 63 515 76 l 513 38 q 497 7 506 13 q 458 0 488 1 l 99 -14 q 60 6 79 -15 q 44 49 42 28 l 135 879 q 144 915 138 907 q 168 928 151 924 q 206 933 201 933 q 222 927 218 933 q 224 904 225 921 l 133 69 l 472 82 m 72 1069 q 186 1097 142 1079 q 271 1144 231 1114 q 288 1153 282 1153 q 311 1132 297 1153 q 331 1093 331 1101 q 319 1078 331 1086 q 218 1029 281 1050 q 104 1008 156 1008 q 80 1014 86 1008 q 64 1039 74 1019 q 58 1057 58 1050 q 62 1066 58 1064 q 72 1069 65 1068 z "},"ĺ":{"ha":242,"x_min":53,"x_max":343,"o":"m 154 935 q 86 381 119 682 q 53 29 53 81 q 58 -1 53 7 q 78 -10 63 -10 q 101 -7 82 -10 q 128 3 122 -1 q 136 26 135 7 q 149 218 142 142 q 178 503 161 351 q 238 958 196 656 q 236 981 240 974 q 221 988 232 988 q 186 982 207 988 q 163 969 169 978 q 154 935 157 961 m 85 1118 q 199 1145 154 1128 q 283 1193 243 1163 q 300 1201 294 1201 q 324 1181 310 1201 q 343 1142 343 1150 q 332 1126 343 1135 q 231 1078 293 1099 q 117 1057 168 1057 q 92 1063 99 1057 q 76 1088 86 1068 q 71 1106 71 1099 q 74 1115 71 1113 q 85 1118 78 1117 z "},"Ļ":{"ha":558,"x_min":42,"x_max":515,"o":"m 472 82 q 507 80 499 83 q 515 63 515 76 l 513 38 q 497 7 506 13 q 458 0 488 1 l 99 -14 q 60 6 79 -15 q 44 49 42 28 l 135 879 q 144 915 138 907 q 168 928 151 924 q 206 933 201 933 q 222 927 218 933 q 224 904 225 921 l 133 69 l 472 82 m 235 -107 q 243 -156 243 -136 q 235 -195 243 -178 q 210 -236 228 -212 q 201 -254 201 -249 q 208 -265 201 -260 q 218 -274 215 -271 q 243 -286 236 -286 q 260 -276 250 -286 q 336 -121 336 -193 q 334 -101 336 -111 q 332 -85 332 -90 q 322 -61 328 -68 q 308 -54 317 -54 q 292 -57 306 -54 l 251 -68 q 231 -87 231 -74 q 235 -107 231 -94 z "},"ļ":{"ha":232,"x_min":8,"x_max":240,"o":"m 154 935 q 86 381 119 682 q 53 29 53 81 q 58 -1 53 7 q 78 -10 63 -10 q 101 -7 82 -10 q 128 3 122 -1 q 136 26 135 7 q 149 218 142 142 q 178 503 161 351 q 238 958 196 656 q 236 981 240 974 q 221 988 232 988 q 186 982 207 988 q 163 969 169 978 q 154 935 157 961 m 42 -107 q 50 -156 50 -136 q 42 -195 50 -178 q 17 -236 35 -212 q 8 -254 8 -249 q 15 -265 8 -260 q 25 -274 22 -271 q 50 -286 44 -286 q 67 -276 57 -286 q 143 -121 143 -193 q 141 -101 143 -111 q 139 -85 139 -90 q 129 -61 135 -68 q 115 -54 124 -54 q 99 -57 113 -54 l 58 -68 q 38 -87 38 -74 q 42 -107 38 -94 z "},"Ľ":{"ha":560,"x_min":42,"x_max":515,"o":"m 349 947 q 357 899 357 918 q 349 859 357 876 q 324 818 342 842 q 315 800 315 806 q 322 789 315 794 q 332 781 329 783 q 357 768 350 768 q 374 778 364 768 q 450 933 450 861 q 448 953 450 943 q 446 969 446 964 q 436 993 442 986 q 422 1000 431 1000 q 406 997 419 1000 l 365 986 q 344 967 344 981 q 349 947 344 960 m 472 82 q 507 80 499 83 q 515 63 515 76 l 513 38 q 497 7 506 13 q 458 0 488 1 l 99 -14 q 60 6 79 -15 q 44 49 42 28 l 135 879 q 144 915 138 907 q 168 928 151 924 q 206 933 201 933 q 222 927 218 933 q 224 904 225 921 l 133 69 l 472 82 z "},"ľ":{"ha":339,"x_min":53,"x_max":422,"o":"m 321 1003 q 329 954 329 974 q 322 915 329 932 q 296 874 314 897 q 288 856 288 861 q 294 844 288 850 q 304 836 301 839 q 329 824 324 824 q 346 833 336 824 q 422 989 422 917 q 420 1009 422 999 q 418 1025 418 1019 q 408 1049 414 1042 q 394 1056 403 1056 q 378 1053 392 1056 l 338 1042 q 317 1022 317 1036 q 321 1003 317 1015 m 154 935 q 86 381 119 682 q 53 29 53 81 q 58 -1 53 7 q 78 -10 63 -10 q 101 -7 82 -10 q 128 3 122 -1 q 136 26 135 7 q 149 218 142 142 q 178 503 161 351 q 238 958 196 656 q 236 981 240 974 q 221 988 232 988 q 186 982 207 988 q 163 969 169 978 q 154 935 157 961 z "},"Ŀ":{"ha":560,"x_min":42,"x_max":515,"o":"m 472 82 q 507 80 499 83 q 515 63 515 76 l 513 38 q 497 7 506 13 q 458 0 488 1 l 99 -14 q 60 6 79 -15 q 44 49 42 28 l 135 879 q 144 915 138 907 q 168 928 151 924 q 206 933 201 933 q 222 927 218 933 q 224 904 225 921 l 133 69 l 472 82 m 347 550 q 378 538 367 550 q 389 503 389 525 q 369 436 389 463 q 321 410 350 410 q 290 423 301 410 q 279 460 279 436 q 299 524 279 499 q 347 550 318 550 z "},"ŀ":{"ha":326,"x_min":53,"x_max":350,"o":"m 154 935 q 86 381 119 682 q 53 29 53 81 q 58 -1 53 7 q 78 -10 63 -10 q 101 -7 82 -10 q 128 3 122 -1 q 136 26 135 7 q 149 218 142 142 q 178 503 161 351 q 238 958 196 656 q 236 981 240 974 q 221 988 232 988 q 186 982 207 988 q 163 969 169 978 q 154 935 157 961 m 308 550 q 339 538 328 550 q 350 503 350 525 q 331 436 350 463 q 282 410 311 410 q 251 423 263 410 q 240 460 240 436 q 260 524 240 499 q 308 550 279 550 z "},"Ł":{"ha":633,"x_min":-11,"x_max":590,"o":"m 547 82 q 582 80 574 83 q 590 63 590 76 l 588 38 q 572 7 581 13 q 533 0 563 1 l 174 -14 q 135 6 154 -15 q 119 49 117 28 l 154 363 l 47 300 q 31 294 38 294 q 0 319 15 294 q -11 347 -11 338 q 4 369 -11 361 l 164 464 l 210 879 q 219 915 213 907 q 243 928 226 924 q 281 933 276 933 q 297 927 293 933 q 299 904 300 921 l 257 518 l 429 619 q 446 626 440 626 q 474 600 460 626 q 486 569 486 582 q 474 551 486 560 l 246 417 l 208 69 l 547 82 z "},"ł":{"ha":385,"x_min":-8,"x_max":413,"o":"m 400 582 q 413 551 413 564 q 400 533 413 542 l 239 439 q 226 326 231 371 q 219 251 222 281 l 217 218 q 204 26 210 142 q 197 3 203 7 q 169 -7 190 -1 q 146 -10 150 -10 q 126 -1 131 -10 q 121 29 121 7 q 156 389 121 88 l 50 328 q 33 322 40 322 q 3 347 18 322 q -8 375 -8 365 q 7 397 -8 389 l 167 490 q 222 935 194 739 q 231 969 225 961 q 254 982 238 978 q 289 988 275 988 q 304 981 300 988 q 306 958 308 974 q 250 540 267 679 l 356 601 q 372 608 367 608 q 400 582 386 608 z "},"Ń":{"ha":739,"x_min":43,"x_max":696,"o":"m 642 931 q 676 936 672 936 q 692 929 688 936 q 693 907 696 922 l 589 42 q 580 8 588 15 q 554 -6 572 0 q 522 -11 526 -11 q 507 -6 513 -11 q 496 11 501 -1 l 238 678 l 211 764 l 131 42 q 121 7 128 15 q 93 -6 114 -1 q 60 -11 72 -11 q 46 -5 49 -11 q 44 18 43 1 l 142 878 q 153 910 144 901 q 185 926 163 918 q 213 933 203 933 q 238 911 228 933 l 492 253 l 518 157 l 608 882 q 618 918 611 910 q 642 931 625 926 m 313 1069 q 426 1097 382 1079 q 511 1144 471 1114 q 528 1153 522 1153 q 551 1132 538 1153 q 571 1093 571 1101 q 560 1078 571 1086 q 458 1029 521 1050 q 344 1008 396 1008 q 320 1014 326 1008 q 304 1039 314 1019 q 299 1057 299 1050 q 302 1066 299 1064 q 313 1069 306 1068 z "},"ń":{"ha":540,"x_min":39,"x_max":478,"o":"m 42 18 q 83 350 68 214 q 99 578 99 486 q 105 613 99 606 q 132 625 111 621 q 168 631 165 631 q 185 624 181 631 q 188 600 189 618 l 182 522 q 350 626 254 626 q 441 589 404 626 q 478 471 478 551 q 472 344 478 407 q 451 167 465 282 l 436 42 q 426 8 433 15 q 400 -6 418 0 q 367 -11 372 -11 q 350 -4 354 -11 q 349 19 346 3 l 353 53 q 393 443 393 353 q 378 522 393 497 q 331 546 364 546 q 257 509 294 546 q 192 413 219 472 q 156 289 164 353 l 125 42 q 115 6 121 14 q 90 -6 108 -1 q 57 -11 63 -11 q 42 -5 46 -11 q 42 18 39 1 m 404 863 q 421 872 414 872 q 444 850 431 872 q 463 814 463 824 q 453 796 463 806 q 356 729 414 757 q 238 699 297 701 q 214 703 219 697 q 197 729 208 710 q 190 751 190 742 q 204 764 190 761 q 320 800 275 778 q 404 863 365 822 z "},"Ņ":{"ha":739,"x_min":43,"x_max":696,"o":"m 642 931 q 676 936 672 936 q 692 929 688 936 q 693 907 696 922 l 589 42 q 580 8 588 15 q 554 -6 572 0 q 522 -11 526 -11 q 507 -6 513 -11 q 496 11 501 -1 l 238 678 l 211 764 l 131 42 q 121 7 128 15 q 93 -6 114 -1 q 60 -11 72 -11 q 46 -5 49 -11 q 44 18 43 1 l 142 878 q 153 910 144 901 q 185 926 163 918 q 213 933 203 933 q 238 911 228 933 l 492 253 l 518 157 l 608 882 q 618 918 611 910 q 642 931 625 926 m 265 -107 q 274 -156 274 -136 q 266 -195 274 -178 q 240 -236 258 -212 q 232 -254 232 -249 q 239 -265 232 -260 q 249 -274 246 -271 q 274 -286 267 -286 q 290 -276 281 -286 q 367 -121 367 -193 q 365 -101 367 -111 q 363 -85 363 -90 q 353 -61 358 -68 q 339 -54 347 -54 q 322 -57 336 -54 l 282 -68 q 261 -87 261 -74 q 265 -107 261 -94 z "},"ņ":{"ha":540,"x_min":39,"x_max":478,"o":"m 42 18 q 83 350 68 214 q 99 578 99 486 q 105 613 99 606 q 132 625 111 621 q 168 631 165 631 q 185 624 181 631 q 188 600 189 618 l 182 522 q 350 626 254 626 q 441 589 404 626 q 478 471 478 551 q 472 344 478 407 q 451 167 465 282 l 436 42 q 426 8 433 15 q 400 -6 418 0 q 367 -11 372 -11 q 350 -4 354 -11 q 349 19 346 3 l 353 53 q 393 443 393 353 q 378 522 393 497 q 331 546 364 546 q 257 509 294 546 q 192 413 219 472 q 156 289 164 353 l 125 42 q 115 6 121 14 q 90 -6 108 -1 q 57 -11 63 -11 q 42 -5 46 -11 q 42 18 39 1 m 179 -107 q 188 -156 188 -136 q 180 -195 188 -178 q 154 -236 172 -212 q 146 -254 146 -249 q 153 -265 146 -260 q 163 -274 160 -271 q 188 -286 181 -286 q 204 -276 194 -286 q 281 -121 281 -193 q 278 -101 281 -111 q 276 -85 276 -90 q 267 -61 272 -68 q 253 -54 261 -54 q 236 -57 250 -54 l 196 -68 q 175 -87 175 -74 q 179 -107 175 -94 z "},"Ň":{"ha":739,"x_min":43,"x_max":696,"o":"m 642 931 q 676 936 672 936 q 692 929 688 936 q 693 907 696 922 l 589 42 q 580 8 588 15 q 554 -6 572 0 q 522 -11 526 -11 q 507 -6 513 -11 q 496 11 501 -1 l 238 678 l 211 764 l 131 42 q 121 7 128 15 q 93 -6 114 -1 q 60 -11 72 -11 q 46 -5 49 -11 q 44 18 43 1 l 142 878 q 153 910 144 901 q 185 926 163 918 q 213 933 203 933 q 238 911 228 933 l 492 253 l 518 157 l 608 882 q 618 918 611 910 q 642 931 625 926 m 397 1122 l 343 1165 q 324 1175 328 1175 q 300 1158 315 1175 q 293 1150 299 1157 q 288 1138 288 1143 q 301 1117 288 1129 q 413 1008 353 1071 q 432 997 424 997 q 447 1004 438 997 l 472 1028 q 583 1118 528 1078 q 601 1139 601 1131 q 590 1160 601 1144 q 578 1174 583 1168 q 567 1179 572 1179 q 549 1171 561 1179 l 472 1121 q 450 1106 460 1113 q 432 1093 440 1099 l 397 1122 z "},"ň":{"ha":540,"x_min":39,"x_max":493,"o":"m 42 18 q 83 350 68 214 q 99 578 99 486 q 105 613 99 606 q 132 625 111 621 q 168 631 165 631 q 185 624 181 631 q 188 600 189 618 l 182 522 q 350 626 254 626 q 441 589 404 626 q 478 471 478 551 q 472 344 478 407 q 451 167 465 282 l 436 42 q 426 8 433 15 q 400 -6 418 0 q 367 -11 372 -11 q 350 -4 354 -11 q 349 19 346 3 l 353 53 q 393 443 393 353 q 378 522 393 497 q 331 546 364 546 q 257 509 294 546 q 192 413 219 472 q 156 289 164 353 l 125 42 q 115 6 121 14 q 90 -6 108 -1 q 57 -11 63 -11 q 42 -5 46 -11 q 42 18 39 1 m 290 808 l 218 865 q 199 875 203 875 q 175 858 190 875 q 168 850 174 857 q 163 838 163 843 q 176 817 163 829 q 294 701 232 768 q 314 690 306 690 q 329 697 319 690 q 401 760 375 739 q 475 817 426 782 q 493 838 493 829 q 482 858 493 843 q 460 876 468 876 q 440 869 454 876 q 314 789 403 849 l 290 808 z "},"ŉ":{"ha":593,"x_min":6,"x_max":529,"o":"m 38 753 q 44 704 44 721 q 37 663 44 682 q 13 624 29 644 q 6 607 6 614 q 22 585 6 597 q 44 575 33 575 q 67 588 54 575 q 139 736 139 668 q 135 775 139 742 q 104 804 129 804 q 75 799 97 804 q 46 785 56 793 q 36 764 36 778 q 38 753 36 757 m 93 18 q 135 350 119 214 q 150 578 150 486 q 156 613 150 606 q 183 625 163 621 q 219 631 217 631 q 236 624 232 631 q 239 600 240 618 l 233 522 q 401 626 306 626 q 492 589 456 626 q 529 471 529 551 q 523 344 529 407 q 503 167 517 282 l 488 42 q 477 8 485 15 q 451 -6 469 0 q 418 -11 424 -11 q 401 -4 406 -11 q 400 19 397 3 l 404 53 q 444 443 444 353 q 430 522 444 497 q 382 546 415 546 q 308 509 346 546 q 243 413 271 472 q 207 289 215 353 l 176 42 q 166 6 172 14 q 142 -6 160 -1 q 108 -11 114 -11 q 94 -5 97 -11 q 93 18 90 1 z "},"Ō":{"ha":726,"x_min":49,"x_max":678,"o":"m 678 585 q 642 309 678 446 q 522 79 606 172 q 304 -14 438 -14 q 116 85 181 -12 q 49 338 51 182 q 85 613 49 476 q 205 843 121 750 q 422 936 289 936 q 610 837 544 935 q 678 585 675 739 m 136 351 q 181 148 136 225 q 315 71 226 71 q 476 156 414 71 q 564 358 538 242 q 590 571 590 475 q 545 774 590 697 q 411 851 500 851 q 251 766 313 851 q 163 564 189 681 q 136 351 136 447 m 297 1042 q 263 1047 272 1042 q 254 1064 254 1051 l 257 1082 q 274 1110 264 1104 q 315 1117 285 1117 l 550 1117 q 579 1113 571 1117 q 588 1100 588 1108 q 583 1076 588 1092 q 566 1048 576 1054 q 525 1042 556 1042 l 297 1042 z "},"ō":{"ha":499,"x_min":40,"x_max":471,"o":"m 300 626 q 415 563 372 625 q 458 413 457 501 q 429 198 458 294 q 342 44 400 101 q 199 -14 283 -14 q 84 49 126 -12 q 40 200 42 111 q 69 415 40 318 q 157 569 99 511 q 300 626 215 626 m 206 65 q 306 122 268 65 q 360 255 344 179 q 376 393 376 331 q 356 503 376 463 q 293 544 335 544 q 192 488 231 544 q 138 357 154 432 q 122 219 122 282 q 143 108 122 150 q 206 65 164 65 m 181 732 q 147 737 156 732 q 138 754 138 742 l 140 772 q 158 801 147 794 q 199 807 168 807 l 433 807 q 463 803 454 807 q 471 790 471 799 q 467 767 471 782 q 449 738 460 744 q 408 732 439 732 l 181 732 z "},"Ő":{"ha":726,"x_min":49,"x_max":678,"o":"m 678 585 q 642 309 678 446 q 522 79 606 172 q 304 -14 438 -14 q 116 85 181 -12 q 49 338 51 182 q 85 613 49 476 q 205 843 121 750 q 422 936 289 936 q 610 837 544 935 q 678 585 675 739 m 136 351 q 181 148 136 225 q 315 71 226 71 q 476 156 414 71 q 564 358 538 242 q 590 571 590 475 q 545 774 590 697 q 411 851 500 851 q 251 766 313 851 q 163 564 189 681 q 136 351 136 447 m 285 1074 q 362 1123 336 1100 q 419 1185 388 1146 q 436 1196 428 1196 q 461 1176 446 1196 q 482 1140 482 1150 q 474 1124 482 1135 q 403 1056 444 1089 q 324 1011 361 1024 q 311 1008 315 1008 q 297 1014 303 1008 q 288 1026 292 1019 q 281 1038 283 1033 q 272 1060 272 1051 q 285 1074 272 1068 m 475 1074 q 552 1123 526 1100 q 610 1185 578 1146 q 626 1196 618 1196 q 651 1176 636 1196 q 672 1140 672 1150 q 664 1124 672 1135 q 593 1056 635 1089 q 514 1011 551 1024 q 501 1008 506 1008 q 488 1014 493 1008 q 478 1026 482 1019 q 471 1038 474 1033 q 463 1060 463 1051 q 475 1074 463 1068 z "},"ő":{"ha":499,"x_min":40,"x_max":556,"o":"m 300 626 q 415 563 372 625 q 458 413 457 501 q 429 198 458 294 q 342 44 400 101 q 199 -14 283 -14 q 84 49 126 -12 q 40 200 42 111 q 69 415 40 318 q 157 569 99 511 q 300 626 215 626 m 206 65 q 306 122 268 65 q 360 255 344 179 q 376 393 376 331 q 356 503 376 463 q 293 544 335 544 q 192 488 231 544 q 138 357 154 432 q 122 219 122 282 q 143 108 122 150 q 206 65 164 65 m 168 764 q 245 813 219 790 q 303 875 271 836 q 319 886 311 886 q 344 867 329 886 q 365 831 365 840 q 357 814 365 825 q 286 747 328 779 q 207 701 244 714 q 194 699 199 699 q 181 704 186 699 q 171 717 175 710 q 164 728 167 724 q 156 750 156 742 q 168 764 156 758 m 358 764 q 435 813 410 790 q 493 875 461 836 q 510 886 501 886 q 535 867 519 886 q 556 831 556 840 q 547 814 556 825 q 476 747 518 779 q 397 701 435 714 q 385 699 389 699 q 371 704 376 699 q 361 717 365 710 q 354 728 357 724 q 346 750 346 742 q 358 764 346 758 z "},"Œ":{"ha":958,"x_min":49,"x_max":951,"o":"m 908 932 q 942 928 932 933 q 951 908 951 922 q 949 889 951 903 q 931 859 942 865 q 890 851 921 853 l 575 843 q 626 734 607 799 q 647 593 646 669 q 643 504 647 550 l 831 514 q 865 510 856 515 q 874 492 874 504 q 871 471 874 488 q 854 442 864 447 q 813 433 844 436 l 632 425 q 572 224 614 318 q 467 71 529 131 l 867 78 q 900 74 890 79 q 910 54 910 68 q 907 35 910 49 q 890 4 900 11 q 849 -3 879 -3 l 278 -12 q 111 60 171 -15 q 49 321 51 136 q 88 603 49 468 q 213 826 128 738 q 431 919 299 915 l 908 932 m 281 71 q 442 158 379 71 q 534 362 506 246 q 563 567 563 478 q 531 765 563 694 q 418 835 499 835 q 258 751 322 835 q 165 554 194 668 q 136 347 136 440 q 168 143 136 215 q 281 71 200 71 z "},"œ":{"ha":790,"x_min":40,"x_max":769,"o":"m 715 143 q 733 121 733 132 q 728 104 733 114 q 651 17 696 49 q 540 -14 607 -14 q 385 99 426 -12 q 199 -14 317 -14 q 84 49 126 -12 q 40 200 42 111 q 69 415 40 318 q 157 569 99 511 q 300 626 215 626 q 386 595 350 625 q 440 514 422 565 q 628 626 511 626 q 736 583 703 626 q 769 482 769 539 q 685 320 769 382 q 450 244 600 258 l 450 219 q 474 107 450 149 q 547 65 497 65 q 656 138 615 65 q 682 157 667 157 q 697 153 689 157 l 715 143 m 621 546 q 515 483 554 546 q 460 328 476 419 q 685 472 685 350 q 621 546 685 546 m 206 65 q 306 122 268 65 q 360 255 344 179 q 376 393 376 331 q 356 503 376 463 q 293 544 335 544 q 192 488 231 544 q 138 357 154 432 q 122 219 122 282 q 143 108 122 150 q 206 65 164 65 z "},"Ŕ":{"ha":694,"x_min":63,"x_max":625,"o":"m 608 46 q 618 21 618 26 q 612 10 618 15 q 589 -4 606 4 q 557 -11 565 -11 q 541 -6 547 -11 q 528 14 535 0 l 328 397 q 253 392 281 392 l 208 392 l 169 42 q 160 8 168 15 q 133 -6 153 0 q 100 -11 113 -11 q 84 -5 88 -11 q 83 18 81 1 l 176 847 q 100 833 113 836 q 89 832 96 832 q 68 842 74 832 q 63 879 63 853 q 92 914 63 908 q 206 932 154 926 q 331 938 258 938 q 548 869 471 938 q 625 690 625 801 q 573 524 625 597 q 417 417 521 451 l 608 46 m 254 474 q 468 535 399 476 q 538 689 538 594 q 484 813 538 768 q 339 857 431 857 q 260 856 285 857 l 218 475 l 254 474 m 228 1069 q 342 1097 297 1079 q 426 1144 386 1114 q 443 1153 438 1153 q 467 1132 453 1153 q 486 1093 486 1101 q 475 1078 486 1086 q 374 1029 436 1050 q 260 1008 311 1008 q 235 1014 242 1008 q 219 1039 229 1019 q 214 1057 214 1050 q 217 1066 214 1064 q 228 1069 221 1068 z "},"ŕ":{"ha":368,"x_min":39,"x_max":400,"o":"m 125 42 q 115 6 121 14 q 90 -6 108 -1 q 57 -11 63 -11 q 42 -5 46 -11 q 42 18 39 1 q 83 350 68 214 q 99 578 99 486 q 105 613 99 606 q 132 625 111 621 q 168 631 165 631 q 185 624 181 631 q 188 600 189 618 l 182 522 q 350 628 254 628 q 375 623 368 628 q 382 601 382 618 q 381 581 382 589 q 370 548 378 556 q 340 538 363 540 q 219 472 268 529 q 156 289 171 414 l 125 42 m 342 863 q 358 872 351 872 q 382 850 368 872 q 400 814 400 824 q 390 796 400 806 q 293 729 351 757 q 175 699 235 701 q 151 703 157 697 q 135 729 146 710 q 128 751 128 742 q 142 764 128 761 q 258 800 213 778 q 342 863 303 822 z "},"Ŗ":{"ha":694,"x_min":63,"x_max":625,"o":"m 608 46 q 618 21 618 26 q 612 10 618 15 q 589 -4 606 4 q 557 -11 565 -11 q 541 -6 547 -11 q 528 14 535 0 l 328 397 q 253 392 281 392 l 208 392 l 169 42 q 160 8 168 15 q 133 -6 153 0 q 100 -11 113 -11 q 84 -5 88 -11 q 83 18 81 1 l 176 847 q 100 833 113 836 q 89 832 96 832 q 68 842 74 832 q 63 879 63 853 q 92 914 63 908 q 206 932 154 926 q 331 938 258 938 q 548 869 471 938 q 625 690 625 801 q 573 524 625 597 q 417 417 521 451 l 608 46 m 254 474 q 468 535 399 476 q 538 689 538 594 q 484 813 538 768 q 339 857 431 857 q 260 856 285 857 l 218 475 l 254 474 m 299 -107 q 307 -156 307 -136 q 299 -195 307 -178 q 274 -236 292 -212 q 265 -254 265 -249 q 272 -265 265 -260 q 282 -274 279 -271 q 307 -286 300 -286 q 324 -276 314 -286 q 400 -121 400 -193 q 398 -101 400 -111 q 396 -85 396 -90 q 386 -61 392 -68 q 372 -54 381 -54 q 356 -57 369 -54 l 315 -68 q 294 -87 294 -74 q 299 -107 294 -94 z "},"ŗ":{"ha":368,"x_min":-3,"x_max":382,"o":"m 125 42 q 115 6 121 14 q 90 -6 108 -1 q 57 -11 63 -11 q 42 -5 46 -11 q 42 18 39 1 q 83 350 68 214 q 99 578 99 486 q 105 613 99 606 q 132 625 111 621 q 168 631 165 631 q 185 624 181 631 q 188 600 189 618 l 182 522 q 350 628 254 628 q 375 623 368 628 q 382 601 382 618 q 381 581 382 589 q 370 548 378 556 q 340 538 363 540 q 219 472 268 529 q 156 289 171 414 l 125 42 m 31 -107 q 39 -156 39 -136 q 31 -195 39 -178 q 6 -236 24 -212 q -3 -254 -3 -249 q 4 -265 -3 -260 q 14 -274 11 -271 q 39 -286 32 -286 q 56 -276 46 -286 q 132 -121 132 -193 q 130 -101 132 -111 q 128 -85 128 -90 q 118 -61 124 -68 q 104 -54 113 -54 q 88 -57 101 -54 l 47 -68 q 26 -87 26 -74 q 31 -107 26 -94 z "},"Ř":{"ha":694,"x_min":63,"x_max":625,"o":"m 608 46 q 618 21 618 26 q 612 10 618 15 q 589 -4 606 4 q 557 -11 565 -11 q 541 -6 547 -11 q 528 14 535 0 l 328 397 q 253 392 281 392 l 208 392 l 169 42 q 160 8 168 15 q 133 -6 153 0 q 100 -11 113 -11 q 84 -5 88 -11 q 83 18 81 1 l 176 847 q 100 833 113 836 q 89 832 96 832 q 68 842 74 832 q 63 879 63 853 q 92 914 63 908 q 206 932 154 926 q 331 938 258 938 q 548 869 471 938 q 625 690 625 801 q 573 524 625 597 q 417 417 521 451 l 608 46 m 254 474 q 468 535 399 476 q 538 689 538 594 q 484 813 538 768 q 339 857 431 857 q 260 856 285 857 l 218 475 l 254 474 m 313 1122 l 258 1165 q 239 1175 243 1175 q 215 1158 231 1175 q 208 1150 214 1157 q 203 1138 203 1143 q 217 1117 203 1129 q 328 1008 268 1071 q 347 997 339 997 q 363 1004 353 997 l 388 1028 q 499 1118 443 1078 q 517 1139 517 1131 q 506 1160 517 1144 q 493 1174 499 1168 q 482 1179 488 1179 q 464 1171 476 1179 l 388 1121 q 365 1106 375 1113 q 347 1093 356 1099 l 313 1122 z "},"ř":{"ha":368,"x_min":39,"x_max":431,"o":"m 125 42 q 115 6 121 14 q 90 -6 108 -1 q 57 -11 63 -11 q 42 -5 46 -11 q 42 18 39 1 q 83 350 68 214 q 99 578 99 486 q 105 613 99 606 q 132 625 111 621 q 168 631 165 631 q 185 624 181 631 q 188 600 189 618 l 182 522 q 350 628 254 628 q 375 623 368 628 q 382 601 382 618 q 381 581 382 589 q 370 548 378 556 q 340 538 363 540 q 219 472 268 529 q 156 289 171 414 l 125 42 m 228 808 l 156 865 q 136 875 140 875 q 113 858 128 875 q 106 850 111 857 q 100 838 100 843 q 114 817 100 829 q 232 701 169 768 q 251 690 243 690 q 267 697 257 690 q 338 760 313 739 q 413 817 364 782 q 431 838 431 829 q 419 858 431 843 q 397 876 406 876 q 378 869 392 876 q 251 789 340 849 l 228 808 z "},"Ś":{"ha":574,"x_min":-10,"x_max":528,"o":"m 322 935 q 513 874 429 935 q 528 850 528 863 q 514 819 528 839 q 485 797 497 797 q 464 806 476 797 q 392 840 425 829 q 317 851 360 851 q 212 815 251 850 q 172 715 172 781 q 203 624 172 663 q 300 532 235 586 l 332 506 q 463 372 414 438 q 513 221 513 307 q 445 50 513 114 q 268 -14 378 -14 q 124 21 189 -14 q -1 122 60 56 q -10 142 -10 133 q 13 175 -10 154 q 42 193 31 193 q 61 183 51 193 q 163 99 117 125 q 267 72 210 72 q 382 110 338 72 q 426 219 426 147 q 405 304 426 265 q 356 370 383 343 q 281 438 329 397 l 250 463 q 163 540 196 508 q 108 617 131 572 q 86 719 86 663 q 153 877 86 819 q 322 935 221 935 m 238 1069 q 351 1097 307 1079 q 436 1144 396 1114 q 453 1153 447 1153 q 476 1132 463 1153 q 496 1093 496 1101 q 485 1078 496 1086 q 383 1029 446 1050 q 269 1008 321 1008 q 245 1014 251 1008 q 229 1039 239 1019 q 224 1057 224 1050 q 227 1066 224 1064 q 238 1069 231 1068 z "},"ś":{"ha":439,"x_min":10,"x_max":408,"o":"m 324 510 q 239 553 292 553 q 181 535 204 553 q 158 481 158 518 q 180 420 158 447 q 254 354 201 393 q 356 261 324 301 q 388 163 388 221 q 333 36 388 83 q 200 -11 279 -11 q 94 19 143 -11 q 14 100 46 50 q 10 115 10 108 q 36 147 10 131 q 63 160 53 160 q 82 144 72 160 q 135 90 104 111 q 203 69 167 69 q 277 96 249 69 q 306 160 306 122 q 281 223 306 196 q 210 286 257 250 l 182 308 q 103 388 129 350 q 76 482 76 426 q 124 590 76 550 q 242 631 171 631 q 399 543 351 631 q 403 529 403 535 q 396 515 403 521 q 371 500 389 510 q 347 493 354 493 q 324 510 335 493 m 350 863 q 367 872 360 872 q 390 850 376 872 q 408 814 408 824 q 399 796 408 806 q 301 729 360 757 q 183 699 243 701 q 160 703 165 697 q 143 729 154 710 q 136 751 136 742 q 150 764 136 761 q 266 800 221 778 q 350 863 311 822 z "},"Ŝ":{"ha":574,"x_min":-10,"x_max":528,"o":"m 322 935 q 513 874 429 935 q 528 850 528 863 q 514 819 528 839 q 485 797 497 797 q 464 806 476 797 q 392 840 425 829 q 317 851 360 851 q 212 815 251 850 q 172 715 172 781 q 203 624 172 663 q 300 532 235 586 l 332 506 q 463 372 414 438 q 513 221 513 307 q 445 50 513 114 q 268 -14 378 -14 q 124 21 189 -14 q -1 122 60 56 q -10 142 -10 133 q 13 175 -10 154 q 42 193 31 193 q 61 183 51 193 q 163 99 117 125 q 267 72 210 72 q 382 110 338 72 q 426 219 426 147 q 405 304 426 265 q 356 370 383 343 q 281 438 329 397 l 250 463 q 163 540 196 508 q 108 617 131 572 q 86 719 86 663 q 153 877 86 819 q 322 935 221 935 m 401 1061 l 456 1018 q 475 1008 471 1008 q 499 1025 485 1008 q 506 1033 500 1026 q 511 1046 511 1040 q 497 1067 511 1054 q 386 1175 446 1113 q 367 1186 375 1186 q 351 1179 361 1186 l 326 1156 q 215 1065 271 1106 q 197 1044 197 1053 q 208 1024 197 1039 q 221 1010 215 1015 q 232 1004 226 1004 q 250 1013 238 1004 l 326 1063 q 349 1078 339 1071 q 367 1090 358 1085 l 401 1061 z "},"ŝ":{"ha":439,"x_min":10,"x_max":418,"o":"m 324 510 q 239 553 292 553 q 181 535 204 553 q 158 481 158 518 q 180 420 158 447 q 254 354 201 393 q 356 261 324 301 q 388 163 388 221 q 333 36 388 83 q 200 -11 279 -11 q 94 19 143 -11 q 14 100 46 50 q 10 115 10 108 q 36 147 10 131 q 63 160 53 160 q 82 144 72 160 q 135 90 104 111 q 203 69 167 69 q 277 96 249 69 q 306 160 306 122 q 281 223 306 196 q 210 286 257 250 l 182 308 q 103 388 129 350 q 76 482 76 426 q 124 590 76 550 q 242 631 171 631 q 399 543 351 631 q 403 529 403 535 q 396 515 403 521 q 371 500 389 510 q 347 493 354 493 q 324 510 335 493 m 290 765 l 363 708 q 382 699 378 699 q 406 715 392 699 q 413 724 407 717 q 418 736 418 731 q 404 757 418 744 q 345 810 374 782 q 286 872 317 839 q 267 883 275 883 q 251 876 261 883 q 180 813 206 835 q 106 757 154 792 q 88 736 88 744 q 99 715 88 731 q 121 697 113 697 q 140 704 126 697 q 267 785 178 725 l 290 765 z "},"Ş":{"ha":574,"x_min":-10,"x_max":528,"o":"m 317 851 q 212 815 251 850 q 172 715 172 781 q 203 624 172 663 q 300 532 235 586 l 332 506 q 463 372 414 438 q 513 219 513 307 q 451 56 513 118 q 289 -12 390 -6 l 268 -61 q 336 -89 308 -65 q 364 -156 364 -112 q 214 -286 364 -258 q 200 -287 208 -287 q 167 -269 181 -287 q 153 -239 153 -250 q 167 -225 153 -226 q 264 -199 236 -214 q 292 -160 292 -183 q 281 -136 292 -143 q 253 -129 269 -129 q 222 -133 239 -129 q 211 -135 218 -135 q 198 -128 203 -135 q 189 -106 193 -122 q 188 -76 185 -83 l 217 -10 q 103 32 156 -1 q -1 122 50 65 q -10 142 -10 133 q 13 175 -10 154 q 42 193 31 193 q 61 183 51 193 q 163 99 117 125 q 267 72 210 72 q 382 110 338 72 q 426 219 426 147 q 405 304 426 265 q 356 370 383 343 q 281 438 329 397 l 250 463 q 163 540 196 508 q 108 617 131 572 q 86 719 86 663 q 153 877 86 819 q 322 935 221 935 q 513 874 429 935 q 528 850 528 863 q 514 819 528 839 q 485 797 497 797 q 464 806 476 797 q 392 840 425 829 q 317 851 360 851 z "},"ş":{"ha":439,"x_min":10,"x_max":403,"o":"m 239 553 q 181 535 204 553 q 158 481 158 518 q 180 420 158 447 q 254 354 201 393 q 356 261 324 301 q 388 163 388 221 q 340 43 388 89 q 221 -10 293 -3 l 199 -61 q 267 -89 239 -65 q 294 -156 294 -112 q 144 -286 294 -258 q 131 -287 139 -287 q 97 -269 111 -287 q 83 -239 83 -250 q 97 -225 83 -226 q 194 -199 167 -214 q 222 -160 222 -183 q 211 -136 222 -143 q 183 -129 200 -129 q 153 -133 169 -129 q 142 -135 149 -135 q 128 -128 133 -135 q 119 -106 124 -122 q 118 -76 115 -83 l 150 -4 q 74 35 108 7 q 14 100 39 63 q 10 115 10 108 q 36 147 10 131 q 63 160 53 160 q 82 144 72 160 q 135 90 104 111 q 203 69 167 69 q 277 96 249 69 q 306 160 306 122 q 281 223 306 196 q 210 286 257 250 l 182 308 q 103 388 129 350 q 76 482 76 426 q 124 590 76 550 q 242 631 171 631 q 399 543 351 631 q 403 529 403 535 q 396 515 403 521 q 371 500 389 510 q 347 493 354 493 q 324 510 335 493 q 239 553 292 553 z "},"Š":{"ha":574,"x_min":-10,"x_max":528,"o":"m 322 935 q 513 874 429 935 q 528 850 528 863 q 514 819 528 839 q 485 797 497 797 q 464 806 476 797 q 392 840 425 829 q 317 851 360 851 q 212 815 251 850 q 172 715 172 781 q 203 624 172 663 q 300 532 235 586 l 332 506 q 463 372 414 438 q 513 221 513 307 q 445 50 513 114 q 268 -14 378 -14 q 124 21 189 -14 q -1 122 60 56 q -10 142 -10 133 q 13 175 -10 154 q 42 193 31 193 q 61 183 51 193 q 163 99 117 125 q 267 72 210 72 q 382 110 338 72 q 426 219 426 147 q 405 304 426 265 q 356 370 383 343 q 281 438 329 397 l 250 463 q 163 540 196 508 q 108 617 131 572 q 86 719 86 663 q 153 877 86 819 q 322 935 221 935 m 322 1122 l 268 1165 q 249 1175 253 1175 q 225 1158 240 1175 q 218 1150 224 1157 q 213 1138 213 1143 q 226 1117 213 1129 q 338 1008 278 1071 q 357 997 349 997 q 372 1004 363 997 l 397 1028 q 508 1118 453 1078 q 526 1139 526 1131 q 515 1160 526 1144 q 503 1174 508 1168 q 492 1179 497 1179 q 474 1171 486 1179 l 397 1121 q 375 1106 385 1113 q 357 1093 365 1099 l 322 1122 z "},"š":{"ha":439,"x_min":10,"x_max":439,"o":"m 324 510 q 239 553 292 553 q 181 535 204 553 q 158 481 158 518 q 180 420 158 447 q 254 354 201 393 q 356 261 324 301 q 388 163 388 221 q 333 36 388 83 q 200 -11 279 -11 q 94 19 143 -11 q 14 100 46 50 q 10 115 10 108 q 36 147 10 131 q 63 160 53 160 q 82 144 72 160 q 135 90 104 111 q 203 69 167 69 q 277 96 249 69 q 306 160 306 122 q 281 223 306 196 q 210 286 257 250 l 182 308 q 103 388 129 350 q 76 482 76 426 q 124 590 76 550 q 242 631 171 631 q 399 543 351 631 q 403 529 403 535 q 396 515 403 521 q 371 500 389 510 q 347 493 354 493 q 324 510 335 493 m 236 808 l 164 865 q 144 875 149 875 q 121 858 136 875 q 114 850 119 857 q 108 838 108 843 q 122 817 108 829 q 240 701 178 768 q 260 690 251 690 q 275 697 265 690 q 347 760 321 739 q 421 817 372 782 q 439 838 439 829 q 428 858 439 843 q 406 876 414 876 q 386 869 400 876 q 260 789 349 849 l 236 808 z "},"Ţ":{"ha":578,"x_min":24,"x_max":633,"o":"m 590 932 q 624 927 615 932 q 633 910 633 922 q 631 889 633 906 q 613 858 624 865 q 572 851 603 851 l 375 851 l 286 42 q 270 -8 283 24 q 253 -50 257 -40 q 321 -78 293 -54 q 349 -144 349 -101 q 199 -275 349 -247 q 185 -276 193 -276 q 151 -258 165 -276 q 138 -228 138 -239 q 151 -214 138 -215 q 249 -187 221 -203 q 276 -149 276 -172 q 265 -125 276 -132 q 238 -118 254 -118 q 207 -122 224 -118 q 196 -124 203 -124 q 183 -117 188 -124 q 174 -94 178 -111 q 172 -65 169 -72 q 183 -31 175 -57 q 198 24 192 -4 q 208 85 204 51 l 293 851 l 67 851 q 33 856 42 851 q 24 874 24 861 q 26 894 24 878 q 44 925 33 918 q 85 932 54 932 l 590 932 z "},"ţ":{"ha":364,"x_min":14,"x_max":356,"o":"m 322 615 q 349 611 342 615 q 356 597 356 607 q 353 578 356 586 q 335 547 346 554 q 294 540 325 540 l 206 540 q 163 150 163 256 q 172 88 163 110 q 207 65 182 65 q 271 93 238 65 q 292 104 283 104 q 318 85 303 104 q 330 69 325 76 q 335 56 335 61 q 319 33 335 47 q 219 -12 272 -6 l 199 -61 q 267 -89 239 -65 q 294 -156 294 -112 q 144 -286 294 -258 q 131 -287 139 -287 q 97 -269 111 -287 q 83 -239 83 -250 q 97 -225 83 -226 q 194 -199 167 -214 q 222 -160 222 -183 q 211 -136 222 -143 q 183 -129 200 -129 q 153 -133 169 -129 q 142 -135 149 -135 q 128 -128 133 -135 q 119 -106 124 -122 q 118 -76 115 -83 l 150 -6 q 97 48 113 10 q 81 142 82 86 q 124 540 81 263 l 58 540 q 24 544 33 540 q 14 561 14 549 q 18 583 14 569 q 34 610 24 606 q 76 615 44 615 l 136 615 l 175 842 q 184 877 178 869 q 208 889 190 885 q 243 894 242 894 q 258 888 256 894 q 258 864 261 882 q 217 615 238 742 l 322 615 z "},"Ť":{"ha":578,"x_min":24,"x_max":633,"o":"m 589 936 q 624 932 614 938 q 633 914 633 926 q 631 894 633 908 q 613 864 624 871 q 572 856 603 857 l 375 853 l 286 42 q 277 8 285 15 q 250 -6 269 0 q 217 -11 229 -11 q 201 -5 204 -11 q 200 18 197 1 l 293 851 l 68 847 q 33 851 43 846 q 24 869 24 857 q 26 889 24 875 q 44 919 33 913 q 85 928 54 926 l 589 936 m 315 1122 l 261 1165 q 242 1175 246 1175 q 218 1158 233 1175 q 211 1150 217 1157 q 206 1138 206 1143 q 219 1117 206 1129 q 331 1008 271 1071 q 350 997 342 997 q 365 1004 356 997 l 390 1028 q 501 1118 446 1078 q 519 1139 519 1131 q 508 1160 519 1144 q 496 1174 501 1168 q 485 1179 490 1179 q 467 1171 479 1179 l 390 1121 q 368 1106 378 1113 q 350 1093 358 1099 l 315 1122 z "},"ť":{"ha":429,"x_min":14,"x_max":457,"o":"m 453 922 q 455 906 453 917 q 457 886 457 896 q 381 731 457 814 q 364 721 371 721 q 339 733 357 721 q 329 742 336 736 q 322 753 322 747 q 331 771 322 758 q 356 812 349 794 q 364 851 364 829 q 356 900 364 871 q 351 919 351 913 q 372 939 351 933 l 413 950 q 429 953 426 953 q 443 946 438 953 q 453 922 449 939 m 322 615 q 349 611 342 615 q 356 597 356 607 q 353 578 356 586 q 335 547 346 554 q 294 540 325 540 l 206 540 q 163 150 163 256 q 172 88 163 110 q 207 65 182 65 q 271 93 238 65 q 292 104 283 104 q 318 85 303 104 q 330 69 325 76 q 335 56 335 61 q 319 33 335 47 q 197 -14 261 -14 q 108 29 133 -12 q 81 142 82 71 q 124 540 81 263 l 58 540 q 24 544 33 540 q 14 561 14 549 q 18 583 14 569 q 34 610 24 606 q 76 615 44 615 l 136 615 l 175 842 q 184 877 178 869 q 208 889 190 885 q 243 894 242 894 q 258 888 256 894 q 258 864 261 882 q 217 615 238 742 l 322 615 z "},"Ũ":{"ha":693,"x_min":69,"x_max":656,"o":"m 547 583 q 564 790 557 657 l 569 879 q 576 915 571 907 q 599 928 582 924 q 635 933 629 933 q 651 927 647 933 q 654 904 656 921 q 632 597 644 736 q 587 286 611 404 q 493 77 563 168 q 293 -14 424 -14 q 124 82 175 -12 q 69 325 72 176 q 78 536 69 431 q 106 800 88 642 q 115 879 110 826 q 125 915 118 907 q 149 928 132 924 q 183 933 179 933 q 199 927 196 933 q 200 904 201 921 l 188 788 q 163 544 171 640 q 154 351 154 449 q 189 146 154 221 q 304 71 224 71 q 438 143 389 71 q 506 310 486 215 q 542 536 526 404 l 547 583 m 310 1078 q 280 1069 293 1078 q 249 1043 267 1061 q 229 1032 238 1032 q 204 1047 219 1032 q 189 1063 194 1056 q 183 1075 183 1069 q 193 1094 183 1083 q 249 1139 221 1125 q 311 1153 278 1153 q 381 1131 346 1153 q 400 1117 385 1128 q 431 1101 415 1107 q 463 1096 447 1096 q 515 1110 492 1096 q 561 1151 538 1124 q 576 1163 572 1163 q 588 1156 582 1163 q 600 1140 593 1150 q 615 1108 615 1118 q 604 1088 615 1099 q 457 1021 542 1021 q 413 1030 433 1021 q 368 1054 392 1039 q 335 1072 347 1067 q 310 1078 322 1078 z "},"ũ":{"ha":526,"x_min":56,"x_max":515,"o":"m 361 106 q 290 18 333 50 q 196 -14 247 -14 q 94 26 133 -14 q 56 143 56 65 q 62 269 56 207 q 82 447 68 332 l 97 572 q 108 606 100 599 q 133 619 115 614 q 164 625 161 625 q 181 618 176 625 q 182 594 185 611 l 178 563 q 156 388 175 542 q 139 165 138 235 q 208 68 139 68 q 319 137 275 68 q 378 325 364 206 l 408 572 q 417 606 410 599 q 443 619 425 614 q 476 625 471 625 q 491 619 488 625 q 492 596 494 613 q 481 494 492 581 q 449 219 461 350 q 438 18 443 151 q 404 -7 436 -1 q 383 -10 388 -10 q 361 1 367 -10 q 357 42 356 13 q 361 106 357 67 m 210 768 q 180 760 193 768 q 149 733 167 751 q 129 722 138 722 q 104 738 119 722 q 89 753 94 746 q 83 765 83 760 q 93 785 83 774 q 149 829 121 815 q 211 843 178 843 q 281 821 246 843 q 300 808 285 818 q 331 792 315 797 q 363 786 347 786 q 412 803 388 786 q 461 850 436 821 q 476 861 472 861 q 488 855 482 861 q 500 839 493 849 q 515 807 515 817 q 504 786 515 797 q 357 711 435 711 q 313 720 333 711 q 268 744 292 729 q 235 763 247 757 q 210 768 222 768 z "},"Ū":{"ha":693,"x_min":69,"x_max":656,"o":"m 547 583 q 564 790 557 657 l 569 879 q 576 915 571 907 q 599 928 582 924 q 635 933 629 933 q 651 927 647 933 q 654 904 656 921 q 632 597 644 736 q 587 286 611 404 q 493 77 563 168 q 293 -14 424 -14 q 124 82 175 -12 q 69 325 72 176 q 78 536 69 431 q 106 800 88 642 q 115 879 110 826 q 125 915 118 907 q 149 928 132 924 q 183 933 179 933 q 199 927 196 933 q 200 904 201 921 l 188 788 q 163 544 171 640 q 154 351 154 449 q 189 146 154 221 q 304 71 224 71 q 438 143 389 71 q 506 310 486 215 q 542 536 526 404 l 547 583 m 275 1042 q 241 1047 250 1042 q 232 1064 232 1051 l 235 1082 q 252 1110 242 1104 q 293 1117 263 1117 l 528 1117 q 557 1113 549 1117 q 565 1100 565 1108 q 561 1076 565 1092 q 544 1048 554 1054 q 503 1042 533 1042 l 275 1042 z "},"ū":{"ha":526,"x_min":56,"x_max":494,"o":"m 361 106 q 290 18 333 50 q 196 -14 247 -14 q 94 26 133 -14 q 56 143 56 65 q 62 269 56 207 q 82 447 68 332 l 97 572 q 108 606 100 599 q 133 619 115 614 q 164 625 161 625 q 181 618 176 625 q 182 594 185 611 l 178 563 q 156 388 175 542 q 139 165 138 235 q 208 68 139 68 q 319 137 275 68 q 378 325 364 206 l 408 572 q 417 606 410 599 q 443 619 425 614 q 476 625 471 625 q 491 619 488 625 q 492 596 494 613 q 481 494 492 581 q 449 219 461 350 q 438 18 443 151 q 404 -7 436 -1 q 383 -10 388 -10 q 361 1 367 -10 q 357 42 356 13 q 361 106 357 67 m 175 732 q 141 737 150 732 q 132 754 132 742 l 135 772 q 152 801 142 794 q 193 807 163 807 l 428 807 q 457 803 449 807 q 465 790 465 799 q 461 767 465 782 q 444 738 454 744 q 403 732 433 732 l 175 732 z "},"Ŭ":{"ha":693,"x_min":69,"x_max":656,"o":"m 547 583 q 564 790 557 657 l 569 879 q 576 915 571 907 q 599 928 582 924 q 635 933 629 933 q 651 927 647 933 q 654 904 656 921 q 632 597 644 736 q 587 286 611 404 q 493 77 563 168 q 293 -14 424 -14 q 124 82 175 -12 q 69 325 72 176 q 78 536 69 431 q 106 800 88 642 q 115 879 110 826 q 125 915 118 907 q 149 928 132 924 q 183 933 179 933 q 199 927 196 933 q 200 904 201 921 l 188 788 q 163 544 171 640 q 154 351 154 449 q 189 146 154 221 q 304 71 224 71 q 438 143 389 71 q 506 310 486 215 q 542 536 526 404 l 547 583 m 344 1125 q 366 1086 354 1099 q 401 1074 378 1074 q 446 1088 429 1074 q 483 1133 463 1101 q 503 1149 493 1149 q 525 1139 511 1149 q 537 1131 528 1136 q 549 1121 546 1125 q 553 1111 553 1117 q 546 1094 553 1106 q 480 1026 517 1047 q 393 1004 443 1004 q 272 1104 307 1006 l 269 1115 q 277 1129 269 1124 q 304 1140 285 1135 q 326 1144 318 1144 q 338 1140 335 1144 q 344 1125 340 1136 z "},"ŭ":{"ha":526,"x_min":56,"x_max":494,"o":"m 361 106 q 290 18 333 50 q 196 -14 247 -14 q 94 26 133 -14 q 56 143 56 65 q 62 269 56 207 q 82 447 68 332 l 97 572 q 108 606 100 599 q 133 619 115 614 q 164 625 161 625 q 181 618 176 625 q 182 594 185 611 l 178 563 q 156 388 175 542 q 139 165 138 235 q 208 68 139 68 q 319 137 275 68 q 378 325 364 206 l 408 572 q 417 606 410 599 q 443 619 425 614 q 476 625 471 625 q 491 619 488 625 q 492 596 494 613 q 481 494 492 581 q 449 219 461 350 q 438 18 443 151 q 404 -7 436 -1 q 383 -10 388 -10 q 361 1 367 -10 q 357 42 356 13 q 361 106 357 67 m 247 822 q 270 780 257 794 q 306 765 283 765 q 351 782 333 765 q 392 831 369 799 q 411 846 401 846 q 433 836 419 846 q 445 828 436 833 q 458 818 454 822 q 461 808 461 814 q 454 792 461 803 q 387 719 424 743 q 297 694 350 694 q 220 722 249 696 q 174 801 192 749 l 171 813 q 178 826 171 821 q 206 838 186 832 q 229 842 222 842 q 240 838 238 842 q 247 822 243 833 z "},"Ů":{"ha":693,"x_min":69,"x_max":656,"o":"m 547 583 q 564 790 557 657 l 569 879 q 576 915 571 907 q 599 928 582 924 q 635 933 629 933 q 651 927 647 933 q 654 904 656 921 q 632 597 644 736 q 587 286 611 404 q 493 77 563 168 q 293 -14 424 -14 q 124 82 175 -12 q 69 325 72 176 q 78 536 69 431 q 106 800 88 642 q 115 879 110 826 q 125 915 118 907 q 149 928 132 924 q 183 933 179 933 q 199 927 196 933 q 200 904 201 921 l 188 788 q 163 544 171 640 q 154 351 154 449 q 189 146 154 221 q 304 71 224 71 q 438 143 389 71 q 506 310 486 215 q 542 536 526 404 l 547 583 m 394 1007 q 332 1036 353 1007 q 311 1104 311 1065 q 345 1203 311 1165 q 431 1242 379 1242 q 492 1212 472 1242 q 513 1143 513 1182 q 478 1045 513 1083 q 394 1007 444 1007 m 371 1106 q 378 1079 371 1090 q 403 1068 386 1068 q 438 1089 424 1068 q 453 1142 453 1110 q 445 1168 453 1157 q 421 1179 438 1179 q 385 1158 400 1179 q 371 1106 371 1138 z "},"ů":{"ha":526,"x_min":56,"x_max":494,"o":"m 361 106 q 290 18 333 50 q 196 -14 247 -14 q 94 26 133 -14 q 56 143 56 65 q 62 269 56 207 q 82 447 68 332 l 97 572 q 108 606 100 599 q 133 619 115 614 q 164 625 161 625 q 181 618 176 625 q 182 594 185 611 l 178 563 q 156 388 175 542 q 139 165 138 235 q 208 68 139 68 q 319 137 275 68 q 378 325 364 206 l 408 572 q 417 606 410 599 q 443 619 425 614 q 476 625 471 625 q 491 619 488 625 q 492 596 494 613 q 481 494 492 581 q 449 219 461 350 q 438 18 443 151 q 404 -7 436 -1 q 383 -10 388 -10 q 361 1 367 -10 q 357 42 356 13 q 361 106 357 67 m 294 697 q 232 726 253 697 q 211 794 211 756 q 245 894 211 856 q 331 932 279 932 q 392 902 372 932 q 413 833 413 872 q 378 735 413 774 q 294 697 344 697 m 271 796 q 278 769 271 781 q 303 758 286 758 q 338 779 324 758 q 353 832 353 800 q 345 858 353 847 q 321 869 338 869 q 285 849 300 869 q 271 796 271 828 z "},"Ű":{"ha":693,"x_min":69,"x_max":656,"o":"m 547 583 q 564 790 557 657 l 569 879 q 576 915 571 907 q 599 928 582 924 q 635 933 629 933 q 651 927 647 933 q 654 904 656 921 q 632 597 644 736 q 587 286 611 404 q 493 77 563 168 q 293 -14 424 -14 q 124 82 175 -12 q 69 325 72 176 q 78 536 69 431 q 106 800 88 642 q 115 879 110 826 q 125 915 118 907 q 149 928 132 924 q 183 933 179 933 q 199 927 196 933 q 200 904 201 921 l 188 788 q 163 544 171 640 q 154 351 154 449 q 189 146 154 221 q 304 71 224 71 q 438 143 389 71 q 506 310 486 215 q 542 536 526 404 l 547 583 m 263 1074 q 340 1123 314 1100 q 397 1185 365 1146 q 414 1196 406 1196 q 439 1176 424 1196 q 460 1140 460 1150 q 451 1124 460 1135 q 381 1056 422 1089 q 301 1011 339 1024 q 289 1008 293 1008 q 275 1014 281 1008 q 265 1026 269 1019 q 258 1038 261 1033 q 250 1060 250 1051 q 263 1074 250 1068 m 453 1074 q 530 1123 504 1100 q 588 1185 556 1146 q 604 1196 596 1196 q 629 1176 614 1196 q 650 1140 650 1150 q 642 1124 650 1135 q 571 1056 613 1089 q 492 1011 529 1024 q 479 1008 483 1008 q 465 1014 471 1008 q 456 1026 460 1019 q 449 1038 451 1033 q 440 1060 440 1051 q 453 1074 440 1068 z "},"ű":{"ha":526,"x_min":56,"x_max":550,"o":"m 361 106 q 290 18 333 50 q 196 -14 247 -14 q 94 26 133 -14 q 56 143 56 65 q 62 269 56 207 q 82 447 68 332 l 97 572 q 108 606 100 599 q 133 619 115 614 q 164 625 161 625 q 181 618 176 625 q 182 594 185 611 l 178 563 q 156 388 175 542 q 139 165 138 235 q 208 68 139 68 q 319 137 275 68 q 378 325 364 206 l 408 572 q 417 606 410 599 q 443 619 425 614 q 476 625 471 625 q 491 619 488 625 q 492 596 494 613 q 481 494 492 581 q 449 219 461 350 q 438 18 443 151 q 404 -7 436 -1 q 383 -10 388 -10 q 361 1 367 -10 q 357 42 356 13 q 361 106 357 67 m 163 764 q 240 813 214 790 q 297 875 265 836 q 314 886 306 886 q 339 867 324 886 q 360 831 360 840 q 351 814 360 825 q 281 747 322 779 q 201 701 239 714 q 189 699 193 699 q 175 704 181 699 q 165 717 169 710 q 158 728 161 724 q 150 750 150 742 q 163 764 150 758 m 353 764 q 430 813 404 790 q 488 875 456 836 q 504 886 496 886 q 529 867 514 886 q 550 831 550 840 q 542 814 550 825 q 471 747 513 779 q 392 701 429 714 q 379 699 383 699 q 365 704 371 699 q 356 717 360 710 q 349 728 351 724 q 340 750 340 742 q 353 764 340 758 z "}}}
